<svg width="101" height="100" viewBox="0 0 101 100" fill="none" xmlns="http://www.w3.org/2000/svg">
<g clip-path="url(#clip0_684_1160)">
<path d="M26.3066 20.6978L32.0866 17.9991L36.5796 27.6224L30.7996 30.321L26.3066 20.6978Z" fill="#1576F7"/>
<path d="M31.7695 14.6052L23.8983 18.2757C22.2889 19.0261 21.5926 20.9392 22.343 22.5485C23.0934 24.1579 25.0065 24.8542 26.6158 24.1038L34.4871 20.4333C36.0965 19.6829 36.7928 17.7698 36.0424 16.1605C35.292 14.5511 33.3789 13.8548 31.7695 14.6052Z" fill="#FCA62F"/>
<path d="M36.0428 16.1602C36.7934 17.77 36.0959 19.6821 34.4861 20.4327L29.3105 22.8462C30.9203 22.0956 31.6178 20.1835 30.8672 18.5737C30.4924 17.7698 29.8256 17.1917 29.0523 16.9102C28.2791 16.6288 27.3967 16.643 26.5928 17.0178L31.7684 14.6044C32.5742 14.2286 33.4547 14.2153 34.2279 14.4967C35.001 14.7782 35.6678 15.3563 36.0428 16.1602Z" fill="#F98824"/>
<path d="M38.0222 99.4787C36.4757 99.2061 35.4017 97.7865 35.5593 96.2242L36.646 85.46L44.1101 86.7762L41.4495 97.2629C41.0634 98.785 39.5685 99.7514 38.0222 99.4787Z" fill="#FCC16D"/>
<path d="M84.9418 77.5997C85.727 76.2397 85.3301 74.5045 84.0318 73.6211L75.0875 67.5344L71.2979 74.0983L81.0412 78.801C82.4555 79.4836 84.1566 78.9596 84.9418 77.5997Z" fill="#FCC16D"/>
<path d="M46.8734 90.012C64.989 90.012 79.6746 75.3264 79.6746 57.2108C79.6746 39.0953 64.989 24.4097 46.8734 24.4097C28.7578 24.4097 14.0723 39.0953 14.0723 57.2108C14.0723 75.3264 28.7578 90.012 46.8734 90.012Z" fill="#31A7FB"/>
<path d="M76.601 43.3495C84.2565 59.7669 77.1547 79.2833 60.7355 86.9395C59.5936 87.472 58.4387 87.9325 57.2715 88.3227C71.3189 79.7331 76.9744 61.7743 69.8506 46.4972C62.7268 31.22 45.3342 24.0087 29.7246 29.2483C30.7738 28.605 31.8689 28.0163 33.0109 27.4839C49.4301 19.8276 68.9445 26.9304 76.601 43.3495Z" fill="#1C96F9"/>
<path d="M46.8734 83.8968C61.6117 83.8968 73.5594 71.9491 73.5594 57.2108C73.5594 42.4726 61.6117 30.5249 46.8734 30.5249C32.1352 30.5249 20.1875 42.4726 20.1875 57.2108C20.1875 71.9491 32.1352 83.8968 46.8734 83.8968Z" fill="#D9E7EB"/>
<path d="M71.06 45.9332C77.2887 59.2908 71.5086 75.168 58.151 81.3967C57.0057 81.9307 55.842 82.377 54.6672 82.7379C65.6613 75.6111 70.0025 61.2941 64.3078 49.0818C58.6131 36.8695 44.8545 30.9906 32.3281 34.8316C33.3598 34.1637 34.4494 33.559 35.5947 33.025C48.9523 26.7961 64.8311 32.5756 71.06 45.9332Z" fill="#C5D3DD"/>
<path d="M49.1071 55.4366L41.9602 40.11C41.2874 38.6672 39.5726 38.043 38.1298 38.7159C36.687 39.3887 36.0628 41.1036 36.7356 42.5463L43.8825 57.8729L49.1071 55.4366Z" fill="#FB3A82"/>
<path d="M44.0125 56.1672L39.0285 69.8608C38.4677 71.4014 39.2621 73.1049 40.8027 73.6657C42.3433 74.2266 44.047 73.4321 44.6076 71.8915L49.5916 58.1979C47.732 57.5209 45.8722 56.8442 44.0125 56.1672Z" fill="#FB3A82"/>
<path d="M46.7762 61.0384C48.8649 61.0384 50.5582 59.3452 50.5582 57.2564C50.5582 55.1676 48.8649 53.4744 46.7762 53.4744C44.6874 53.4744 42.9941 55.1676 42.9941 57.2564C42.9941 59.3452 44.6874 61.0384 46.7762 61.0384Z" fill="#FCA62F"/>
<path d="M66.3807 28.8941L44.3166 22.982C41.7897 22.3048 40.2903 19.7076 40.9672 17.1808C42.4141 11.7808 47.9647 8.57632 53.3645 10.0232L65.0243 13.1474C70.4243 14.5943 73.6287 20.1449 72.1819 25.5447C71.5049 28.0716 68.9077 29.571 66.3807 28.8941Z" fill="#8DCAFC"/>
<path d="M72.1811 25.5458C71.766 27.0973 70.6252 28.261 69.223 28.7713C68.3404 29.0926 67.3559 29.1547 66.3799 28.8936L60.8885 27.4219C61.5279 27.5942 62.1842 27.5467 62.8035 27.3215C64.1291 26.8391 65.2861 25.5409 65.7465 23.8209C67.1898 18.4307 64.9008 13.1346 60.6309 11.969L65.024 13.1471C70.4232 14.595 73.6281 20.1442 72.1811 25.5458Z" fill="#64B9FC"/>
<path d="M12.6416 53.9533L22.2954 33.2512C23.401 30.8803 22.3752 28.0621 20.0043 26.9564C14.9377 24.5937 8.91508 26.7859 6.55239 31.8525L1.45083 42.7924C-0.911869 47.859 1.28032 53.8816 6.34692 56.2443C8.71782 57.35 11.5362 56.3242 12.6416 53.9533Z" fill="#8DCAFC"/>
<path d="M22.2963 33.2519L12.6408 53.9542C11.8389 55.6763 10.1311 56.6884 8.3457 56.6884C7.67637 56.6884 6.99492 56.5456 6.34609 56.2437C6.04199 56.1028 5.7502 55.9478 5.46875 55.7804C5.59531 55.5905 5.70742 55.3907 5.80547 55.1784L15.4588 34.4761C16.5646 32.105 15.5383 29.2872 13.1674 28.1813C12.341 27.7956 11.49 27.5325 10.6332 27.3815C12.1738 26.4878 13.9348 26.0063 15.7322 26.0063C17.1646 26.0063 18.6215 26.3124 20.0049 26.9571C22.3758 28.063 23.4 30.8808 22.2963 33.2519Z" fill="#64B9FC"/>
<path d="M98.9767 20.8872L85.8665 29.0552C85.1697 29.4894 84.9568 30.4062 85.391 31.1029L87.7577 34.9019L82.0009 42.2253C81.3152 43.0978 82.3622 44.2658 83.304 43.6788L96.4142 35.5109C97.1111 35.0767 97.324 34.1599 96.8898 33.463L94.523 29.664L100.28 22.3406C100.966 21.4685 99.9185 20.3005 98.9767 20.8872Z" fill="#FFD395"/>
<path d="M89.8529 0.773688L78.9307 11.696C78.3502 12.2764 78.3502 13.2176 78.9307 13.7983L82.0957 16.9633L78.1449 25.3993C77.6742 26.4042 78.9584 27.3049 79.7432 26.5204L90.6654 15.5981C91.2459 15.0176 91.2459 14.0764 90.6654 13.4958L87.5004 10.3307L91.4512 1.89478C91.9219 0.889899 90.6377 -0.0108826 89.8529 0.773688Z" fill="#FFD395"/>
</g>
<defs>
<clipPath id="clip0_684_1160">
<rect width="100" height="100" fill="white" transform="translate(0.5)"/>
</clipPath>
</defs>
</svg>
