<svg width="16" height="17" viewBox="0 0 16 17" fill="none" xmlns="http://www.w3.org/2000/svg">
<path fill-rule="evenodd" clip-rule="evenodd" d="M4.13086 10.6115C4.13086 9.44527 6.78405 8.49908 10.058 8.49908C13.3311 8.49908 15.9843 9.4453 15.9843 10.6115V12.553C15.9843 13.7191 13.3311 14.6653 10.058 14.6653C6.78405 14.6653 4.13086 13.7191 4.13086 12.553C4.13086 11.9058 4.13086 11.2586 4.13086 10.6115Z" fill="#FE9923"/>
<path fill-rule="evenodd" clip-rule="evenodd" d="M10.058 8.49908C13.3311 8.49908 15.9843 9.4453 15.9843 10.6115C15.9843 11.7785 13.3311 12.7238 10.058 12.7238C6.78405 12.7238 4.13086 11.7786 4.13086 10.6115C4.13083 9.44527 6.78405 8.49908 10.058 8.49908Z" fill="#FECD3D"/>
<path fill-rule="evenodd" clip-rule="evenodd" d="M10.0584 9.48618C12.6625 9.48618 14.7731 9.99064 14.7731 10.6115C14.7731 11.2332 12.6625 11.7367 10.0584 11.7367C7.45424 11.7367 5.34277 11.2331 5.34277 10.6115C5.34277 9.99064 7.45424 9.48618 10.0584 9.48618Z" fill="#FEA832"/>
<path d="M7.05809 13.4846L7.56437 13.4855V14.469C7.39078 14.4408 7.22262 14.409 7.05809 14.3745V13.4846ZM14.3823 12.9638V13.9973C14.565 13.9273 14.7341 13.8537 14.8895 13.7764V12.9629L14.3823 12.9638ZM8.88869 14.6235C9.05594 14.6362 9.225 14.6453 9.39587 14.6517V13.7119L8.88869 13.7128V14.6235ZM5.22656 13.7764C5.382 13.8537 5.55106 13.9273 5.73375 13.9973V12.9629L5.22656 12.9638V13.7764ZM10.7202 14.6517C10.892 14.6453 11.0601 14.6353 11.2265 14.6235V13.7128L10.7202 13.7119V14.6517ZM12.5517 14.469C12.7253 14.4408 12.8944 14.409 13.058 14.3745V13.4855L12.5517 13.4846V14.469Z" fill="#C85929"/>
<path d="M1.75573 12.9584V13.5874H2.38383V14.0364H1.75573V14.6654H1.30673V14.0364H0.677734V13.5874H1.30673V12.9584H1.75573Z" fill="#FEA832"/>
<path d="M13.247 6.06949V6.69846H13.876V7.14658H13.247V7.77555H12.798V7.14658H12.1699V6.69846H12.798V6.06949H13.247Z" fill="#FEA832"/>
<path d="M2.05749 2.33466V2.96366H2.68559V3.41175H2.05749V4.04075H1.60846V3.41175H0.979492V2.96366H1.60846V2.33466H2.05749Z" fill="#FEA832"/>
<path fill-rule="evenodd" clip-rule="evenodd" d="M0.124278 9.51347C-0.459254 8.50272 1.3659 6.35672 4.20087 4.72063C7.03587 3.08363 9.80631 2.57644 10.3898 3.58625C10.7134 4.14706 11.037 4.70697 11.3606 5.26688C11.9441 6.27763 10.119 8.42363 7.284 10.0597C4.44903 11.6967 1.67856 12.2048 1.09503 11.1941C0.771434 10.6342 0.447871 10.0734 0.124278 9.51347Z" fill="#FE9923"/>
<path fill-rule="evenodd" clip-rule="evenodd" d="M4.20087 4.72063C7.03587 3.08363 9.80631 2.57644 10.3898 3.58625C10.9734 4.597 9.14822 6.743 6.31325 8.3791C3.47918 10.0161 0.707809 10.5233 0.124278 9.51344C-0.459254 8.50272 1.3659 6.35672 4.20087 4.72063Z" fill="#FECD3D"/>
<path fill-rule="evenodd" clip-rule="evenodd" d="M4.69419 5.57503C6.94928 4.27343 9.02984 3.65443 9.34069 4.19253C9.65153 4.73062 8.07453 6.22218 5.81947 7.52471C3.56437 8.82631 1.48472 9.44531 1.17387 8.90721C0.863031 8.36912 2.43909 6.87753 4.69419 5.57503Z" fill="#FEA832"/>
<path d="M6.23384 9.56619L6.70377 10.3797C6.55199 10.4597 6.40109 10.536 6.25021 10.6087L5.79484 9.81979L6.23384 9.56619ZM2.24902 11.0023L2.65534 11.7058C2.82802 11.6958 3.01165 11.6749 3.20434 11.644L2.68805 10.7487L2.24902 11.0023ZM4.09509 10.5378L4.54046 11.3086C4.69952 11.2568 4.8613 11.1995 5.02584 11.1378L4.53409 10.2852L4.09509 10.5378ZM7.3809 8.90357L7.85084 9.71707C7.99537 9.62619 8.13715 9.53347 8.2753 9.43985L7.81993 8.65179L7.3809 8.90357ZM10.6167 6.17038L10.1777 6.42488L10.6949 7.31929C10.8176 7.16841 10.9276 7.01932 11.023 6.87479L10.6167 6.17038ZM8.8534 7.79104L9.34515 8.64363C9.48149 8.53272 9.61146 8.42094 9.73599 8.30913L9.29152 7.53925L8.8534 7.79104Z" fill="#C85929"/>
</svg>
