<svg width="81" height="80" viewBox="0 0 81 80" fill="none" xmlns="http://www.w3.org/2000/svg">
<path d="M72.9009 45.155C70.0465 43.798 68.8299 40.3821 70.1947 37.5199C70.7562 36.3267 71.7154 35.3674 72.9165 34.7981C78.0013 32.4039 80.1772 26.3208 77.7673 21.2281C76.1062 17.703 72.5733 15.4335 68.6739 15.3867L27.3789 15.4023H27.371L12.8574 15.4179C7.28895 15.4257 2.78123 19.9335 2.76561 25.5018C2.75781 29.4715 5.0195 33.1057 8.59135 34.8449C11.4458 36.2019 12.6624 39.6178 11.3054 42.48C10.7438 43.6654 9.77679 44.6325 8.58359 45.194C5.01169 46.941 2.75 50.5596 2.75 54.5371C2.75 60.0899 7.24996 64.6054 12.795 64.6132H12.8261L68.6427 64.582C74.2111 64.5742 78.7188 60.0664 78.7266 54.498C78.7422 50.5206 76.4806 46.8941 72.9009 45.155ZM29.1258 57.0873C29.1258 57.8048 28.5409 58.3819 27.8312 58.3819C27.1137 58.3819 26.5288 57.8048 26.5288 57.0873V54.9504C26.5288 54.2329 27.1137 53.6558 27.8312 53.6558C28.5409 53.6558 29.1258 54.2329 29.1258 54.9504V57.0873ZM29.1258 46.4028C29.1258 47.1203 28.5409 47.7052 27.8312 47.7052C27.1137 47.7052 26.5288 47.1203 26.5288 46.4028V44.2737C26.5288 43.5562 27.1137 42.9713 27.8312 42.9713C28.5409 42.9713 29.1258 43.5562 29.1258 44.2737V46.4028ZM29.1258 35.7262C29.1258 36.4437 28.5409 37.0208 27.8312 37.0208C27.1137 37.0208 26.5288 36.4437 26.5288 35.7262V33.5893C26.5288 32.8718 27.1137 32.2947 27.8312 32.2947C28.5409 32.2947 29.1258 32.8718 29.1258 33.5893V35.7262ZM29.1258 25.0417C29.1258 25.7592 28.5409 26.3441 27.8312 26.3441C27.1137 26.3441 26.5288 25.7592 26.5288 25.0417V22.9048C26.5288 22.1951 27.1137 21.6102 27.8312 21.6102C28.5409 21.6102 29.1258 22.1951 29.1258 22.9048V25.0417Z" fill="url(#paint0_linear_1418_4747)"/>
<defs>
<linearGradient id="paint0_linear_1418_4747" x1="0.69" y1="-3.86325" x2="74.3028" y2="76.8096" gradientUnits="userSpaceOnUse">
<stop stop-color="#97E0FF"/>
<stop offset="1" stop-color="#1075FF"/>
</linearGradient>
</defs>
</svg>
