<svg width="101" height="100" viewBox="0 0 101 100" fill="none" xmlns="http://www.w3.org/2000/svg">
<g clip-path="url(#clip0_746_811)">
<path fill-rule="evenodd" clip-rule="evenodd" d="M47.2658 22.6184C48.7826 23.1012 50.2426 23.709 51.6344 24.4305L60.7465 18.6815L69.8018 27.7368L64.0527 36.8489C64.7742 38.2407 65.382 39.7006 65.8648 41.2174L76.3687 43.592V56.4024L65.8648 58.777C65.3818 60.2938 64.7742 61.7538 64.0527 63.1512L69.8018 72.2577L60.7465 81.3186L51.6344 75.5639C50.2426 76.2854 48.7826 76.8932 47.2658 77.3817L44.8912 87.8856H32.0809L29.7062 77.3817C28.1895 76.8932 26.7295 76.2852 25.332 75.5639L16.2256 81.3186L7.16465 72.2577L12.9193 63.1512C12.1979 61.7538 11.59 60.2938 11.1016 58.777L0.597656 56.4024V43.592L11.1016 41.2174C11.59 39.7006 12.1979 38.2407 12.9193 36.8489L7.16465 27.7368L16.2256 18.6815L25.332 24.4305C26.7295 23.709 28.1895 23.1012 29.7062 22.6184L32.0809 12.1145H44.8912L47.2658 22.6184Z" fill="#A2A2F9"/>
<path fill-rule="evenodd" clip-rule="evenodd" d="M46.1979 82.0854L44.8912 87.8856H32.0809L29.7062 77.3817C28.1895 76.8932 26.7295 76.2852 25.332 75.5639L16.2256 81.3186L7.17031 72.2577L12.9193 63.1512C12.1979 61.7538 11.59 60.2938 11.1016 58.777L0.597656 56.4024V43.592L11.1016 41.2174C11.59 39.7006 12.1979 38.2407 12.9193 36.8489L7.17031 27.7368L16.2256 18.6815L25.332 24.4305C26.7295 23.709 28.1895 23.1012 29.7062 22.6184L32.0809 12.1145H44.8912L46.1979 17.909C31.5811 21.2719 20.6852 34.3606 20.6852 50C20.6852 65.6338 31.5811 78.7282 46.1979 82.0854Z" fill="#9494F7"/>
<path fill-rule="evenodd" clip-rule="evenodd" d="M38.4828 69.3775C49.157 69.3775 57.8602 60.6687 57.8602 50.0001C57.8602 39.3259 49.157 30.6228 38.4828 30.6228C27.8141 30.6228 19.1055 39.3259 19.1055 50.0001C19.1055 60.6687 27.8143 69.3775 38.4828 69.3775Z" fill="#F1F0FF"/>
<path fill-rule="evenodd" clip-rule="evenodd" d="M23.5365 50.0001C23.5365 40.0472 31.041 31.8441 40.6984 30.7478C39.9713 30.6626 39.2328 30.6228 38.4828 30.6228C31.9102 30.6228 26.1043 33.8949 22.599 38.8998C20.4006 42.0414 19.1055 45.8701 19.1055 50.0001C19.1055 54.1244 20.4006 57.9533 22.5992 61.1005C26.1043 66.1054 31.9102 69.3775 38.483 69.3775C39.2328 69.3775 39.9713 69.3322 40.6986 69.2525C31.041 68.1505 23.5365 59.9529 23.5365 50.0001Z" fill="#D0D0F7"/>
<path fill-rule="evenodd" clip-rule="evenodd" d="M43.1475 68.8095V60.6745C47.3512 58.8681 50.2996 54.6868 50.2996 49.8185C50.2996 44.9499 47.3512 40.7688 43.1475 38.9624V50.3355H33.8252V38.9624C29.6156 40.7688 26.6729 44.9501 26.6729 49.8185C26.6729 54.6868 29.6156 58.8681 33.8252 60.6745V68.8095C35.3193 69.1786 36.8758 69.3774 38.4836 69.3774C40.0914 69.3774 41.6533 69.1786 43.1475 68.8095Z" fill="#FF5BA8"/>
<path fill-rule="evenodd" clip-rule="evenodd" d="M38.4836 50.3352H33.8252V38.9622C29.6156 40.7686 26.6729 44.9499 26.6729 49.8182C26.6729 54.6866 29.6156 58.8678 33.8252 60.6743V68.8092C35.3193 69.1784 36.8758 69.3772 38.4836 69.3772V50.3352Z" fill="#ED4593"/>
<path fill-rule="evenodd" clip-rule="evenodd" d="M92.1732 21.6982L97.8541 24.9816C100.286 26.3847 101.126 29.5206 99.723 31.9521L73.3922 77.5579L57.7471 87.8857L58.8719 69.173L85.2025 23.5671C86.6059 21.1357 89.7418 20.2949 92.1732 21.6982Z" fill="#FDD835"/>
<path fill-rule="evenodd" clip-rule="evenodd" d="M92.173 21.6982L94.309 22.931C91.8775 21.5279 88.7416 22.3685 87.3385 24.7999L61.0078 70.4058L60.0479 86.3689L57.7471 87.8857L58.8719 69.173L85.2025 23.5671C86.6057 21.1357 89.7416 20.2949 92.173 21.6982Z" fill="#FBC02D"/>
<path fill-rule="evenodd" clip-rule="evenodd" d="M73.3922 77.5578L57.7471 87.8855L58.8721 69.1729L73.3922 77.5578Z" fill="#5B5E8B"/>
<path fill-rule="evenodd" clip-rule="evenodd" d="M57.7471 87.8855L58.8721 69.1729L61.008 70.4057L60.0479 86.3688L57.7471 87.8855Z" fill="#4A4D71"/>
<path fill-rule="evenodd" clip-rule="evenodd" d="M92.1734 21.6982L97.8543 24.9816C100.286 26.3847 101.127 29.5206 99.7232 31.9521L97.042 36.5876L82.5273 28.2083L85.2029 23.5671C86.6061 21.1357 89.742 20.2949 92.1734 21.6982Z" fill="#FF5BA8"/>
<path fill-rule="evenodd" clip-rule="evenodd" d="M92.1734 21.6981L94.3094 22.931C91.8779 21.5278 88.742 22.3685 87.3389 24.7999L84.6576 29.4411L82.5273 28.2083L85.2029 23.5671C85.2256 23.5274 85.2484 23.4933 85.2711 23.4534C85.2938 23.4194 85.3164 23.3796 85.3393 23.3454C85.3621 23.3058 85.3904 23.2716 85.4131 23.2374C85.4357 23.1978 85.4643 23.1636 85.4869 23.1294C85.5096 23.0954 85.5381 23.0612 85.5607 23.0271C85.5893 22.9931 85.6176 22.9589 85.6402 22.9247C85.6686 22.8907 85.6971 22.8622 85.7254 22.8282C85.748 22.794 85.7766 22.7601 85.8049 22.7315C85.8332 22.6974 85.8617 22.669 85.89 22.6349C85.9184 22.6063 85.9469 22.578 85.9809 22.544C86.0094 22.5157 86.0377 22.4872 86.066 22.4589C86.1002 22.4304 86.1285 22.4021 86.1568 22.3737C86.1908 22.3454 86.2193 22.3169 86.2535 22.2886C86.2818 22.2603 86.316 22.2317 86.3502 22.2091C86.3785 22.1806 86.4127 22.1522 86.4469 22.1296C86.4752 22.1011 86.5094 22.0784 86.5436 22.0501C86.5775 22.0274 86.6117 22.0046 86.6402 21.9763H86.6459C86.6742 21.9536 86.7084 21.9308 86.7426 21.9081C86.7766 21.8854 86.8107 21.8626 86.8506 21.8399C86.8846 21.8173 86.9187 21.7944 86.9529 21.7718C86.9869 21.7548 87.0211 21.7319 87.0609 21.7093C87.0949 21.6923 87.1291 21.6694 87.1689 21.6524C87.2029 21.6298 87.2371 21.6128 87.277 21.5956C87.3109 21.5729 87.3508 21.5558 87.385 21.5388C87.4246 21.5218 87.4588 21.5048 87.4986 21.4876C87.5326 21.4706 87.5725 21.4534 87.6066 21.4364C87.6463 21.4194 87.6861 21.4024 87.7203 21.3911C87.76 21.3741 87.7998 21.3569 87.8396 21.3456C87.8736 21.3286 87.9135 21.3171 87.9533 21.3058C87.993 21.2888 88.0328 21.2774 88.067 21.2659C88.1066 21.2546 88.1465 21.2376 88.1863 21.2261C88.2262 21.2147 88.2658 21.2034 88.3057 21.1978C88.3455 21.1864 88.3852 21.1751 88.425 21.1636C88.4648 21.1579 88.5045 21.1466 88.5443 21.1353C88.584 21.1296 88.6238 21.1183 88.6637 21.1126C88.7033 21.1069 88.7432 21.0956 88.783 21.0899C88.8227 21.0843 88.8625 21.0786 88.9023 21.0729C88.9477 21.0673 88.9875 21.0616 89.0273 21.056C89.0672 21.0503 89.1068 21.0446 89.1467 21.0446C89.1922 21.039 89.2318 21.0333 89.2717 21.0333C89.3115 21.0276 89.3512 21.0276 89.3967 21.0276C89.4363 21.022 89.4762 21.022 89.516 21.022H89.641H89.766C89.8057 21.022 89.8455 21.022 89.8854 21.0276C89.9309 21.0276 89.9705 21.0333 90.0103 21.0333C90.0502 21.039 90.0955 21.039 90.1354 21.0446C90.175 21.0503 90.2148 21.0503 90.2604 21.056C90.3 21.0616 90.3398 21.0673 90.3797 21.0729C90.4193 21.0786 90.4648 21.0843 90.5047 21.0956C90.5443 21.1013 90.5842 21.1069 90.6297 21.1183C90.6695 21.1239 90.7092 21.1353 90.749 21.1409C90.7889 21.1522 90.8285 21.1636 90.874 21.1694C90.9137 21.1808 90.9535 21.1921 90.9934 21.2034C91.033 21.2147 91.0729 21.2261 91.1127 21.2376C91.1523 21.2489 91.1979 21.2659 91.2377 21.2774C91.2773 21.2888 91.3172 21.3058 91.357 21.3171C91.3967 21.3341 91.4365 21.3456 91.4764 21.3626C91.5162 21.3796 91.5559 21.3968 91.5957 21.4138C91.6355 21.4251 91.6752 21.4421 91.7094 21.4649C91.7492 21.4819 91.7889 21.4991 91.8287 21.5161C91.8684 21.5331 91.9082 21.556 91.948 21.5729C91.982 21.5956 92.0219 21.6128 92.0617 21.6354C92.0994 21.6583 92.1336 21.6753 92.1734 21.6981Z" fill="#ED4593"/>
</g>
<defs>
<clipPath id="clip0_746_811">
<rect width="100" height="100" fill="white" transform="translate(0.5)"/>
</clipPath>
</defs>
</svg>
