<svg width="137" height="182" viewBox="0 0 137 182" fill="none" xmlns="http://www.w3.org/2000/svg">
<g clip-path="url(#clip0_595_1026)">
<mask id="mask0_595_1026" style="mask-type:luminance" maskUnits="userSpaceOnUse" x="0" y="0" width="137" height="182">
<path d="M137 0H0V182H137V0Z" fill="white"/>
</mask>
<g mask="url(#mask0_595_1026)">
<path d="M64.191 182C66.5242 175.177 69.4708 181.626 69.4708 181.626L73.0589 140.653L44.3823 142.075C44.3823 142.075 43.4621 138.351 36.3789 181.991" fill="#1A6B94"/>
<path d="M89.1208 140.653L58.0273 141.533L66.4491 182H102.99C104.254 160.606 89.1208 140.662 89.1208 140.662V140.653Z" fill="#1A6B94"/>
<path d="M42.9138 85.5017C42.9138 85.5017 42.8673 85.717 42.8302 86.1381C42.793 86.606 42.7465 87.2144 42.7 87.9631C42.5792 89.5541 42.4955 91.8563 42.4398 94.7014C42.3375 100.392 42.5978 108.253 43.1648 116.919C43.7318 125.576 44.2152 133.419 44.3267 139.099C44.3918 141.935 44.4104 144.237 44.3918 145.828C44.3918 146.586 44.3918 147.185 44.3918 147.663C44.3918 148.084 44.4104 148.299 44.429 148.299C44.4476 148.299 44.4662 148.084 44.4941 147.663C44.5127 147.195 44.5498 146.586 44.587 145.828C44.6707 144.237 44.6986 141.935 44.68 139.09C44.6614 133.4 44.2245 125.548 43.6668 116.891C43.0997 108.234 42.7837 100.392 42.8023 94.7107C42.8116 91.875 42.8395 89.5728 42.9045 87.9818C42.9231 87.2237 42.9324 86.6248 42.951 86.1475C42.951 85.7263 42.951 85.5111 42.9324 85.5111L42.9138 85.5017Z" fill="#263238"/>
<path d="M47.692 26.1201C47.692 26.1201 43.3696 42.3763 42.9978 53.8782L42.877 57.7153C42.877 57.7153 52.4048 65.6796 60.399 66.1756L67.101 49.5919L47.692 26.1295V26.1201Z" fill="#FFA51E"/>
<path d="M90.0239 36.0966C88.202 28.1697 87.5048 18.942 80.9515 13.7666C76.09 9.92948 70.5499 8.86258 64.387 9.12463C61.3473 9.25565 57.9173 10.6688 55.2681 12.1756C51.6428 14.2439 50.0998 18.4366 48.3522 22.2456C44.8478 29.8824 45.2847 40.2145 47.6644 43.0876L79.3434 59.9334C85.6736 56.6204 89.6335 55.3008 90.6467 46.8124C91.0743 43.2373 90.8326 39.6155 90.0239 36.106V36.0966Z" fill="#FFA51E"/>
<path d="M80.6164 20.0652L60.6776 14.1411C54.2544 13.1958 49.6531 21.0198 48.9932 27.5241C48.2588 34.7491 47.6453 43.5931 48.2867 49.0306C49.5788 59.9616 57.7867 61.6742 57.7867 61.6742C57.7867 61.6368 57.8053 61.8333 57.7402 65.0621L57.7123 71.7162C57.6287 73.8313 58.0005 74.5426 59.2833 76.2178C62.2206 80.0549 67.5841 80.5696 73.9051 78.2112C77.5675 76.8448 80.1145 74.1027 80.3933 70.3592L83.8605 24.0707C83.9814 22.0867 82.5685 20.3459 80.6164 20.0652Z" fill="#F5C9BA"/>
<path d="M52.6092 37.0513C52.5534 37.7812 53.1297 38.4364 53.892 38.5112C54.6542 38.5861 55.3142 38.0433 55.37 37.3133C55.4257 36.5833 54.8494 35.9282 54.0965 35.8533C53.3342 35.7785 52.6743 36.3213 52.6185 37.0513H52.6092Z" fill="#263238"/>
<path d="M50.3121 34.0753C50.4795 34.2624 51.5577 33.5231 53.045 33.5886C54.5323 33.626 55.592 34.4403 55.7686 34.2718C55.8523 34.1969 55.6849 33.86 55.2295 33.495C54.774 33.13 53.9932 32.7557 53.0636 32.7276C52.1341 32.6995 51.3439 33.0084 50.8792 33.3453C50.4051 33.6822 50.2378 34.0004 50.3214 34.0846L50.3121 34.0753Z" fill="#263238"/>
<path d="M66.2264 37.3039C66.1706 38.0339 66.7469 38.689 67.5092 38.7639C68.2714 38.8388 68.9314 38.296 68.9871 37.566C69.0429 36.836 68.4666 36.1809 67.7137 36.106C66.9514 36.0312 66.2915 36.574 66.2357 37.3039H66.2264Z" fill="#263238"/>
<path d="M64.9528 34.253C65.1201 34.4402 66.1984 33.7008 67.6856 33.7664C69.1729 33.8038 70.2326 34.618 70.4092 34.4495C70.4929 34.3747 70.3349 34.0378 69.8701 33.6728C69.4146 33.3078 68.6338 32.9334 67.7042 32.9053C66.7747 32.8773 65.9846 33.1861 65.5198 33.523C65.0457 33.8599 64.8784 34.1781 64.9621 34.2624L64.9528 34.253Z" fill="#263238"/>
<path d="M59.1528 43.9769C59.1621 43.8926 58.2419 43.6961 56.7546 43.4434C56.3735 43.3873 56.0203 43.303 55.9645 43.0316C55.8901 42.7509 56.0574 42.3484 56.2619 41.9086C56.6523 41.0008 57.0706 40.0368 57.4982 39.0354C59.2179 34.9457 60.4821 31.5765 60.3241 31.511C60.1567 31.4455 58.6323 34.7023 56.9033 38.7921C56.485 39.8029 56.0946 40.7574 55.7135 41.684C55.5555 42.1145 55.2859 42.6011 55.4532 43.1814C55.5462 43.4715 55.8158 43.6867 56.0574 43.7616C56.2991 43.8458 56.5129 43.8552 56.6988 43.8739C58.2047 44.0143 59.1435 44.0611 59.1528 43.9769Z" fill="#263238"/>
<path d="M57.7388 61.6743C57.7388 61.6743 64.98 62.4323 72.342 58.3706C72.342 58.3706 68.4751 65.8295 57.7109 64.3883L57.7388 61.6836V61.6743Z" fill="#6F4439"/>
<path d="M63.9863 47.3085C63.6237 46.6628 62.9452 46.3071 62.2294 46.251C61.2069 46.1761 60.3238 46.4943 59.6174 47.4302C59.3757 47.7016 59.3664 48.4784 59.4501 48.6936C59.5337 48.9089 59.4686 48.8059 59.6267 48.9557C60.203 49.5172 60.8165 50.0694 61.588 50.2846C62.3503 50.4999 63.3077 50.2846 63.8468 49.5453C64.3209 48.8902 64.3395 47.9449 63.977 47.2992L63.9863 47.3085Z" fill="#AF472C"/>
<path d="M63.7624 45.2496C63.5207 45.2215 63.4464 46.8499 62.0149 47.9449C60.5834 49.0399 58.8637 48.7778 58.8451 49.0025C58.8172 49.1054 59.2169 49.3394 59.942 49.3862C60.6577 49.4423 61.7081 49.2645 62.5819 48.5907C63.4557 47.9168 63.8647 46.9903 63.9483 46.3259C64.0413 45.652 63.874 45.2402 63.7717 45.2402L63.7624 45.2496Z" fill="#263238"/>
<path d="M64.3972 28.7688C64.4994 29.19 66.0053 29.1432 67.725 29.5269C69.4539 29.8732 70.8018 30.5189 71.0714 30.182C71.1922 30.0136 70.9877 29.6111 70.4579 29.1619C69.9373 28.7127 69.0728 28.2541 68.041 28.0389C67.0092 27.8236 66.0332 27.8985 65.3732 28.095C64.7132 28.2915 64.36 28.5817 64.3972 28.7782V28.7688Z" fill="#263238"/>
<path d="M50.4332 30.0416C50.7679 30.3411 51.8554 29.817 53.2219 29.6018C54.579 29.3397 55.7781 29.4614 55.9919 29.0683C56.0849 28.8811 55.8525 28.5723 55.3041 28.3196C54.7649 28.0763 53.8911 27.9359 52.9523 28.095C52.0227 28.2541 51.2512 28.6846 50.8236 29.0964C50.3867 29.5175 50.2845 29.8825 50.4332 30.0323V30.0416Z" fill="#263238"/>
<path d="M60.6052 12.9712C60.5866 13.0463 60.5679 13.1307 60.5586 13.2058L60.5959 13.2245C60.5959 13.1401 60.5959 13.0556 60.6052 12.9712Z" fill="#263238"/>
<path d="M74.5463 66.0633C74.853 63.2182 73.7097 60.3544 74.0443 57.5094C74.3976 54.4958 76.331 51.9035 77.1304 48.9742C78.4039 44.2854 76.6564 39.2972 76.015 34.4494C73.3193 34.1124 70.8002 32.484 68.9969 30.3689C66.831 27.8327 65.5204 24.6788 64.2469 21.5904C64.3213 24.6227 65.3623 27.6175 67.1843 30.032C65.9851 30.2847 64.721 29.77 63.8193 28.9277C62.9176 28.0948 62.332 26.9717 61.8487 25.8393C60.6774 23.0972 60.036 20.1304 59.9338 17.145C59.5341 21.4126 60.0081 25.7644 61.3467 29.8355C60.5938 29.6015 59.7851 29.8074 59.0042 29.9291C58.2234 30.0507 57.3218 30.0227 56.7733 29.4518C56.4015 29.0681 56.2714 28.5253 56.1598 28.0012C55.4162 24.37 55.2953 20.6171 55.7973 16.9485C54.8306 18.9325 53.8824 20.9353 53.3247 23.0785C52.767 25.2123 52.6182 27.5052 53.2782 29.6202C52.9715 30.0133 52.3115 29.9572 51.9397 29.6202C51.5678 29.274 51.4284 28.7592 51.354 28.2539C51.0659 26.4289 51.3912 24.5665 51.7073 22.7509C50.629 24.6788 50.2665 26.9062 49.6716 29.04C49.0767 31.1644 48.1285 33.345 46.288 34.5617C45.972 31.3797 46.0835 29.2085 46.5576 26.223C46.9201 23.9488 47.9984 21.684 48.9837 19.6064C50.0899 17.276 51.6329 14.9925 53.3619 13.4764C56.5409 10.6687 57.8702 11.876 59.8966 12.9523L60.1383 13.0552C60.1383 13.0084 60.1476 12.9523 60.1569 12.9055L60.2498 12.475C65.539 11.2771 71.1348 11.5391 76.2845 13.233C80.1143 14.4871 80.4675 22.7883 81.3971 18.8389C81.9641 16.4524 85.0316 18.633 85.0688 18.6986C89.5864 26.8968 94.3643 39.8962 94.5874 60.448L74.537 66.082L74.5463 66.0633Z" fill="#FFA51E"/>
<path d="M87.6065 3.44392C85.8032 1.45986 83.2655 0.0841239 80.5884 -0.000105009C77.9206 -0.0843339 75.1692 1.23525 73.812 3.55623C72.4549 5.8772 72.7244 9.12469 74.6486 10.9871L77.9857 13.6731C80.2817 14.9458 83.1168 15.367 85.5615 14.4124C88.0062 13.4578 89.9025 10.9964 89.8374 8.36663C89.791 6.52296 88.8521 4.80094 87.6158 3.44392H87.6065Z" fill="#FFA51E"/>
<path d="M85.0405 18.3524C84.3991 18.6519 82.5679 15.8442 79.3052 13.6262C76.0983 11.3427 72.8356 10.6127 72.8913 9.90142C72.9192 9.57386 73.8395 9.31181 75.3267 9.47091C76.8047 9.62065 78.8311 10.2664 80.7181 11.5766C82.6051 12.8962 83.9251 14.5714 84.585 15.9097C85.2543 17.2574 85.338 18.212 85.0405 18.3524Z" fill="#455A64"/>
<path d="M57.6864 65.9418L54.8977 70.6493L45.7417 73.7938C45.7417 73.7938 37.1434 89.8535 37.5617 98.6226C37.98 107.392 40.2109 112.043 40.2109 112.043L39.8019 124.004C39.8019 124.004 37.1434 134.598 38.8165 138.22C40.4897 141.841 43.548 143.61 43.548 143.61L82.7656 144.106C82.7656 144.106 88.8449 143.779 90.4902 139.043C92.1355 134.308 86.5675 101.926 86.5675 101.926L95.1286 79.7179L81.2783 72.1186L78.75 65.3896L62.1761 69.6479L57.6864 65.9418Z" fill="#BAC7CD"/>
<path d="M23.4127 91.4163L27.0286 104.865L34.0095 80.7379C34.8554 78.0145 37.8207 75.1788 40.4234 74.3552L54.8965 70.6492L38.9175 122.057L37.5232 125.679C36.4635 128.056 34.6974 129.666 32.6431 130.601C26.8148 133.259 19.4621 130.321 17.919 124.069L9.86914 95.1691L23.4034 91.4163H23.4127Z" fill="#BAC7CD"/>
<path d="M38.8144 138.229C38.8144 138.229 38.7586 138.154 38.6657 137.986C38.582 137.817 38.424 137.574 38.3589 137.218C38.1358 136.516 38.0429 135.449 38.0708 134.102C38.1266 131.406 38.6936 127.616 39.7533 123.199V123.246C39.7161 120.27 39.6789 116.994 39.6324 113.522L39.651 113.615C39.2699 112.736 38.8237 111.828 38.5077 110.855C38.1544 109.947 37.9406 109.011 37.6804 108.103C37.5038 107.177 37.2714 106.269 37.1877 105.352C36.9181 103.536 36.8903 101.767 36.9553 100.083C37.1319 96.7229 37.8477 93.7374 38.7308 91.3697C39.6231 88.9925 40.6642 87.205 41.4357 86.0165C41.8262 85.4269 42.1701 84.9963 42.3932 84.6969C42.6163 84.3974 42.7464 84.2476 42.7557 84.257C42.765 84.257 42.6628 84.4348 42.4582 84.7437C42.263 85.0619 41.9377 85.5017 41.5752 86.1007C40.8501 87.308 39.8648 89.0955 39.0096 91.4633C38.1637 93.831 37.4852 96.779 37.3364 100.092C37.29 101.749 37.3178 103.499 37.5874 105.286C37.6804 106.185 37.9035 107.083 38.0801 107.991C38.3403 108.889 38.5448 109.806 38.8981 110.705C39.2048 111.669 39.6417 112.567 40.0135 113.428L40.0321 113.475V113.513C40.06 116.985 40.0786 120.26 40.1065 123.236V123.264V123.292C39.0189 127.672 38.4054 131.444 38.2846 134.111C38.2288 135.44 38.2846 136.498 38.4705 137.19C38.5263 137.546 38.6564 137.789 38.7215 137.958C38.7958 138.126 38.8237 138.22 38.8144 138.229Z" fill="#263238"/>
<path d="M77.5119 109.788C77.5119 109.788 77.2703 109.984 76.7869 110.265C76.5452 110.415 76.2478 110.583 75.8852 110.742C75.5227 110.901 75.123 111.117 74.6489 111.276C73.7194 111.641 72.5668 111.959 71.2654 112.184C69.9547 112.38 68.5046 112.474 66.9802 112.371C65.4557 112.249 64.0242 111.95 62.76 111.566C61.5051 111.154 60.4082 110.686 59.5345 110.181C59.0883 109.956 58.7165 109.694 58.3818 109.479C58.0472 109.273 57.7776 109.058 57.5638 108.88C57.1269 108.534 56.8946 108.328 56.9131 108.3C56.9596 108.234 57.9171 109.02 59.6646 109.919C60.5384 110.377 61.626 110.808 62.8623 111.192C64.1079 111.547 65.5115 111.828 66.9987 111.95C68.486 112.043 69.9175 111.968 71.2003 111.8C72.4831 111.603 73.6171 111.323 74.5467 110.995C76.4058 110.359 77.4655 109.713 77.5027 109.788H77.5119Z" fill="#263238"/>
<path d="M111.068 85.4269C108.094 80.2234 102.647 75.0293 102.647 75.0293L93.8809 105.829L116.673 124.547L100.797 141.299L105.565 152.595C105.565 152.595 107.601 151.21 110.641 149.01C111.356 148.486 114.024 149.319 114.842 148.72C123.868 142.029 136.138 129.217 136.938 123.012C138.295 112.427 115.939 93.9621 111.068 85.4269Z" fill="#BAC7CD"/>
<path d="M129.593 124.191C129.547 124.247 128.933 123.723 127.781 123.171C126.637 122.609 124.918 122.076 122.975 122.151C121.032 122.226 119.359 122.899 118.262 123.555C117.156 124.2 116.58 124.771 116.533 124.715C116.515 124.696 116.635 124.537 116.896 124.275C117.156 124.013 117.556 123.667 118.104 123.302C119.192 122.572 120.921 121.814 122.956 121.739C124.983 121.655 126.777 122.272 127.911 122.909C128.487 123.227 128.915 123.545 129.194 123.779C129.472 124.013 129.612 124.172 129.593 124.191Z" fill="#263238"/>
<path d="M127.977 107.223C132.244 84.5658 117.455 62.713 94.9502 58.4267C72.4458 54.131 50.7408 69.0208 46.4835 91.6784C43.3974 108.084 50.304 124.06 62.8901 133.259C61.9791 138.117 60.938 143.61 60.938 143.61L96.6513 150.423C96.6513 150.423 97.9619 144.658 99.0123 139.483C113.42 135.169 124.984 123.115 127.977 107.223Z" fill="#FFE145"/>
<path d="M75.2907 146.118C77.596 132.698 80.8029 119.455 82.8479 105.988C83.2662 103.255 83.638 100.513 83.8333 97.7523C84.0935 93.962 83.8333 89.6851 80.5148 87.2518C77.2335 84.8466 73.5896 86.5686 71.5353 89.6476C69.5554 92.6237 68.6909 96.386 68.7467 99.9329C68.8489 107.158 72.8646 113.915 79.4272 116.994C85.869 120.017 93.6214 119.493 99.2824 115.038C104.599 110.855 108.318 103.031 106.384 96.2269C105.557 93.3163 103.437 90.3589 100.156 90.3121C96.8005 90.256 94.5881 93.2601 93.3611 96.049C91.9854 99.1749 91.1581 102.591 90.2936 105.885C89.2897 109.703 88.3973 113.541 87.5422 117.396C85.776 125.323 84.2051 133.288 82.4389 141.205C82.0485 142.955 81.6488 144.696 81.2305 146.437C80.9331 147.691 82.8479 148.224 83.1454 146.97C86.4825 133.063 88.8249 118.922 92.5617 105.108C93.3704 102.123 94.0955 98.9409 95.4991 96.1801C96.6796 93.8591 99.1243 91.0889 101.922 92.8483C104.423 94.4113 104.999 97.9769 104.841 100.682C104.655 103.976 103.428 107.149 101.541 109.825C97.7021 115.272 91.0651 117.902 84.5583 116.601C78.0329 115.3 72.8832 110.546 71.2658 104.013C70.4942 100.869 70.5593 97.5184 71.5167 94.43C72.3533 91.7159 74.5842 87.102 78.1444 88.2251C81.9834 89.4417 82.0857 94.2802 81.8812 97.5745C81.7232 100.008 81.4071 102.422 81.0539 104.837C79.2134 117.256 76.3783 129.507 74.073 141.841C73.8406 143.086 73.6175 144.34 73.3944 145.585C73.1806 146.839 75.0955 147.382 75.3093 146.118H75.2907Z" fill="white"/>
<path d="M66.9609 166.361C66.9609 166.361 68.2437 167.597 68.9037 168.888C69.2476 169.562 69.889 170.021 70.6327 170.161L77.8181 171.527C78.6268 171.677 79.4541 171.424 80.0304 170.844C80.709 170.152 81.8244 169.403 82.8469 169.384L66.9609 166.371V166.361Z" fill="#E0E0E0"/>
<path d="M62.9562 144.733C62.9283 144.883 62.4822 156.497 62.3055 160.943C62.2312 162.768 63.0306 164.555 64.5086 165.603C65.0477 165.987 65.6984 166.296 66.4699 166.446C69.5467 167.035 82.1886 169.431 82.1886 169.431C82.1886 169.431 86.2972 170.208 87.8403 167.11C89.467 163.844 93.873 150.611 93.873 150.611L62.9469 144.733H62.9562Z" fill="#E0E0E0"/>
<path d="M61.1142 159.649L61.0973 159.741C61.018 160.173 61.3015 160.588 61.7306 160.668L89.1427 165.774C89.5718 165.853 89.984 165.568 90.0634 165.136L90.0803 165.044C90.1596 164.612 89.8761 164.197 89.447 164.117L62.0349 159.012C61.6058 158.932 61.1936 159.217 61.1142 159.649Z" fill="#E0E0E0"/>
<path d="M89.1415 165.781C89.1415 165.781 89.3739 165.856 89.7178 165.631C89.8758 165.519 90.0246 165.304 90.0524 165.014C90.0896 164.733 89.9502 164.377 89.6063 164.228C88.119 163.928 85.9067 163.554 83.2017 163.058C77.7638 162.056 70.2902 160.681 62.0265 159.155C61.8127 159.118 61.5804 159.193 61.4316 159.352C61.3573 159.436 61.3015 159.53 61.2736 159.633C61.2457 159.745 61.2271 159.866 61.2364 159.969C61.255 160.185 61.3944 160.381 61.5897 160.484C61.7663 160.568 62.0637 160.587 62.2961 160.643C63.3 160.83 64.2946 161.018 65.2707 161.195C67.2227 161.56 69.1004 161.916 70.8944 162.253C74.4732 162.927 77.6894 163.544 80.4037 164.05C83.0994 164.574 85.2838 164.995 86.8083 165.285C87.5519 165.435 88.1283 165.547 88.5466 165.631C88.7325 165.669 88.8812 165.706 89.002 165.725C89.1043 165.753 89.1508 165.763 89.1508 165.772C89.1508 165.772 89.095 165.772 88.9928 165.753C88.8719 165.734 88.7232 165.716 88.5373 165.678C88.119 165.603 87.5334 165.51 86.7897 165.379C85.256 165.107 83.0622 164.714 80.3665 164.228C77.6523 163.732 74.4267 163.142 70.848 162.487C69.0539 162.159 67.1762 161.804 65.2242 161.448C64.2482 161.27 63.2535 161.083 62.2496 160.896L61.8685 160.821C61.7477 160.802 61.5989 160.774 61.4595 160.699C61.1899 160.559 60.9947 160.278 60.9669 159.979C60.9483 159.82 60.9761 159.679 61.0133 159.539C61.0505 159.389 61.1342 159.258 61.2364 159.146C61.4502 158.921 61.7756 158.818 62.073 158.874C70.3274 160.428 77.801 161.832 83.2388 162.852C85.9438 163.376 88.1283 163.769 89.6527 164.115C90.0338 164.293 90.1919 164.705 90.1361 165.004C90.1082 165.313 89.9316 165.547 89.755 165.66C89.3832 165.875 89.1415 165.753 89.1508 165.763L89.1415 165.781Z" fill="#263238"/>
<path d="M61.1933 155.985L61.1764 156.077C61.097 156.509 61.3805 156.924 61.8096 157.004L90.3826 162.325C90.8117 162.405 91.2239 162.12 91.3033 161.688L91.3202 161.596C91.3995 161.164 91.116 160.749 90.6869 160.669L62.114 155.347C61.6849 155.267 61.2727 155.553 61.1933 155.985Z" fill="#E0E0E0"/>
<path d="M90.3877 162.328C90.3877 162.328 90.6387 162.403 90.9826 162.169C91.1499 162.047 91.2894 161.813 91.2986 161.514C91.3265 161.224 91.1313 160.859 90.7688 160.747C89.1793 160.456 86.9019 160.045 84.1039 159.539C78.4616 158.5 70.6905 157.069 62.1015 155.487C61.8784 155.44 61.6367 155.524 61.488 155.702C61.4136 155.786 61.3579 155.889 61.3393 156.002C61.3114 156.133 61.3021 156.236 61.3207 156.348C61.3579 156.572 61.5252 156.76 61.7297 156.844C61.9435 156.909 62.2409 156.947 62.4919 156.994C63.533 157.19 64.5648 157.377 65.578 157.574C67.6044 157.958 69.5565 158.323 71.4156 158.669C75.1338 159.371 78.4802 160.007 81.2967 160.541C84.0946 161.083 86.3627 161.514 87.9523 161.823C88.7238 161.982 89.328 162.104 89.7556 162.188C89.9508 162.225 90.1088 162.263 90.2204 162.291C90.3226 162.319 90.3784 162.328 90.3784 162.338C90.3784 162.338 90.3226 162.337 90.2111 162.319C90.0902 162.3 89.9322 162.272 89.737 162.244C89.3001 162.169 88.6959 162.066 87.9244 161.935C86.3349 161.645 84.0575 161.243 81.2502 160.737C78.4244 160.222 75.078 159.605 71.3598 158.922C69.5007 158.575 67.5487 158.22 65.5223 157.845C64.509 157.658 63.4773 157.462 62.4362 157.274C62.1666 157.218 61.9342 157.2 61.6274 157.106C61.33 156.994 61.1069 156.722 61.0511 156.413C61.0139 156.264 61.0418 156.086 61.0697 155.955C61.1069 155.796 61.172 155.655 61.2835 155.534C61.488 155.29 61.8319 155.178 62.148 155.234C70.7277 156.844 78.4895 158.304 84.1318 159.371C86.9484 159.914 89.2165 160.335 90.7967 160.662C91.215 160.793 91.4195 161.214 91.3823 161.533C91.3637 161.851 91.2057 162.113 91.0198 162.225C90.6387 162.469 90.3784 162.337 90.397 162.347L90.3877 162.328Z" fill="#263238"/>
<path d="M91.4181 158.837L62.1095 153.381C61.6819 153.297 61.3937 152.885 61.4774 152.454L61.496 152.37C61.5796 151.94 61.9886 151.65 62.4162 151.734L91.7249 157.19C92.1525 157.274 92.4406 157.686 92.357 158.116L92.3384 158.201C92.2547 158.631 91.8457 158.921 91.4181 158.837Z" fill="#E0E0E0"/>
<path d="M91.418 158.837C91.418 158.837 91.6783 158.921 92.0222 158.669C92.1896 158.547 92.3197 158.304 92.329 157.985C92.3476 157.686 92.1245 157.321 91.7434 157.237C90.1167 156.947 87.7835 156.525 84.9112 156.011C79.1294 154.944 71.1725 153.474 62.3882 151.855C62.1558 151.809 61.9142 151.902 61.7654 152.08C61.6911 152.164 61.6446 152.277 61.6167 152.389C61.5888 152.529 61.5795 152.632 61.6167 152.744C61.6725 152.969 61.8491 153.156 62.0629 153.222C62.3046 153.278 62.5927 153.325 62.853 153.371C63.922 153.568 64.9817 153.765 66.0135 153.961C68.0864 154.354 70.0849 154.729 71.9905 155.084C75.7923 155.805 79.2224 156.451 82.104 157.003C84.967 157.555 87.2908 158.004 88.9176 158.313C89.7077 158.472 90.3305 158.594 90.7674 158.687C90.9626 158.734 91.1206 158.762 91.2507 158.79C91.3623 158.818 91.418 158.828 91.4088 158.837C91.4088 158.837 91.353 158.837 91.2414 158.818C91.1206 158.8 90.9533 158.771 90.7581 158.743C90.3119 158.669 89.6891 158.556 88.899 158.425C87.2723 158.135 84.9391 157.714 82.0668 157.199C79.1759 156.666 75.7458 156.039 71.944 155.346C70.0384 154.991 68.0399 154.626 65.967 154.242C64.9259 154.045 63.8755 153.858 62.8065 153.652C62.537 153.596 62.286 153.559 61.9885 153.493C61.6818 153.4 61.4308 153.138 61.3564 152.819C61.31 152.67 61.3285 152.482 61.3564 152.351C61.3843 152.192 61.4587 152.033 61.5609 151.912C61.7654 151.659 62.1187 151.537 62.444 151.593C71.2282 153.24 79.1759 154.738 84.9484 155.823C87.8114 156.376 90.1353 156.825 91.7713 157.143C92.2082 157.246 92.4406 157.667 92.4127 157.995C92.4034 158.322 92.2453 158.594 92.0594 158.715C91.669 158.968 91.4087 158.828 91.418 158.846V158.837Z" fill="#263238"/>
<path d="M61.5683 148.684L61.5514 148.776C61.472 149.208 61.7555 149.623 62.1846 149.703L92.6862 155.383C93.1153 155.463 93.5275 155.178 93.6069 154.746L93.6238 154.654C93.7032 154.222 93.4197 153.807 92.9906 153.727L62.489 148.046C62.0599 147.966 61.6477 148.252 61.5683 148.684Z" fill="#E0E0E0"/>
<path d="M92.6823 155.384C92.6823 155.384 92.9519 155.468 93.3051 155.196C93.4817 155.065 93.6026 154.794 93.5933 154.476C93.5933 154.167 93.333 153.802 92.9147 153.765C91.2229 153.456 88.8061 153.025 85.8316 152.492C79.836 151.387 71.5816 149.862 62.472 148.177C62.2303 148.131 61.9793 148.234 61.8306 148.421C61.6912 148.608 61.6354 148.898 61.7098 149.123C61.7841 149.357 61.9886 149.525 62.221 149.572C62.4999 149.628 62.7787 149.675 63.0576 149.731C64.1638 149.937 65.2606 150.143 66.3389 150.339C68.4862 150.742 70.5591 151.135 72.539 151.5C76.4896 152.248 80.0405 152.922 83.0336 153.484C86.0082 154.055 88.4157 154.523 90.1075 154.841C90.9255 155.009 91.5669 155.131 92.0316 155.225C92.2361 155.271 92.4035 155.309 92.5336 155.328C92.6452 155.356 92.7009 155.365 92.7009 155.374C92.7009 155.374 92.6451 155.374 92.5243 155.356C92.3942 155.337 92.2269 155.309 92.0224 155.271C91.5669 155.196 90.9162 155.084 90.0889 154.934C88.3971 154.626 85.9803 154.195 83.0057 153.662C80.0126 153.109 76.4524 152.464 72.5018 151.734C70.5219 151.369 68.449 150.985 66.3017 150.583C65.2235 150.386 64.1359 150.18 63.0204 149.974C62.7416 149.918 62.4627 149.871 62.1838 149.815C61.8585 149.759 61.5703 149.506 61.4681 149.188C61.4123 149.029 61.4123 148.851 61.4402 148.692C61.4588 148.542 61.5239 148.365 61.6261 148.234C61.8306 147.962 62.1931 147.822 62.5278 147.887C71.6373 149.6 79.8824 151.153 85.878 152.277C88.8526 152.847 91.2601 153.315 92.9519 153.634C93.4074 153.69 93.6955 154.102 93.6955 154.448C93.6955 154.794 93.5561 155.075 93.3609 155.215C93.175 155.356 92.9891 155.384 92.8775 155.384C92.7567 155.384 92.7009 155.356 92.7009 155.356L92.6823 155.384Z" fill="#263238"/>
<path d="M60.8271 134.223C60.7714 134.514 60.1207 141.561 59.7953 145.183C59.6745 146.511 60.1672 147.822 61.1246 148.739L62.5282 150.086L92.9245 155.861L94.6999 155.131C95.9362 154.616 96.875 153.559 97.2376 152.258L99.9797 141.448L60.8364 134.223H60.8271Z" fill="#B0B0B0"/>
<g opacity="0.3">
<path d="M62.7598 160.793C65.567 162.019 68.4672 162.627 71.6834 163.226C74.2769 163.704 76.8145 164.265 79.6404 164.742C81.7133 165.089 83.6281 165.351 85.7103 165.65C86.7607 165.8 87.9505 165.753 88.2015 165.585L62.7598 160.802V160.793Z" fill="black"/>
</g>
<g opacity="0.3">
<path d="M62.3438 157.021C65.374 158.285 68.5067 158.94 71.9832 159.586C74.7811 160.11 77.5139 160.699 80.5628 161.214C82.7937 161.598 84.8667 161.879 87.0976 162.206C88.2317 162.375 89.5051 162.337 89.7746 162.178L62.353 157.021H62.3438Z" fill="black"/>
</g>
<g opacity="0.3">
<path d="M63.0117 153.484C66.042 154.747 69.1839 155.402 72.6511 156.048C75.4491 156.572 78.182 157.162 81.2309 157.677C83.4618 158.06 85.5347 158.341 87.7656 158.669C88.8997 158.837 90.1731 158.809 90.4427 158.641L63.021 153.484H63.0117Z" fill="black"/>
</g>
<g opacity="0.3">
<path d="M63.6719 149.946C66.7022 151.21 69.8441 151.865 73.3113 152.511C76.1092 153.035 78.8421 153.624 81.891 154.139C84.1219 154.523 86.1948 154.803 88.4258 155.131C89.5598 155.299 90.8333 155.271 91.1029 155.103L63.6812 149.946H63.6719Z" fill="black"/>
</g>
<path d="M96.2159 153.587C96.2066 153.662 88.0638 152.173 78.034 150.274C68.0041 148.364 59.8799 146.764 59.8985 146.689C59.9078 146.614 68.0506 148.102 78.0804 150.002C88.1103 151.911 96.2252 153.512 96.2159 153.587Z" fill="#263238"/>
<path d="M99.9702 141.448C99.9609 141.533 91.1116 139.951 80.2079 137.93C69.3043 135.908 60.4736 134.195 60.4922 134.111C60.5108 134.027 69.3508 135.609 80.2544 137.63C91.158 139.652 99.9795 141.364 99.9702 141.448Z" fill="#263238"/>
<g opacity="0.3">
<path d="M85.4697 63.0218C84.4286 61.3185 81.798 59.5872 75.3841 62.2357C63.5789 66.8215 54.0138 76.8915 49.9796 88.9737C49.3846 90.7612 48.9013 92.633 49.0779 94.5047C49.2638 96.3765 50.2212 98.267 51.8944 99.1092C54.5808 100.476 57.9365 98.6226 59.5446 96.0489C61.1527 93.4846 61.5803 90.3775 62.5378 87.495C64.9453 80.1952 71.0245 74.2243 78.3308 71.9782C80.8034 71.2201 83.6199 70.7241 85.1909 68.6558C86.3993 67.0648 86.5201 64.7251 85.479 63.0218H85.4697Z" fill="white"/>
</g>
<g opacity="0.3">
<path d="M103.948 127.962C105.082 129.067 107.461 129.871 111.877 126.54C120.066 120.644 125.448 110.967 126.164 100.85C126.266 99.3525 126.275 97.8177 125.764 96.4138C125.253 95.01 124.137 93.7466 122.687 93.4284C120.345 92.9137 118.123 95.0194 117.398 97.3123C116.664 99.6146 116.943 102.095 116.785 104.5C116.366 110.611 112.871 116.423 107.684 119.624C105.928 120.7 103.864 121.654 103.055 123.554C102.442 125.024 102.814 126.849 103.948 127.953V127.962Z" fill="white"/>
</g>
<path d="M100.09 142.749C100.09 142.749 95.3865 140.615 93.8807 140.41C92.3748 140.204 87.4668 140.353 85.5426 139.492C85.5426 139.492 84.2134 140.625 85.7471 141.664C87.2902 142.702 89.865 143.563 91.1385 143.676C92.412 143.779 92.2168 144.733 91.4174 145.22C90.6179 145.707 84.706 148.046 84.706 148.046C84.706 148.046 77.6136 149.693 77.1767 150.545C76.7398 151.397 77.4276 152.277 78.0597 152.361C78.5059 152.417 84.7153 151.547 84.7153 151.547L87.7828 150.508C87.7828 150.508 78.3851 154.373 77.9947 155.318C77.6043 156.263 78.2085 156.731 78.7755 156.918C79.3425 157.115 83.4697 155.365 83.4697 155.365L89.1864 153.4L79.1473 158.715C79.1473 158.715 78.2642 159.342 78.6361 160.1C79.0079 160.868 80.365 160.765 80.365 160.765L91.2036 156.188C91.2036 156.188 85.3102 158.987 85.2266 159.53C85.1057 160.269 85.4961 160.662 86.026 160.596C87.1043 160.456 92.5049 158.126 92.5049 158.126L102.525 153.222L105.147 152.117L101.168 142.113L100.09 142.731V142.749Z" fill="#F5C9BA"/>
<path d="M14.8792 72.8113C14.8792 72.8113 16.0783 69.2268 17.4633 69.2362C18.8484 69.2362 20.4844 70.1066 21.0886 71.0612C21.7578 72.1093 20.977 72.9329 20.4658 72.9984C19.9638 73.0733 18.4487 72.2404 18.4487 72.2404L17.6121 75.3756L19.0157 78.23L20.4193 77.8837L21.2652 76.77L20.6238 75.0106C20.3914 74.5613 20.6517 73.4944 21.1258 73.3353C21.5812 73.1856 22.5573 73.8781 23.0964 74.7579C24.1747 76.5173 25.2158 79.6432 23.6727 81.7114C22.1297 83.7891 19.0157 86.8307 19.0157 86.8307L20.5587 92.2026L11.57 94.6921L10.2407 87.9818L5.96481 78.2206C5.96481 78.2206 1.76325 75.4598 1.23341 74.0653C0.703564 72.6802 -0.0214844 69.2549 -0.0214844 69.2549C-0.0214844 69.2549 0.842996 68.2535 1.69818 69.3391C2.55337 70.4248 3.48291 72.9048 3.48291 72.9048L6.95943 75.0667L3.53869 64.0514C3.53869 64.0514 5.02597 62.5447 6.34593 65.2026C7.66589 67.8605 9.52498 73.3915 9.87821 73.3166C10.2314 73.2418 11.2725 73.0078 10.8078 71.5946C10.343 70.1814 8.28868 61.6275 8.28868 61.6275C8.28868 61.6275 10.5103 60.804 11.3655 63.6303C12.0627 65.9419 13.4105 71.0518 13.5685 71.5946C13.7265 72.1374 14.8606 72.7925 14.8606 72.7925L14.8792 72.8113Z" fill="#F5C9BA"/>
<path d="M14.7582 83.9857C14.8233 83.9857 14.8698 83.602 15.065 83.0218C15.2509 82.4415 15.632 81.6741 16.2455 80.9722C16.859 80.2797 17.5748 79.8117 18.1325 79.559C18.6809 79.297 19.062 79.2128 19.0527 79.1379C19.0527 79.0911 18.6437 79.0724 18.0209 79.2783C17.4074 79.4748 16.5987 79.9334 15.9295 80.6914C15.2695 81.4401 14.907 82.3012 14.7768 82.9375C14.6467 83.5833 14.7117 83.9857 14.7582 83.9857Z" fill="#6F4439"/>
</g>
</g>
<defs>
<clipPath id="clip0_595_1026">
<rect width="137" height="182" fill="white"/>
</clipPath>
</defs>
</svg>
