<svg width="75" height="52" viewBox="0 0 75 52" fill="none" xmlns="http://www.w3.org/2000/svg">
<path d="M42.8333 6.66699H50.8333M46.8333 2.66699V10.667M49.5 15.3337V25.3337C49.5 26.0409 49.219 26.7192 48.719 27.2193C48.2189 27.7194 47.5406 28.0003 46.8333 28.0003H28.1667C27.4594 28.0003 26.7811 27.7194 26.281 27.2193C25.781 26.7192 25.5 26.0409 25.5 25.3337V6.66699C25.5 5.95975 25.781 5.28147 26.281 4.78137C26.7811 4.28128 27.4594 4.00033 28.1667 4.00033H38.1667M49.5 20.0003L45.3853 15.8857C44.8853 15.3857 44.2071 15.1049 43.5 15.1049C42.7929 15.1049 42.1147 15.3857 41.6147 15.8857L29.5 28.0003M36.1667 12.0003C36.1667 13.4731 34.9728 14.667 33.5 14.667C32.0272 14.667 30.8333 13.4731 30.8333 12.0003C30.8333 10.5276 32.0272 9.33366 33.5 9.33366C34.9728 9.33366 36.1667 10.5276 36.1667 12.0003Z" stroke="#9CA3AF" stroke-width="2" stroke-linecap="round" stroke-linejoin="round"/>
<path d="M0.912 45.796V40.228H2.448V45.7C2.448 46.96 3.132 47.656 4.38 47.656C5.628 47.656 6.324 46.948 6.324 45.7V40.228H7.86V45.796C7.86 47.848 6.516 49.144 4.38 49.144C2.256 49.144 0.912 47.86 0.912 45.796ZM9.17334 51.748V43.072H10.5293L10.6253 43.972C10.9853 43.288 11.7653 42.892 12.6653 42.892C14.3333 42.892 15.4373 44.104 15.4373 45.964C15.4373 47.812 14.4293 49.156 12.6653 49.156C11.7773 49.156 11.0093 48.808 10.6373 48.208V51.748H9.17334ZM10.6493 46.036C10.6493 47.104 11.3093 47.836 12.3173 47.836C13.3493 47.836 13.9613 47.092 13.9613 46.036C13.9613 44.98 13.3493 44.224 12.3173 44.224C11.3093 44.224 10.6493 44.968 10.6493 46.036ZM17.719 49H16.267V40.072H17.719V49ZM18.5468 46.024C18.5468 44.176 19.8788 42.904 21.7148 42.904C23.5508 42.904 24.8828 44.176 24.8828 46.024C24.8828 47.872 23.5508 49.144 21.7148 49.144C19.8788 49.144 18.5468 47.872 18.5468 46.024ZM20.0108 46.024C20.0108 47.104 20.7068 47.836 21.7148 47.836C22.7228 47.836 23.4188 47.104 23.4188 46.024C23.4188 44.944 22.7228 44.212 21.7148 44.212C20.7068 44.212 20.0108 44.944 20.0108 46.024ZM27.4472 49.156C26.1872 49.156 25.4192 48.424 25.4192 47.308C25.4192 46.216 26.2112 45.532 27.6152 45.424L29.3912 45.292V45.16C29.3912 44.356 28.9112 44.032 28.1672 44.032C27.3032 44.032 26.8232 44.392 26.8232 45.016H25.5752C25.5752 43.732 26.6312 42.892 28.2392 42.892C29.8352 42.892 30.8192 43.756 30.8192 45.4V49H29.5352L29.4272 48.124C29.1752 48.736 28.3712 49.156 27.4472 49.156ZM27.9272 48.052C28.8272 48.052 29.4032 47.512 29.4032 46.6V46.288L28.1672 46.384C27.2552 46.468 26.9072 46.768 26.9072 47.248C26.9072 47.788 27.2672 48.052 27.9272 48.052ZM34.3334 49.156C32.6174 49.156 31.5494 47.896 31.5494 46.06C31.5494 44.212 32.6294 42.892 34.4174 42.892C35.2454 42.892 35.9774 43.24 36.3494 43.828V40.072H37.8014V49H36.4574L36.3614 48.076C36.0014 48.76 35.2334 49.156 34.3334 49.156ZM34.6574 47.812C35.6774 47.812 36.3374 47.08 36.3374 46.012C36.3374 44.944 35.6774 44.2 34.6574 44.2C33.6374 44.2 33.0134 44.956 33.0134 46.012C33.0134 47.068 33.6374 47.812 34.6574 47.812ZM43.5935 40.228V49H42.0575V40.228H43.5935ZM46.4259 49H44.9619V43.072H46.3059L46.4259 43.768C46.7259 43.276 47.3259 42.892 48.1779 42.892C49.0779 42.892 49.7019 43.336 50.0139 44.02C50.3139 43.336 51.0099 42.892 51.9099 42.892C53.3499 42.892 54.1419 43.756 54.1419 45.124V49H52.6899V45.508C52.6899 44.656 52.2339 44.212 51.5379 44.212C50.8299 44.212 50.2899 44.668 50.2899 45.64V49H48.8259V45.496C48.8259 44.668 48.3819 44.224 47.6859 44.224C46.9899 44.224 46.4259 44.68 46.4259 45.64V49ZM56.9831 49.156C55.7231 49.156 54.9551 48.424 54.9551 47.308C54.9551 46.216 55.7471 45.532 57.1511 45.424L58.9271 45.292V45.16C58.9271 44.356 58.4471 44.032 57.7031 44.032C56.8391 44.032 56.3591 44.392 56.3591 45.016H55.1111C55.1111 43.732 56.1671 42.892 57.7751 42.892C59.3711 42.892 60.3551 43.756 60.3551 45.4V49H59.0711L58.9631 48.124C58.7111 48.736 57.9071 49.156 56.9831 49.156ZM57.4631 48.052C58.3631 48.052 58.9391 47.512 58.9391 46.6V46.288L57.7031 46.384C56.7911 46.468 56.4431 46.768 56.4431 47.248C56.4431 47.788 56.8031 48.052 57.4631 48.052ZM61.0973 45.904C61.0973 44.176 62.2253 42.88 63.9173 42.88C64.8053 42.88 65.5013 43.252 65.8493 43.888L65.9333 43.072H67.2893V48.7C67.2893 50.68 66.1013 51.916 64.1813 51.916C62.4773 51.916 61.3133 50.944 61.1333 49.36H62.5973C62.6933 50.128 63.2813 50.584 64.1813 50.584C65.1893 50.584 65.8373 49.948 65.8373 48.964V47.98C65.4653 48.532 64.7333 48.88 63.8813 48.88C62.2013 48.88 61.0973 47.62 61.0973 45.904ZM62.5733 45.868C62.5733 46.864 63.2093 47.608 64.1693 47.608C65.1773 47.608 65.8013 46.9 65.8013 45.868C65.8013 44.86 65.1893 44.164 64.1693 44.164C63.1973 44.164 62.5733 44.896 62.5733 45.868ZM71.0964 49.156C69.3324 49.156 68.0964 47.872 68.0964 46.036C68.0964 44.176 69.3084 42.892 71.0484 42.892C72.8244 42.892 73.9524 44.08 73.9524 45.928V46.372L69.4884 46.384C69.5964 47.428 70.1484 47.956 71.1204 47.956C71.9244 47.956 72.4524 47.644 72.6204 47.08H73.9764C73.7244 48.376 72.6444 49.156 71.0964 49.156ZM71.0604 44.092C70.1964 44.092 69.6684 44.56 69.5244 45.448H72.5004C72.5004 44.632 71.9364 44.092 71.0604 44.092Z" fill="#9CA3AF"/>
</svg>
