<svg width="48" height="48" viewBox="0 0 48 48" fill="none" xmlns="http://www.w3.org/2000/svg">
<g clip-path="url(#clip0_750_1618)">
<path d="M24.248 7.58076C24.248 7.58076 28.1163 -0.433425 37.3551 0.500814C37.7672 0.546651 38.1408 0.764565 38.3835 1.10077C39.3991 2.45388 39.9204 4.114 39.8607 5.80482C39.6861 8.89243 28.2855 11.2708 28.2855 11.2708L25.8693 10.7909L24.248 7.58076Z" fill="#F6C863"/>
<path d="M33.8874 8.81138C31.529 9.69291 29.0324 10.1466 26.5146 10.1512C29.8775 7.11144 34.1597 5.28247 38.6808 4.95463C39.2136 4.91083 39.4128 5.52045 39.0462 5.9098C38.2201 6.78457 36.12 7.95937 33.8874 8.81138Z" fill="#EAB54E"/>
<path d="M24.2471 7.58076C24.2471 7.58076 20.3789 -0.433425 11.1401 0.500814C10.728 0.546651 10.3544 0.764565 10.1117 1.10077C9.09608 2.45388 8.57481 4.114 8.63449 5.80482C8.80915 8.89243 20.2097 11.2708 20.2097 11.2708L22.6259 10.7909L24.2471 7.58076Z" fill="#F6C863"/>
<path d="M14.6074 8.81138C16.9658 9.69291 19.4625 10.1466 21.9802 10.1512C20.0995 8.47807 17.9361 7.15266 15.5915 6.23678C13.7343 5.54407 11.7899 5.11264 9.81407 4.95463C9.2813 4.91083 9.08207 5.52045 9.44866 5.9098C10.2719 6.78457 12.3778 7.95937 14.6074 8.81138Z" fill="#EAB54E"/>
<path d="M24.0018 13.1549C25.603 13.1549 26.901 11.8569 26.901 10.2557C26.901 8.65447 25.603 7.35645 24.0018 7.35645C22.4006 7.35645 21.1025 8.65447 21.1025 10.2557C21.1025 11.8569 22.4006 13.1549 24.0018 13.1549Z" fill="#EAB54E"/>
<path d="M0.594594 10.2549H47.4053C47.7337 10.2549 47.9999 10.5211 47.9999 10.8495V18.581C47.9999 18.9094 47.7337 19.1756 47.4053 19.1756H0.594594C0.26622 19.1756 0 18.9094 0 18.581V10.8495C0 10.5211 0.26622 10.2549 0.594594 10.2549Z" fill="#EF5261"/>
<path d="M45.6347 17.5403V46.9805C45.6337 47.3084 45.3681 47.5741 45.0401 47.575H2.96276C2.63481 47.5741 2.36913 47.3084 2.36816 46.9805V17.5403H45.6347Z" fill="#EF5261"/>
<path d="M2.36816 19.1758H45.6354V21.2571H2.36816V19.1758Z" fill="#DA364C"/>
<path d="M20.5215 10.2549H27.4821V47.5742H20.5215V10.2549Z" fill="#F6C863"/>
<path d="M20.5195 19.1758H27.4838V21.2571H20.5195V19.1758Z" fill="#EAB54E"/>
</g>
<defs>
<clipPath id="clip0_750_1618">
<rect width="48" height="48" fill="white"/>
</clipPath>
</defs>
</svg>
