<svg width="48" height="48" viewBox="0 0 48 48" fill="none" xmlns="http://www.w3.org/2000/svg">
<g clip-path="url(#clip0_750_1578)">
<path d="M28.9648 29.7932H39.7235C40.6376 29.7932 41.3786 30.5343 41.3786 31.4484V44.6898H28.9648V29.7932Z" fill="#2783EC"/>
<path d="M6.62012 44.6898V35.5863C6.62012 34.6722 7.36116 33.9312 8.27529 33.9312H19.0339V44.6898H6.62012Z" fill="#EC3A48"/>
<path d="M21.5166 16.9985H26.4821V23.1723H21.5166V16.9985Z" fill="#F28F02"/>
<path d="M21.5165 22.3447H26.482C27.3961 22.3447 28.1372 23.0858 28.1372 23.9999V26.4827H19.8613V23.9999C19.8613 23.0858 20.6024 22.3447 21.5165 22.3447Z" fill="#FAA116"/>
<path d="M32.2751 2.48267H35.5854C36.4984 2.48539 37.2378 3.22484 37.2406 4.13784V8.27577C37.2406 10.104 35.7585 11.5861 33.9302 11.5861H14.0682C12.2399 11.5861 10.7578 10.104 10.7578 8.27577V4.13784C10.7605 3.22484 11.5 2.48539 12.413 2.48267H32.2751Z" fill="#F28F02"/>
<path d="M47.1721 48H0.827232C0.553679 48.0025 0.296836 47.8687 0.142114 47.6431C-0.0126071 47.4174 -0.0449198 47.1296 0.0559217 46.8753L1.05647 44.3802C1.18379 44.0644 1.49148 43.8588 1.83192 43.8621H46.1674C46.5066 43.8602 46.8126 44.0655 46.9395 44.3802L47.9401 46.8753C48.0407 47.1291 48.0087 47.4162 47.8548 47.6417C47.7009 47.8671 47.445 48.0014 47.1721 48Z" fill="#79808F"/>
<path d="M18.207 43.8622V27.3104C18.207 26.3963 18.9481 25.6553 19.8622 25.6553H28.1381C29.0522 25.6553 29.7932 26.3963 29.7932 27.3104V43.8622" fill="#FCC10A"/>
<path d="M16.5512 0H31.4478C31.9048 0 32.2754 0.370523 32.2754 0.827586V9.93103C32.2754 12.1259 31.4034 14.2309 29.8514 15.783C28.2994 17.335 26.1944 18.2069 23.9995 18.2069C19.4289 18.2069 15.7236 14.5017 15.7236 9.93103V0.827586C15.7236 0.370523 16.0942 0 16.5512 0Z" fill="#FAA116"/>
<path d="M24.6616 3.7416L25.538 5.59208L27.4978 5.88835C27.7827 5.94067 28.0153 6.14638 28.1021 6.42279C28.1888 6.6992 28.1155 7.00093 27.9116 7.2067L26.4939 8.64753L26.8249 10.6809C26.8821 10.963 26.7726 11.2528 26.5432 11.4266C26.3138 11.6004 26.0051 11.6274 25.7491 11.4961L24.3422 10.7248C24.1273 10.6064 23.8668 10.6064 23.652 10.7248L22.2451 11.4961C21.989 11.6274 21.6803 11.6004 21.4509 11.4266C21.2216 11.2528 21.1121 10.963 21.1692 10.6809L21.5002 8.64753L20.0867 7.2067C19.8828 7.00093 19.8095 6.6992 19.8962 6.42279C19.983 6.14638 20.2156 5.94067 20.5005 5.88835L22.4602 5.59208L23.3375 3.7416C23.4566 3.4833 23.7151 3.31787 23.9996 3.31787C24.284 3.31787 24.5425 3.4833 24.6616 3.7416Z" fill="#FCC10A"/>
</g>
<defs>
<clipPath id="clip0_750_1578">
<rect width="48" height="48" fill="white"/>
</clipPath>
</defs>
</svg>
