<svg width="48" height="48" viewBox="0 0 48 48" fill="none" xmlns="http://www.w3.org/2000/svg">
<g clip-path="url(#clip0_750_1542)">
<path d="M24 48C37.2548 48 48 37.2548 48 24C48 10.7452 37.2548 0 24 0C10.7452 0 0 10.7452 0 24C0 37.2548 10.7452 48 24 48Z" fill="#54C0EB"/>
<path d="M24 42C14.1 42 6 33.9 6 24C6 14.1 14.1 6 24 6C33.9 6 42 14.1 42 24C42 33.9 33.9 42 24 42Z" fill="#F2F2F2"/>
<path d="M24 36C17.4 36 12 30.6 12 24C12 17.4 17.4 12 24 12C30.6 12 36 17.4 36 24C36 30.6 30.6 36 24 36Z" fill="#FF7058"/>
<path d="M24 30C20.7 30 18 27.3 18 24C18 20.7 20.7 18 24 18C27.3 18 30 20.7 30 24C30 27.3 27.3 30 24 30Z" fill="#CDD6E0"/>
<path d="M24 30C20.7 30 18 27.3 18 24C18 20.7 20.7 18 24 18C27.3 18 30 20.7 30 24C30 27.3 27.3 30 24 30Z" fill="#FFD15C"/>
<path opacity="0.2" d="M47.8002 27C47.4002 30 46.5002 32.8001 45.1002 35.4L43.8002 34.9001L42.1002 31.3001L24.1002 24.8001C23.3002 24.5001 22.9002 23.6001 23.2002 22.8001C23.5002 22.0002 24.4002 21.6001 25.2002 21.9001L43.2002 28.4001L46.8002 26.7001L47.8002 27Z" fill="#334A5E"/>
<path d="M40.3998 9.70002L25.6998 24.4C25.0998 25 24.0998 25 23.4998 24.4C22.8998 23.8 22.8998 22.8 23.4998 22.2L38.2998 7.60002C38.8998 7.00002 39.8999 7.00002 40.4999 7.60002C40.9998 8.20002 40.9998 9.10002 40.3998 9.70002Z" fill="#40596B"/>
<path d="M41.7997 6.19997L37.0996 10.9V4.69997L41.7997 0V6.19997Z" fill="#FF7058"/>
<path d="M43.2997 10.9L47.9996 6.19995H41.7997L37.0996 10.9H43.2997Z" fill="#F1543F"/>
</g>
<defs>
<clipPath id="clip0_750_1542">
<rect width="48" height="48" fill="white"/>
</clipPath>
</defs>
</svg>
