<svg width="174" height="137" viewBox="0 0 174 137" fill="none" xmlns="http://www.w3.org/2000/svg">
<path d="M12.048 136.556C11.4552 137.135 10.5056 137.124 9.92679 136.531L0.495163 126.872C-0.0836182 126.279 -0.0723114 125.33 0.520416 124.751C1.11313 124.172 2.06281 124.184 2.64159 124.776L11.0253 133.362L19.6109 124.978C20.2037 124.399 21.1533 124.411 21.7321 125.003C22.3109 125.596 22.2996 126.546 21.7069 127.125L12.048 136.556ZM172.645 7.94041C146.193 1.49287 106.489 0.185398 73.279 17.0456C40.2187 33.8297 13.2943 68.7699 12.4999 135.501L9.50011 135.465C10.3057 67.7963 37.7147 31.7365 71.921 14.3706C105.977 -2.91925 146.473 -1.52672 173.355 5.02574L172.645 7.94041Z" fill="#666666"/>
</svg>
