<svg width="174" height="137" viewBox="0 0 174 137" fill="none" xmlns="http://www.w3.org/2000/svg">
<path d="M161.952 136.556C162.545 137.135 163.494 137.124 164.073 136.531L173.505 126.872C174.084 126.279 174.072 125.33 173.48 124.751C172.887 124.172 171.937 124.184 171.358 124.776L162.975 133.362L154.389 124.978C153.796 124.399 152.847 124.411 152.268 125.003C151.689 125.596 151.7 126.546 152.293 127.125L161.952 136.556ZM1.35522 7.94041C27.8066 1.49287 67.5108 0.185398 100.721 17.0456C133.781 33.8297 160.706 68.7699 161.5 135.501L164.5 135.465C163.694 67.7963 136.285 31.7365 102.079 14.3706C68.0226 -2.91925 27.5267 -1.52672 0.644775 5.02574L1.35522 7.94041Z" fill="#666666"/>
</svg>
