<svg width="100" height="100" viewBox="0 0 100 100" fill="none" xmlns="http://www.w3.org/2000/svg">
<path d="M90.5312 34.5H30.9063C27.4063 34.5 24.5625 37.3437 24.5625 40.8437V87.5C24.5625 90.625 27.125 93.1875 30.25 93.1875H91.1875C94.3125 93.1875 96.875 90.625 96.875 87.5V40.8437C96.875 37.3437 94.0312 34.5 90.5312 34.5ZM67.125 76.4375H54.3125C53.9687 75.0937 52.75 74.0937 51.2812 74.0937H30.8125L30.9063 40.75L90.625 40.8437V74.0937H70.1562C68.6875 74.0937 67.4688 75.0937 67.125 76.4375ZM19.875 61.125C19.625 60.6875 19.4688 60.2188 19.4688 59.6875C19.4688 59.1562 19.625 58.6875 19.875 58.25V40.875C19.875 34.7812 24.8125 29.8438 30.9063 29.8438H45.9375V10.5C45.9375 6.90625 43 3.96875 39.4062 3.96875H9.65625C6.0625 3.96875 3.125 6.90625 3.125 10.5V64.75C3.125 68.3438 6.0625 71.2812 9.65625 71.2812H19.875V61.125Z" fill="url(#paint0_linear_51_341)"/>
<defs>
<linearGradient id="paint0_linear_51_341" x1="3.125" y1="48.5625" x2="96.875" y2="48.5625" gradientUnits="userSpaceOnUse">
<stop stop-color="#4FACFE"/>
<stop offset="1" stop-color="#00F2FE"/>
</linearGradient>
</defs>
</svg>
