<svg width="100" height="100" viewBox="0 0 100 100" fill="none" xmlns="http://www.w3.org/2000/svg">
<g clip-path="url(#clip0_51_309)">
<path d="M58.5937 76.1719C58.5937 69.4334 62.5193 63.2225 68.6135 60.2928C69.6682 59.824 70.3125 58.7693 70.3125 57.6561V20.5078L52.7344 17.5781L49.8047 0H2.92969C1.28887 0 0 1.28887 0 2.92969V84.9609C0 86.6014 1.28887 87.8906 2.92969 87.8906H57.6564C58.6523 87.8906 59.5898 87.3631 60.1172 86.5428C60.7029 85.6641 60.7617 84.6096 60.2928 83.6717C59.1795 81.3867 58.5937 78.867 58.5937 76.1719ZM89.4943 69.49C88.39 68.3828 86.9137 67.7734 85.3516 67.7734C83.7894 67.7734 82.3131 68.3828 81.2088 69.49L73.6328 77.066L71.9162 75.3494C70.8119 74.2422 69.3355 73.6328 67.7734 73.6328C66.2113 73.6328 64.735 74.2422 63.6307 75.3494C62.5264 76.4566 61.9141 77.9271 61.9141 79.4922C61.9141 81.0572 62.5264 82.5277 63.6307 83.635L69.49 89.4943C70.5943 90.6016 72.0707 91.2109 73.6328 91.2109C75.1949 91.2109 76.6713 90.6016 77.7756 89.4943L89.4943 77.7756C91.7773 75.4924 91.7773 71.7732 89.4943 69.49Z" fill="url(#paint0_linear_51_309)"/>
<path d="M69.4334 18.4568L51.8553 0.878711C51.3281 0.292969 50.5664 0 49.8047 0V17.5781C49.8047 19.1961 51.1164 20.5078 52.7344 20.5078H70.3125C70.3125 19.7461 70.0195 18.9844 69.4334 18.4568ZM20.5078 23.4375H32.2266C33.8459 23.4375 35.1562 22.1271 35.1562 20.5078C35.1562 18.8885 33.8459 17.5781 32.2266 17.5781H20.5078C18.8885 17.5781 17.5781 18.8885 17.5781 20.5078C17.5781 22.1271 18.8885 23.4375 20.5078 23.4375ZM49.8047 35.1562H20.5078C18.8885 35.1562 17.5781 36.4666 17.5781 38.0859C17.5781 39.7053 18.8885 41.0156 20.5078 41.0156H49.8047C51.424 41.0156 52.7344 39.7053 52.7344 38.0859C52.7344 36.4666 51.424 35.1562 49.8047 35.1562ZM49.8047 46.875H20.5078C18.8885 46.875 17.5781 48.1854 17.5781 49.8047C17.5781 51.424 18.8885 52.7344 20.5078 52.7344H49.8047C51.424 52.7344 52.7344 51.424 52.7344 49.8047C52.7344 48.1854 51.424 46.875 49.8047 46.875ZM49.8047 58.5938H20.5078C18.8885 58.5938 17.5781 59.9041 17.5781 61.5234C17.5781 63.1428 18.8885 64.4531 20.5078 64.4531H49.8047C51.424 64.4531 52.7344 63.1428 52.7344 61.5234C52.7344 59.9041 51.424 58.5938 49.8047 58.5938ZM76.5625 53.125C63.3787 53.125 53.125 63.9498 53.125 76.5625C53.125 89.7207 63.9326 100 76.5625 100C89.4887 100 100 89.4857 100 76.5625C100 63.6393 89.4887 53.125 76.5625 53.125ZM87.4229 75.7041L75.7041 87.4229C75.1318 87.9951 74.3822 88.2812 73.6328 88.2812C72.8834 88.2812 72.1336 87.9951 71.5615 87.4229L65.7021 81.5635C64.5578 80.4191 64.5578 78.565 65.7021 77.4207C66.8465 76.2764 68.7006 76.2764 69.8449 77.4207L73.6328 81.2088L83.2803 71.5613C84.4246 70.417 86.2787 70.417 87.423 71.5613C88.5674 72.7057 88.5674 74.5598 87.4229 75.7041Z" fill="url(#paint1_linear_51_309)"/>
</g>
<defs>
<linearGradient id="paint0_linear_51_309" x1="45.6033" y1="91.2109" x2="45.6033" y2="0" gradientUnits="userSpaceOnUse">
<stop stop-color="#5558FF"/>
<stop offset="1" stop-color="#00C0FF"/>
</linearGradient>
<linearGradient id="paint1_linear_51_309" x1="58.7891" y1="100" x2="58.7891" y2="0" gradientUnits="userSpaceOnUse">
<stop stop-color="#ADDCFF"/>
<stop offset="0.5028" stop-color="#EAF6FF"/>
<stop offset="1" stop-color="#EAF6FF"/>
</linearGradient>
<clipPath id="clip0_51_309">
<rect width="100" height="100" fill="white"/>
</clipPath>
</defs>
</svg>
