<svg width="100" height="100" viewBox="0 0 100 100" fill="none" xmlns="http://www.w3.org/2000/svg">
<g clip-path="url(#clip0_51_328)">
<path d="M79.9985 67.2227C79.9999 67.2502 80.0021 67.1836 79.9985 67.2227V67.2227ZM77.2901 64.5117C77.2605 64.5096 77.294 64.5105 77.2901 64.5117V64.5117ZM79.2167 65.3381C78.71 64.8299 78.0281 64.5348 77.3108 64.5133L77.2901 64.5117C77.2658 64.5136 77.2414 64.5141 77.2171 64.5133C76.4833 64.5175 75.7809 64.8113 75.2625 65.3306C74.7441 65.85 74.4517 66.5529 74.4487 67.2867V69.8363C74.4438 70.3013 74.2557 70.7456 73.9252 71.0727C73.5946 71.3997 73.1484 71.5832 72.6834 71.5832C72.2184 71.5832 71.7722 71.3997 71.4416 71.0727C71.1111 70.7456 70.923 70.3013 70.9181 69.8363V62.6074C70.9181 61.8724 70.6261 61.1675 70.1064 60.6478C69.5867 60.1281 68.8818 59.8361 68.1468 59.8361C67.4118 59.8361 66.7069 60.1281 66.1872 60.6478C65.6675 61.1675 65.3755 61.8724 65.3755 62.6074V69.8242C65.3779 70.0576 65.3341 70.2892 65.2465 70.5055C65.1589 70.7218 65.0292 70.9186 64.865 71.0846C64.7009 71.2505 64.5054 71.3822 64.29 71.472C64.0746 71.5619 63.8436 71.6082 63.6102 71.6082C63.3768 71.6082 63.1457 71.5619 62.9303 71.472C62.7149 71.3822 62.5194 71.2505 62.3553 71.0846C62.1911 70.9186 62.0614 70.7218 61.9738 70.5055C61.8862 70.2892 61.8424 70.0576 61.8448 69.8242V58.5643C61.8387 57.8333 61.544 57.1343 61.0249 56.6196C60.5059 56.1048 59.8045 55.816 59.0734 55.816C58.3424 55.816 57.641 56.1048 57.1219 56.6196C56.6029 57.1343 56.3082 57.8333 56.302 58.5643V69.8242C56.3045 70.0576 56.2607 70.2892 56.173 70.5055C56.0854 70.7218 55.9558 70.9186 55.7916 71.0846C55.6274 71.2505 55.432 71.3822 55.2166 71.472C55.0012 71.5619 54.7701 71.6082 54.5367 71.6082C54.3033 71.6082 54.0722 71.5619 53.8568 71.472C53.6414 71.3822 53.446 71.2505 53.2818 71.0846C53.1177 70.9186 52.988 70.7218 52.9004 70.5055C52.8128 70.2892 52.7689 70.0576 52.7714 69.8242V38.8742C52.7714 38.1392 52.4794 37.4343 51.9597 36.9146C51.44 36.3949 50.7351 36.1029 50.0001 36.1029C49.2651 36.1029 48.5602 36.3949 48.0405 36.9146C47.5208 37.4343 47.2288 38.1392 47.2288 38.8742V77.0117C47.2288 77.3606 47.1253 77.7017 46.9316 77.9919C46.7378 78.2821 46.4624 78.5083 46.1401 78.6421C45.8178 78.7758 45.4631 78.8111 45.1208 78.7434C44.7785 78.6757 44.464 78.5081 44.2169 78.2617L37.1743 71.2193C35.662 69.707 33.9436 69.4945 32.6251 69.9889C32.1762 70.1579 31.7645 70.4126 31.4128 70.7387C31.1076 71.0153 30.8684 71.357 30.713 71.7385C30.42 72.4883 30.5817 73.4131 31.4815 74.2818C33.5499 76.2752 36.3495 81.243 38.8927 85.7484C40.7237 89.0041 42.4171 92.0035 43.4106 93.1721C45.9091 96.1292 49.234 98.2726 52.9589 99.3271C56.5971 100.363 60.4714 100.205 64.0136 98.8779C67.6628 97.5031 71.1122 94.8154 73.8618 90.6045C77.3175 85.3178 79.6731 77.6631 79.9981 67.2336V67.2248C79.9981 67.2156 79.9981 67.1967 79.9981 67.1586C79.9967 66.8182 79.9267 66.4817 79.7924 66.1689C79.6582 65.8562 79.4624 65.5736 79.2167 65.3381ZM3.88037 18.9715H96.1198V74.7551C96.1163 76.0755 95.5907 77.3409 94.6576 78.2751C93.7245 79.2094 92.4598 79.7366 91.1394 79.7418H82.0036C82.9036 75.6671 83.41 71.5153 83.5157 67.3438V67.3375C83.522 67.15 83.522 67.2312 83.522 67.1562C83.519 66.3525 83.3561 65.5573 83.0428 64.817C82.7295 64.0768 82.2721 63.4063 81.6972 62.8445C80.5547 61.7101 79.0257 61.0494 77.4167 60.9949C77.2231 60.9949 77.28 60.9887 77.2169 60.9887C76.2304 60.9865 75.2578 61.22 74.3798 61.6697C74.1534 60.1789 73.4006 58.8185 72.2576 57.835C71.1146 56.8514 69.6572 56.3098 68.1493 56.3082C67.1161 56.3046 66.0983 56.558 65.1874 57.0457C64.8451 55.6829 64.0584 54.4731 62.9516 53.6073C61.8449 52.7416 60.4812 52.2694 59.0761 52.2652C58.1139 52.2635 57.1643 52.4841 56.3015 52.9098V38.8742C56.3015 37.2028 55.6375 35.5999 54.4557 34.4181C53.2738 33.2362 51.6709 32.5723 49.9995 32.5723C48.3281 32.5723 46.7252 33.2362 45.5434 34.4181C44.3615 35.5999 43.6976 37.2028 43.6976 38.8742V72.7555L39.6681 68.725C37.0313 66.0883 33.8815 65.7693 31.4007 66.6937C30.512 67.0263 29.6969 67.5294 29.0013 68.1746C28.3178 68.8109 27.7823 69.5896 27.4327 70.4555C26.6454 72.4613 26.9579 74.7984 29.045 76.8105C29.67 77.416 30.4384 78.4541 31.2759 79.7414H8.86084C7.54044 79.7363 6.27569 79.209 5.3426 78.2748C4.40952 77.3405 3.88387 76.0751 3.88037 74.7547V18.9715ZM37.1431 38.8738C37.146 41.5617 37.9894 44.1815 39.5552 46.3662C39.6898 46.5543 39.8602 46.7139 40.0566 46.8359C40.2531 46.958 40.4717 47.04 40.6999 47.0774C40.9281 47.1147 41.1615 47.1066 41.3866 47.0536C41.6117 47.0006 41.8241 46.9036 42.0117 46.7683C42.1992 46.633 42.3582 46.462 42.4795 46.2651C42.6008 46.0682 42.682 45.8493 42.7185 45.6209C42.755 45.3926 42.7461 45.1592 42.6922 44.9343C42.6383 44.7094 42.5406 44.4974 42.4046 44.3104C41.4086 42.915 40.8163 41.2723 40.6926 39.5624C40.5689 37.8525 40.9186 36.1416 41.7033 34.6175C42.488 33.0933 43.6774 31.8147 45.141 30.922C46.6046 30.0294 48.2858 29.5571 50.0001 29.5571C51.7144 29.5571 53.3956 30.0294 54.8592 30.922C56.3228 31.8147 57.5122 33.0933 58.2969 34.6175C59.0816 36.1416 59.4313 37.8525 59.3076 39.5624C59.1839 41.2723 58.5916 42.915 57.5956 44.3104C57.4606 44.4974 57.3637 44.7093 57.3105 44.9338C57.2573 45.1584 57.2489 45.3912 57.2857 45.619C57.36 46.079 57.614 46.4907 57.9919 46.7635C58.3698 47.0362 58.8405 47.1477 59.3005 47.0734C59.7606 46.9991 60.1723 46.745 60.445 46.3672C61.6264 44.7212 62.4021 42.8194 62.7089 40.8167C63.0157 38.814 62.8448 36.7672 62.2102 34.8431C61.5756 32.919 60.4953 31.1721 59.0573 29.7448C57.6194 28.3176 55.8644 27.2504 53.9356 26.6302C52.0069 26.01 49.9588 25.8544 47.9585 26.1762C45.9581 26.4979 44.0621 27.2878 42.4251 28.4815C40.788 29.6752 39.4562 31.2389 38.5383 33.045C37.6204 34.8512 37.1423 36.8488 37.1431 38.8748V38.8738ZM96.1198 4.98047V15.441H3.88037V4.98047C3.88388 3.66064 4.40973 2.39588 5.34299 1.46262C6.27625 0.529358 7.54102 0.00350553 8.86084 0L91.1395 0C92.4593 0.00355706 93.7241 0.529432 94.6573 1.46269C95.5905 2.39594 96.1163 3.66068 96.1198 4.98047ZM14.4472 8.60469C14.4467 8.13581 14.2602 7.68628 13.9287 7.3547C13.5972 7.02312 13.1477 6.83656 12.6788 6.83594H12.5726C12.1044 6.83594 11.6554 7.02192 11.3243 7.35296C10.9933 7.68401 10.8073 8.133 10.8073 8.60117C10.8073 9.06934 10.9933 9.51834 11.3243 9.84938C11.6554 10.1804 12.1044 10.3664 12.5726 10.3664H12.6788C13.1466 10.3662 13.5952 10.1807 13.9266 9.85053C14.258 9.52039 14.4452 9.07245 14.4472 8.60469ZM21.4522 8.60469C21.4531 8.13645 21.2679 7.68705 20.9374 7.35535C20.6069 7.02366 20.1582 6.83682 19.6899 6.83594H19.5839C19.1157 6.83594 18.6667 7.02192 18.3357 7.35296C18.0046 7.68401 17.8187 8.133 17.8187 8.60117C17.8187 9.06934 18.0046 9.51834 18.3357 9.84938C18.6667 10.1804 19.1157 10.3664 19.5839 10.3664H19.6899C20.1571 10.3659 20.6049 10.1801 20.9353 9.84988C21.2657 9.51962 21.4516 9.07182 21.4522 8.60469ZM28.464 8.60469C28.4634 8.13571 28.2769 7.68609 27.9453 7.35449C27.6136 7.0229 27.164 6.8364 26.695 6.83594H26.5888C26.1206 6.83594 25.6716 7.02192 25.3406 7.35296C25.0095 7.68401 24.8235 8.133 24.8235 8.60117C24.8235 9.06934 25.0095 9.51834 25.3406 9.84938C25.6716 10.1804 26.1206 10.3664 26.5888 10.3664H26.695C27.1628 10.3662 27.6114 10.1807 27.9428 9.85053C28.2742 9.52039 28.4614 9.07245 28.4634 8.60469H28.464ZM89.1903 8.60469C89.1908 8.3728 89.1455 8.1431 89.0572 7.9287C88.9688 7.7143 88.8391 7.51941 88.6754 7.35516C88.5117 7.19091 88.3173 7.06051 88.1032 6.97143C87.8891 6.88234 87.6595 6.8363 87.4276 6.83594H68.5624C68.0942 6.83594 67.6452 7.02192 67.3142 7.35296C66.9831 7.68401 66.7972 8.133 66.7972 8.60117C66.7972 9.06934 66.9831 9.51834 67.3142 9.84938C67.6452 10.1804 68.0942 10.3664 68.5624 10.3664H87.4276C87.8948 10.3659 88.3426 10.1801 88.6729 9.84986C89.0033 9.5196 89.1891 9.0718 89.1897 8.60469H89.1903Z" fill="url(#paint0_linear_51_328)"/>
</g>
<defs>
<linearGradient id="paint0_linear_51_328" x1="3.88037" y1="50" x2="96.1198" y2="50" gradientUnits="userSpaceOnUse">
<stop stop-color="#0053CC"/>
<stop offset="0.274" stop-color="#0077DA"/>
<stop offset="0.765" stop-color="#00B3F0"/>
<stop offset="1" stop-color="#00CAF9"/>
</linearGradient>
<clipPath id="clip0_51_328">
<rect width="100" height="100" fill="white"/>
</clipPath>
</defs>
</svg>
