<svg width="100" height="100" viewBox="0 0 100 100" fill="none" xmlns="http://www.w3.org/2000/svg">
<path d="M77.198 49.05C77.198 33.116 64.9946 20.1522 50 20.1522C35.0053 20.1522 22.802 33.116 22.802 49.05C22.802 64.9841 35.0053 77.9478 50 77.9478C64.9946 77.9478 77.198 64.9841 77.198 49.05ZM60.7807 44.0757C63.5363 44.0757 65.7551 46.2944 65.7551 49.05C65.7551 51.8056 63.5363 54.0244 60.7807 54.0244C58.0251 54.0244 55.8064 51.8056 55.8064 49.05C55.8064 46.2944 58.0251 44.0757 60.7807 44.0757ZM39.2192 54.0244C36.4636 54.0244 34.2449 51.8056 34.2449 49.05C34.2449 46.2944 36.4636 44.0757 39.2192 44.0757C41.9748 44.0757 44.1936 46.2944 44.1936 49.05C44.1936 51.8056 41.9748 54.0244 39.2192 54.0244Z" fill="url(#paint0_linear_51_337)"/>
<path d="M97.5 47.15V62.35C97.5 64.45 95.8 66.15 93.7 66.15H88V69.95C88 81.47 78.62 90.85 67.1 90.85H55.7C55.7 91.9 54.85 92.75 53.8 92.75H46.2C45.15 92.75 44.3 91.9 44.3 90.85V87.05C44.3 86 45.15 85.15 46.2 85.15H53.8C54.85 85.15 55.7 86 55.7 87.05H67.1C76.53 87.05 84.2 79.38 84.2 69.95V66.15H82.3V43.35C82.3 25.54 67.81 11.05 50 11.05C32.19 11.05 17.7 25.54 17.7 43.35V66.15H8.20001C4 66.15 2.5 62.75 2.5 58.55V50.95C2.5 46.75 4 43.35 8.20001 43.35H13.9C13.9 23.44 30.09 7.25 50 7.25C69.91 7.25 86.1 23.44 86.1 43.35H93.7C95.8 43.35 97.5 45.05 97.5 47.15Z" fill="url(#paint1_linear_51_337)"/>
<defs>
<linearGradient id="paint0_linear_51_337" x1="0.421974" y1="-5.28195" x2="92.439" y2="95.5581" gradientUnits="userSpaceOnUse">
<stop stop-color="#97E0FF"/>
<stop offset="1" stop-color="#1075FF"/>
</linearGradient>
<linearGradient id="paint1_linear_51_337" x1="-1.171" y1="-3.829" x2="90.846" y2="97.011" gradientUnits="userSpaceOnUse">
<stop stop-color="#97E0FF"/>
<stop offset="1" stop-color="#1075FF"/>
</linearGradient>
</defs>
</svg>
