<svg width="392" height="311" viewBox="0 0 392 311" fill="none" xmlns="http://www.w3.org/2000/svg">
<g filter="url(#filter0_f_1138_1160)">
<path d="M196 290.407C293.202 290.407 372 285.807 372 280.132C372 274.457 293.202 269.856 196 269.856C98.7979 269.856 20 274.457 20 280.132C20 285.807 98.7979 290.407 196 290.407Z" fill="#E6EEFF"/>
</g>
<path d="M298.687 260.243L272.535 257.674V220.911H262.169V257.656L235.945 260.243C234.687 260.367 233.52 260.954 232.672 261.89C231.823 262.827 231.352 264.045 231.352 265.308V269.239H303.316V265.308C303.317 264.039 302.842 262.814 301.985 261.877C301.129 260.939 299.952 260.357 298.687 260.243Z" fill="#141414"/>
<path opacity="0.2" d="M298.687 260.243L272.535 257.674V220.911H262.169V257.656L235.945 260.243C234.687 260.367 233.52 260.954 232.672 261.89C231.823 262.827 231.352 264.045 231.352 265.308V269.239H303.316V265.308C303.317 264.039 302.842 262.814 301.985 261.877C301.129 260.939 299.952 260.357 298.687 260.243Z" fill="#FCFCFC"/>
<path d="M234.082 280.894C237.826 280.894 240.862 277.858 240.862 274.113C240.862 270.369 237.826 267.333 234.082 267.333C230.337 267.333 227.301 270.369 227.301 274.113C227.301 277.858 230.337 280.894 234.082 280.894Z" fill="#141414"/>
<path d="M300.519 280.894C304.264 280.894 307.3 277.858 307.3 274.113C307.3 270.369 304.264 267.333 300.519 267.333C296.774 267.333 293.738 270.369 293.738 274.113C293.738 277.858 296.774 280.894 300.519 280.894Z" fill="#141414"/>
<path d="M260.383 196.076H274.316V225.06C274.316 226.054 273.922 227.007 273.218 227.711C272.515 228.414 271.562 228.809 270.568 228.809H264.132C263.137 228.809 262.184 228.414 261.481 227.711C260.778 227.007 260.383 226.054 260.383 225.06V196.076Z" fill="#141414"/>
<path opacity="0.3" d="M260.383 196.076H274.316V225.06C274.316 226.054 273.922 227.007 273.218 227.711C272.515 228.414 271.562 228.809 270.568 228.809H264.132C263.137 228.809 262.184 228.414 261.481 227.711C260.778 227.007 260.383 226.054 260.383 225.06V196.076Z" fill="#FCFCFC"/>
<path d="M292.13 138.625C292.13 138.625 294.109 187.643 280.457 196.076H296.043C296.043 196.076 308.116 179.383 304.703 138.625H292.13Z" fill="#141414"/>
<path opacity="0.3" d="M292.13 138.625C292.13 138.625 294.109 187.643 280.457 196.076H296.043C296.043 196.076 308.116 179.383 304.703 138.625H292.13Z" fill="#FCFCFC"/>
<path d="M301.344 199.834H231.521V193.761C231.521 192.557 231.999 191.403 232.85 190.552C233.702 189.701 234.856 189.222 236.06 189.222H296.805C298.009 189.222 299.163 189.701 300.014 190.552C300.866 191.403 301.344 192.557 301.344 193.761V199.834Z" fill="#141414"/>
<path d="M230.429 199.834H302.422C303.429 199.834 304.246 199.017 304.246 198.009V196.357C304.246 195.35 303.429 194.533 302.422 194.533H230.429C229.422 194.533 228.605 195.35 228.605 196.357V198.009C228.605 199.017 229.422 199.834 230.429 199.834Z" fill="#141414"/>
<path opacity="0.6" d="M230.429 199.834H302.422C303.429 199.834 304.246 199.017 304.246 198.009V196.357C304.246 195.35 303.429 194.533 302.422 194.533H230.429C229.422 194.533 228.605 195.35 228.605 196.357V198.009C228.605 199.017 229.422 199.834 230.429 199.834Z" fill="#FCFCFC"/>
<path d="M308.522 112.347H283.559C276.25 112.347 270.324 118.272 270.324 125.582V135.349C270.324 142.658 276.25 148.583 283.559 148.583H308.522C315.831 148.583 321.756 142.658 321.756 135.349V125.582C321.756 118.272 315.831 112.347 308.522 112.347Z" fill="#141414"/>
<path d="M207.845 72.2978L202.862 59.1629C202.862 59.1629 205.004 57.1841 203.533 55.178C202.063 53.1719 192.877 47.5349 191.206 48.5243C189.536 49.5137 185.805 53.2536 187.82 55.3323C189.836 57.411 198.713 60.8694 198.713 60.8694L203.125 78.1163L207.845 72.2978Z" fill="#FFC3BD"/>
<path d="M242.641 97.2695C242.641 97.2695 219.948 92.6128 217.524 91.4963C215.101 90.3798 205.987 63.6653 205.987 63.6653L198.988 66.9331C198.988 66.9331 204.616 93.7475 210.371 100.12C216.126 106.492 240.689 111.92 240.689 111.92L242.641 97.2695Z" fill="#1A56DB"/>
<path opacity="0.2" d="M240.634 111.893L240.216 111.793C238.981 111.512 235.105 110.604 230.503 109.252C223.033 107.082 213.61 103.805 210.324 100.129C204.578 93.7747 198.941 66.9331 198.941 66.9331L205.931 63.6653C205.931 63.6653 215.054 90.3889 217.523 91.4963C219.992 92.6037 242.64 97.2695 242.64 97.2695L240.634 111.893Z" fill="#141414"/>
<path d="M206.051 63.1389L207.494 65.9256L198.508 69.021L198.853 65.617L206.051 63.1389Z" fill="#1A56DB"/>
<path opacity="0.2" d="M240.807 111.521C239.554 111.339 235.624 110.731 230.922 109.705C233.6 105.076 241.442 102.698 241.442 102.698L240.807 111.521Z" fill="#141414"/>
<path d="M274.591 78.77C274.591 78.77 275.925 91.3239 271.277 94.4102C266.63 97.4964 243.746 93.8837 241.15 88.8276C238.554 83.7716 248.321 70.0648 248.321 70.0648L274.591 78.77Z" fill="#141414"/>
<path d="M182.012 243.959L187.985 245.402L191.007 237.16L193.749 229.662L186.95 226.766L184.336 235.862L182.012 243.959Z" fill="#FFC3BD"/>
<path opacity="0.2" d="M184.332 235.862L191.004 237.16L193.745 229.662L186.946 226.766L184.332 235.862Z" fill="#141414"/>
<path d="M184.934 231.514L193.212 234.591C193.212 234.591 215.297 179.374 219.836 179.219C224.375 179.065 270.587 200.27 282.17 188.487C293.752 176.705 277.005 148.293 277.005 148.293C277.005 148.293 249.146 144.317 247.05 150.608C246.534 152.462 246.139 154.348 245.87 156.254C245.552 158.178 245.334 159.794 245.334 159.794C244.472 159.576 216.504 152.36 205.485 159.794C194.274 167.355 184.934 231.514 184.934 231.514Z" fill="#1A56DB"/>
<path opacity="0.6" d="M184.934 231.514L193.212 234.591C193.212 234.591 215.297 179.374 219.836 179.219C224.375 179.065 270.587 200.27 282.17 188.487C293.752 176.705 277.005 148.293 277.005 148.293C277.005 148.293 249.146 144.317 247.05 150.608C246.534 152.462 246.139 154.348 245.87 156.254C245.552 158.178 245.334 159.794 245.334 159.794C244.472 159.576 216.504 152.36 205.485 159.794C194.274 167.355 184.934 231.514 184.934 231.514Z" fill="#FCFCFC"/>
<path d="M232.554 267.514L238.5 265.999L237.356 257.457L236.294 249.632L228.941 250.295L230.848 259.418L232.554 267.514Z" fill="#FFC3BD"/>
<path opacity="0.2" d="M230.892 259.599L237.391 257.62L236.311 249.714L228.949 250.34L230.892 259.599Z" fill="#141414"/>
<path d="M196.636 231.523L184.572 227.429L184.055 232.367L193.205 235.599L196.636 231.523Z" fill="#1A56DB"/>
<path d="M262.167 191.283C262.167 191.283 260.278 191.329 231.059 189.967C231.059 189.967 235.425 226.494 237.812 253.844L229.071 255.333C229.071 255.333 208.193 196.775 208.42 187.471C208.647 178.167 219.313 175.443 219.313 175.443C219.313 175.443 240.127 187.471 262.167 191.283Z" fill="#1A56DB"/>
<path opacity="0.6" d="M262.167 191.283C262.167 191.283 260.278 191.329 231.059 189.967C231.059 189.967 235.425 226.494 237.812 253.844L229.071 255.333C229.071 255.333 208.193 196.775 208.42 187.471C208.647 178.167 219.313 175.443 219.313 175.443C219.313 175.443 240.127 187.471 262.167 191.283Z" fill="#FCFCFC"/>
<path opacity="0.1" d="M262.167 191.283C262.167 191.283 260.278 191.329 231.059 189.967C231.059 189.967 235.425 226.494 237.812 253.844L229.071 255.333C229.071 255.333 208.193 196.775 208.42 187.471C208.647 178.167 219.313 175.443 219.313 175.443C219.313 175.443 240.127 187.471 262.167 191.283Z" fill="#141414"/>
<path d="M239.08 251.193L227.07 252.564L229.394 257.266L239.116 256.023L239.08 251.193Z" fill="#1A56DB"/>
<path opacity="0.1" d="M245.336 159.794L261.63 163.189C261.63 163.189 252.625 158.215 245.871 156.254C245.554 158.178 245.336 159.794 245.336 159.794Z" fill="#141414"/>
<path d="M276.335 143.963L277.007 148.293L247.051 150.608L246.262 145.479L276.335 143.963Z" fill="#141414"/>
<path opacity="0.2" d="M276.335 143.963L277.007 148.293L247.051 150.608L246.262 145.479L276.335 143.963Z" fill="#141414"/>
<path d="M266.886 151.218L268.367 151.065L267.592 143.526L266.111 143.678L266.886 151.218Z" fill="#1A56DB"/>
<path d="M253.578 150.465L260.137 150.043L259.817 145.07L253.258 145.491L253.578 150.465Z" fill="#FCFCFC"/>
<path d="M248.507 152.01L249.988 151.858L249.213 144.318L247.732 144.47L248.507 152.01Z" fill="#1A56DB"/>
<path opacity="0.6" d="M266.886 151.218L268.367 151.065L267.592 143.526L266.111 143.678L266.886 151.218Z" fill="#FCFCFC"/>
<path opacity="0.6" d="M248.507 152.01L249.988 151.858L249.213 144.318L247.732 144.47L248.507 152.01Z" fill="#FCFCFC"/>
<path d="M242.094 96.861C247.704 98.4109 253.527 99.0514 259.34 98.7581C268.962 98.2679 280.418 102.906 280.418 102.906L276.297 143.936L246.215 145.452C246.215 145.452 236.148 111.221 242.094 96.861Z" fill="#1A56DB"/>
<path d="M246.93 73.6867C246.93 73.6867 248.618 53.7711 265.266 60.9785C286.144 70.0558 269.55 94.3286 259.338 89.3542C249.126 84.3798 246.93 73.6867 246.93 73.6867Z" fill="#141414"/>
<path opacity="0.2" d="M251.598 99.8748L252.079 111.131L255.81 105.839C255.81 105.839 254.475 118.284 255.256 125.064C255.256 125.064 255.973 112.91 257.661 105.839L261.628 111.131L267.32 99.9474C267.32 99.9474 258.106 96.6342 251.598 99.8748Z" fill="#141414"/>
<path d="M256.755 101.999L265.37 99.5661C260.059 95.9352 262.737 87.7656 262.737 87.7656L254.205 90.7611C254.597 91.9472 254.9 93.1609 255.112 94.392C256.02 99.7114 253.605 100.138 253.605 100.138L256.755 101.999Z" fill="#FFC3BD"/>
<path opacity="0.2" d="M254.203 90.7157C254.596 91.9017 254.899 93.1154 255.111 94.3466C259.196 92.7036 262.727 87.702 262.727 87.702L254.203 90.7157Z" fill="#141414"/>
<path d="M259.775 65.1904C252.213 63.5201 248.882 67.0058 246.613 74.6852C243.771 84.2618 244.398 91.6507 254.301 91.6689C267.754 91.687 272.32 67.968 259.775 65.1904Z" fill="#FFC3BD"/>
<path d="M251.59 75.3478C250.739 76.3425 249.769 77.2295 248.703 77.9893C248.856 78.3528 249.106 78.6667 249.427 78.896C249.747 79.1252 250.125 79.2607 250.519 79.2873L251.59 75.3478Z" fill="#FF8D8D"/>
<path d="M256.355 75.7473C256.201 76.3645 256.41 76.9546 256.828 77.0544C257.245 77.1543 257.69 76.7367 257.844 76.1467C257.998 75.5566 257.79 74.9485 257.372 74.8395C256.955 74.7306 256.51 75.13 256.355 75.7473Z" fill="#141414"/>
<path d="M257.535 74.885L256.328 74.0317C256.328 74.0317 256.718 75.3298 257.535 74.885Z" fill="#141414"/>
<path d="M248.715 73.7321C248.561 74.3494 248.769 74.9394 249.187 75.0393C249.604 75.1391 250.095 74.7216 250.204 74.1315C250.312 73.5415 250.149 72.9333 249.731 72.8244C249.314 72.7155 248.869 73.1149 248.715 73.7321Z" fill="#141414"/>
<path d="M249.896 72.8697L248.652 72.0437C248.652 72.0437 249.079 73.3055 249.896 72.8697Z" fill="#141414"/>
<path d="M260.612 72.7426C260.551 72.7438 260.491 72.7283 260.438 72.6979C260.386 72.6675 260.342 72.6234 260.312 72.5702C260.013 72.1033 259.614 71.7093 259.142 71.4171C258.671 71.1249 258.14 70.942 257.589 70.8818C257.503 70.8705 257.424 70.8267 257.368 70.7593C257.312 70.6919 257.284 70.6059 257.29 70.5187C257.299 70.4312 257.342 70.3507 257.41 70.2947C257.478 70.2386 257.565 70.2115 257.653 70.2192C258.322 70.2839 258.967 70.5028 259.537 70.8587C260.107 71.2147 260.587 71.698 260.939 72.2706C260.959 72.3093 260.971 72.3515 260.975 72.395C260.979 72.4384 260.973 72.4822 260.96 72.5236C260.946 72.5651 260.925 72.6034 260.896 72.6363C260.868 72.6693 260.833 72.6962 260.794 72.7154C260.736 72.7382 260.674 72.7475 260.612 72.7426Z" fill="#141414"/>
<path d="M252.165 69.3206C252.103 69.3195 252.043 69.3006 251.992 69.2661C251.546 69.052 251.058 68.9408 250.563 68.9408C250.068 68.9408 249.579 69.052 249.133 69.2661C249.094 69.2822 249.052 69.2902 249.009 69.2898C248.967 69.2893 248.925 69.2804 248.886 69.2635C248.847 69.2465 248.812 69.222 248.783 69.1913C248.753 69.1605 248.731 69.1243 248.715 69.0846C248.699 69.0446 248.691 69.0019 248.691 68.9588C248.692 68.9157 248.701 68.8731 248.717 68.8335C248.734 68.7938 248.759 68.7579 248.79 68.7278C248.821 68.6976 248.857 68.6739 248.897 68.6579C249.439 68.4056 250.032 68.2809 250.63 68.2935C251.228 68.3061 251.815 68.4556 252.346 68.7305C252.383 68.7536 252.415 68.7837 252.439 68.8191C252.464 68.8545 252.482 68.8944 252.491 68.9366C252.5 68.9788 252.501 69.0225 252.493 69.065C252.486 69.1075 252.47 69.1481 252.446 69.1844C252.414 69.2282 252.371 69.2635 252.322 69.2872C252.273 69.3109 252.219 69.3224 252.165 69.3206Z" fill="#141414"/>
<path d="M265.211 79.7504C265.211 79.7504 263.051 72.7609 264.649 68.086C264.649 68.086 251.033 58.6547 246.93 73.6867C246.93 73.6867 248.446 59.8711 261.508 62.449C274.57 65.027 270.295 84.0076 262.334 88.1832C262.334 88.1832 266.537 84.1166 265.211 79.7504Z" fill="#141414"/>
<path d="M263.627 81.1211C263.893 80.2622 264.488 79.5438 265.283 79.1235C266.078 78.7032 267.007 78.6153 267.866 78.879C270.154 79.6505 270.199 84.7066 264.126 84.5705C263.246 84.5069 262.955 83.5901 263.627 81.1211Z" fill="#FFC3BD"/>
<path d="M249.148 82.1558C249.35 83.0827 249.484 84.0232 249.548 84.9697H250.038C252.298 85.1604 253.406 84.4977 253.95 83.7171C254.211 83.3291 254.373 82.8836 254.422 82.419C254.461 82.1572 254.461 81.8911 254.422 81.6293C252.965 82.1311 251.417 82.3138 249.884 82.1648C249.448 82.1921 249.148 82.1558 249.148 82.1558Z" fill="#141414"/>
<path d="M249.918 82.2104L250.054 83.0364C252.178 83.2089 253.685 83.0364 254.42 82.4645C254.459 82.2027 254.459 81.9366 254.42 81.6748C252.975 82.1715 251.44 82.354 249.918 82.2104Z" fill="#FCFCFC"/>
<path d="M250.039 85.0152C252.299 85.2058 253.407 84.5432 253.951 83.7625C253.094 83.7066 252.234 83.8018 251.41 84.0439C250.862 84.2151 250.382 84.555 250.039 85.0152Z" fill="#FF8D8D"/>
<path d="M259.804 65.7986C259.804 65.7986 260.094 78.8971 267.973 80.4766C275.853 82.056 267.247 63.6291 267.247 63.6291C267.247 63.6291 255.538 55.986 247.731 61.3779C239.925 66.7698 246.95 73.6867 246.95 73.6867C246.95 73.6867 248.575 63.9559 259.804 65.7986Z" fill="#141414"/>
<path d="M262.807 77.7897C262.754 77.7892 262.702 77.7699 262.662 77.7352C257.07 73.3418 259.83 64.9362 259.857 64.8545C259.878 64.7978 259.919 64.751 259.973 64.724C260.027 64.697 260.09 64.6917 260.147 64.7093C260.204 64.7298 260.25 64.7719 260.276 64.8264C260.301 64.8808 260.304 64.9432 260.284 64.9998C260.284 65.0815 257.606 73.1694 262.943 77.3812C262.965 77.4016 262.982 77.4262 262.994 77.4535C263.006 77.4809 263.012 77.5103 263.012 77.5401C263.012 77.5698 263.006 77.5993 262.994 77.6266C262.982 77.6539 262.965 77.6786 262.943 77.6989C262.928 77.7228 262.908 77.7433 262.885 77.7589C262.861 77.7745 262.835 77.7851 262.807 77.7897Z" fill="#141414"/>
<path d="M270.254 83.1635C269.255 85.8322 266.686 87.3299 264.517 86.5221C262.348 85.7142 261.403 82.8911 262.402 80.2224C263.4 77.5537 265.969 76.0559 268.139 76.8729C270.308 77.6899 271.252 80.5038 270.254 83.1635Z" fill="#1A56DB"/>
<path opacity="0.4" d="M270.254 83.1635C269.255 85.8322 266.686 87.3299 264.517 86.5221C262.348 85.7142 261.403 82.8911 262.402 80.2224C263.4 77.5537 265.969 76.0559 268.139 76.8729C270.308 77.6899 271.252 80.5038 270.254 83.1635Z" fill="#141414"/>
<path d="M267.709 78.7973C267.709 78.7973 270.967 64.2101 263.66 60.3885C264.492 60.4974 265.317 60.6581 266.129 60.8696C267.037 61.142 272.91 67.0604 269.96 80.168L267.709 78.7973Z" fill="#1A56DB"/>
<path opacity="0.2" d="M267.709 78.7973C267.709 78.7973 270.967 64.2101 263.66 60.3885C264.492 60.4974 265.317 60.6581 266.129 60.8696C267.037 61.142 272.91 67.0604 269.96 80.168L267.709 78.7973Z" fill="#141414"/>
<path d="M254.092 87.1484L253.547 87.0667L253.692 86.159C257.701 86.7755 261.797 85.9072 265.211 83.7172L265.747 84.4434C262.314 86.7183 258.176 87.6787 254.092 87.1484Z" fill="#1A56DB"/>
<g opacity="0.2">
<path d="M254.092 87.1484L253.547 87.0667L253.692 86.159C257.701 86.7755 261.797 85.9072 265.211 83.7172L265.747 84.4434C262.314 86.7183 258.176 87.6787 254.092 87.1484Z" fill="#141414"/>
</g>
<path d="M269.946 82.8002C269.292 84.5612 267.586 85.5234 266.161 85.0151C264.736 84.5067 264.1 82.6187 264.763 80.8577C265.426 79.0967 267.123 78.1345 268.548 78.6428C269.973 79.1511 270.609 81.0392 269.946 82.8002Z" fill="#1A56DB"/>
<path d="M253.241 87.4752L252.506 87.3753C252.378 87.3586 252.254 87.3166 252.142 87.2517C252.03 87.1869 251.932 87.1005 251.853 86.9975C251.775 86.8946 251.717 86.7771 251.684 86.6519C251.652 86.5266 251.644 86.3961 251.662 86.2679C251.677 86.1387 251.719 86.0139 251.783 85.9008C251.847 85.7878 251.934 85.6886 252.037 85.6092C252.14 85.5298 252.258 85.4716 252.383 85.4382C252.509 85.4048 252.64 85.3968 252.769 85.4146L253.495 85.5145C253.754 85.5506 253.989 85.6869 254.148 85.8939C254.308 86.101 254.38 86.3624 254.349 86.6219C254.312 86.8808 254.176 87.1151 253.969 87.2747C253.762 87.4342 253.501 87.5062 253.241 87.4752Z" fill="#1A56DB"/>
<path opacity="0.4" d="M253.241 87.4752L252.506 87.3753C252.378 87.3586 252.254 87.3166 252.142 87.2517C252.03 87.1869 251.932 87.1005 251.853 86.9975C251.775 86.8946 251.717 86.7771 251.684 86.6519C251.652 86.5266 251.644 86.3961 251.662 86.2679C251.677 86.1387 251.719 86.0139 251.783 85.9008C251.847 85.7878 251.934 85.6886 252.037 85.6092C252.14 85.5298 252.258 85.4716 252.383 85.4382C252.509 85.4048 252.64 85.3968 252.769 85.4146L253.495 85.5145C253.754 85.5506 253.989 85.6869 254.148 85.8939C254.308 86.101 254.38 86.3624 254.349 86.6219C254.312 86.8808 254.176 87.1151 253.969 87.2747C253.762 87.4342 253.501 87.5062 253.241 87.4752Z" fill="#141414"/>
<path d="M263.056 96.4163L257.664 101.708L259.824 108.208L267.322 99.9473L263.056 96.4163Z" fill="#1A56DB"/>
<path d="M255.256 97.5237L256.127 101.599L253.341 107.363L251.598 99.8747L255.256 97.5237Z" fill="#1A56DB"/>
<path d="M261.906 101.009L265.038 89.5448C265.038 89.5448 263.522 86.6945 263.849 86.0954C264.176 85.4963 265.809 77.7988 266.971 76.9637C268.133 76.1286 272.917 77.5537 273.398 78.3343C273.879 79.115 268.814 89.5448 268.814 89.5448L266.999 101.972L261.906 101.009Z" fill="#FFC3BD"/>
<path d="M280.418 102.907C289.041 111.73 271.767 131.718 261.864 130.865C251.961 130.012 262.118 93.7749 262.118 93.7749L268.472 94.8188C268.472 94.8188 266.248 110.504 266.947 111.73C267.646 112.955 277.559 99.9747 280.418 102.907Z" fill="#1A56DB"/>
<path opacity="0.2" d="M280.418 102.907C289.041 111.73 271.767 131.718 261.864 130.865C251.961 130.012 262.118 93.7749 262.118 93.7749L268.472 94.8188C268.472 94.8188 266.248 110.504 266.947 111.73C267.646 112.955 277.559 99.9747 280.418 102.907Z" fill="#141414"/>
<path d="M261.63 92.6403L260.695 95.6358L269.528 96.4164V93.8022L261.63 92.6403Z" fill="#1A56DB"/>
<path opacity="0.6" d="M248.243 116.341H244.666C244.27 116.341 243.949 116.662 243.949 117.058V123.812C243.949 124.208 244.27 124.529 244.666 124.529H248.243C248.639 124.529 248.96 124.208 248.96 123.812V117.058C248.96 116.662 248.639 116.341 248.243 116.341Z" fill="#FCFCFC"/>
<path opacity="0.2" d="M248.313 116.886H244.246V122.45H248.313V116.886Z" fill="#141414"/>
<path d="M246.824 114.371H245.926V117.648H246.824V114.371Z" fill="#141414"/>
<path d="M172.134 255.56C173.039 255.138 174.015 254.889 175.011 254.824C175.011 254.824 178.461 252.8 181.874 244.912H185.714C186.365 244.917 186.998 245.122 187.528 245.501C188.058 245.879 188.458 246.412 188.673 247.027C188.737 247.196 188.774 247.373 188.782 247.553C188.736 248.481 188.636 249.406 188.482 250.322C187.92 253.391 187.172 256.422 186.24 259.399L185.586 259.236L186.767 253.499C187.166 251.557 185.114 253.436 184.17 255.396C183.226 257.357 181.765 259.345 177.517 258.374C172.57 257.157 170.582 256.449 172.134 255.56Z" fill="#1A56DB"/>
<path d="M182.573 242.851C182.573 242.851 177.771 252.891 175.012 254.824C175.012 254.824 178.715 257.03 182.573 252.101C187.557 245.747 188.782 247.517 188.782 247.517C188.677 246.421 188.474 245.336 188.174 244.277C187.429 242.243 182.573 242.851 182.573 242.851Z" fill="#FFC3BD"/>
<path d="M224.984 279.478C225.768 278.86 226.656 278.387 227.607 278.08C227.607 278.08 230.475 275.294 231.919 266.825L235.65 265.917C236.283 265.771 236.945 265.823 237.548 266.067C238.15 266.311 238.663 266.734 239.017 267.278C239.119 267.43 239.199 267.595 239.253 267.769C239.435 268.668 239.559 269.577 239.625 270.492C239.8 273.594 239.785 276.705 239.58 279.805H238.908L238.7 273.959C238.618 271.971 237.084 274.286 236.621 276.419C236.158 278.552 235.223 280.813 230.866 280.876C225.792 280.931 223.686 280.713 224.984 279.478Z" fill="#1A56DB"/>
<path d="M232.109 264.655C232.109 264.655 229.831 275.548 227.57 278.08C227.57 278.08 231.691 279.351 234.269 273.66C237.61 266.307 239.216 267.741 239.216 267.741C238.858 266.701 238.405 265.695 237.864 264.737C236.684 262.921 232.109 264.655 232.109 264.655Z" fill="#FFC3BD"/>
<path d="M316.514 44.9478H284.825C282.283 44.9478 280.223 47.0082 280.223 49.55V63.1024C280.223 65.6441 282.283 67.7046 284.825 67.7046H316.514C319.055 67.7046 321.116 65.6441 321.116 63.1024V49.55C321.116 47.0082 319.055 44.9478 316.514 44.9478Z" fill="#1A56DB"/>
<path d="M291.178 65.1084L281.629 78.089L297.033 65.9798L291.178 65.1084Z" fill="#1A56DB"/>
<path d="M291.531 56.3216C291.532 56.588 291.455 56.849 291.308 57.0713C291.161 57.2937 290.951 57.4672 290.705 57.5701C290.46 57.6729 290.189 57.7002 289.927 57.6487C289.666 57.5971 289.426 57.469 289.237 57.2806C289.049 57.0921 288.921 56.8519 288.869 56.5905C288.818 56.329 288.845 56.0582 288.948 55.8123C289.051 55.5665 289.224 55.3568 289.446 55.2098C289.669 55.0629 289.93 54.9854 290.196 54.9872C290.55 54.9872 290.89 55.1278 291.14 55.378C291.39 55.6283 291.531 55.9677 291.531 56.3216Z" fill="#FCFCFC"/>
<path d="M298.511 56.3216C298.513 56.588 298.435 56.849 298.288 57.0713C298.142 57.2937 297.932 57.4672 297.686 57.5701C297.44 57.6729 297.169 57.7002 296.908 57.6487C296.646 57.5971 296.406 57.469 296.218 57.2806C296.029 57.0921 295.901 56.8519 295.85 56.5905C295.798 56.329 295.825 56.0582 295.928 55.8123C296.031 55.5665 296.205 55.3568 296.427 55.2098C296.649 55.0629 296.91 54.9854 297.177 54.9872C297.531 54.9872 297.87 55.1278 298.12 55.378C298.37 55.6283 298.511 55.9677 298.511 56.3216Z" fill="#FCFCFC"/>
<path d="M305.492 56.3216C305.493 56.588 305.416 56.849 305.269 57.0713C305.122 57.2937 304.912 57.4672 304.666 57.5701C304.421 57.6729 304.15 57.7002 303.888 57.6487C303.627 57.5971 303.387 57.469 303.198 57.2806C303.01 57.0921 302.882 56.8519 302.83 56.5905C302.779 56.329 302.806 56.0582 302.909 55.8123C303.011 55.5665 303.185 55.3568 303.407 55.2098C303.63 55.0629 303.891 54.9854 304.157 54.9872C304.511 54.9872 304.85 55.1278 305.101 55.378C305.351 55.6283 305.492 55.9677 305.492 56.3216Z" fill="#FCFCFC"/>
<path d="M312.472 56.3216C312.474 56.588 312.396 56.849 312.249 57.0713C312.102 57.2937 311.893 57.4672 311.647 57.5701C311.401 57.6729 311.13 57.7002 310.869 57.6487C310.607 57.5971 310.367 57.469 310.179 57.2806C309.99 57.0921 309.862 56.8519 309.811 56.5905C309.759 56.329 309.786 56.0582 309.889 55.8123C309.992 55.5665 310.166 55.3568 310.388 55.2098C310.61 55.0629 310.871 54.9854 311.138 54.9872C311.492 54.9872 311.831 55.1278 312.081 55.378C312.331 55.6283 312.472 55.9677 312.472 56.3216Z" fill="#FCFCFC"/>
<path d="M197.52 34.2164L174.911 22.038C174.302 21.7099 173.543 21.9377 173.215 22.5468L166 35.9408C165.672 36.5498 165.899 37.3096 166.508 37.6377L189.117 49.8161C189.726 50.1442 190.485 49.9164 190.814 49.3073L198.028 35.9133C198.357 35.3043 198.129 34.5445 197.52 34.2164Z" fill="#1A56DB"/>
<path opacity="0.7" d="M197.52 34.2164L174.911 22.038C174.302 21.7099 173.543 21.9377 173.215 22.5468L166 35.9408C165.672 36.5498 165.899 37.3096 166.508 37.6377L189.117 49.8161C189.726 50.1442 190.485 49.9164 190.814 49.3073L198.028 35.9133C198.357 35.3043 198.129 34.5445 197.52 34.2164Z" fill="#FCFCFC"/>
<path opacity="0.2" d="M172.625 23.6525L179.66 36.86C179.93 37.3631 180.343 37.7748 180.847 38.043C181.352 38.3112 181.924 38.4239 182.492 38.3668L197.206 36.9144L182.229 39.1202C181.574 39.217 180.906 39.0996 180.324 38.7855C179.741 38.4714 179.276 37.9775 178.997 37.3774L172.625 23.6525Z" fill="#141414"/>
<path d="M155.463 21.2106C155.708 16.1636 159.448 5.98794 163.995 2.87443C168.543 -0.239092 165.548 4.07263 165.548 4.07263C165.548 4.07263 169.859 -0.12109 172.129 0.00599195C174.398 0.133074 172.129 2.72918 172.129 2.72918C172.129 2.72918 176.804 -0.148322 178.955 0.00599195C181.106 0.160306 178.955 2.64749 178.955 2.64749C178.955 2.64749 182.785 -0.0757041 184.338 1.2042C185.89 2.4841 164.467 16.6356 162.08 22.3906C159.693 28.1457 155.218 26.303 155.463 21.2106Z" fill="#1A56DB"/>
<path opacity="0.4" d="M155.463 21.2106C155.708 16.1636 159.448 5.98794 163.995 2.87443C168.543 -0.239092 165.548 4.07263 165.548 4.07263C165.548 4.07263 169.859 -0.12109 172.129 0.00599195C174.398 0.133074 172.129 2.72918 172.129 2.72918C172.129 2.72918 176.804 -0.148322 178.955 0.00599195C181.106 0.160306 178.955 2.64749 178.955 2.64749C178.955 2.64749 182.785 -0.0757041 184.338 1.2042C185.89 2.4841 164.467 16.6356 162.08 22.3906C159.693 28.1457 155.218 26.303 155.463 21.2106Z" fill="#FCFCFC"/>
<path d="M173.867 20.448L176.727 22.2635C176.772 22.2914 176.806 22.3338 176.824 22.3838C176.842 22.4337 176.843 22.4883 176.826 22.5387C176.809 22.5891 176.776 22.6324 176.732 22.6615C176.687 22.6906 176.634 22.7039 176.581 22.6992L173.577 22.4632L173.831 24.7688C173.838 24.8232 173.828 24.8784 173.801 24.9264C173.775 24.9744 173.733 25.0124 173.683 25.0349C173.633 25.0574 173.577 25.0631 173.524 25.0511C173.47 25.0391 173.422 25.0101 173.386 24.9685L171.652 23.026L173.867 20.448Z" fill="#1A56DB"/>
<path opacity="0.3" d="M173.867 20.448L176.727 22.2635C176.772 22.2914 176.806 22.3338 176.824 22.3838C176.842 22.4337 176.843 22.4883 176.826 22.5387C176.809 22.5891 176.776 22.6324 176.732 22.6615C176.687 22.6906 176.634 22.7039 176.581 22.6992L173.577 22.4632L173.831 24.7688C173.838 24.8232 173.828 24.8784 173.801 24.9264C173.775 24.9744 173.733 25.0124 173.683 25.0349C173.633 25.0574 173.577 25.0631 173.524 25.0511C173.47 25.0391 173.422 25.0101 173.386 24.9685L171.652 23.026L173.867 20.448Z" fill="#FCFCFC"/>
<path d="M133.699 9.08323C133.699 9.08323 137.657 6.36004 143.639 8.12104C143.639 8.12104 145.354 16.0274 150.066 18.6598C152.653 20.1031 158.98 19.976 163.99 18.3602C169.936 16.4359 172.841 16.4359 173.921 18.6598C175.001 20.8837 173.803 23.1985 169.255 24.2787C164.707 25.3589 161.085 33.2561 152.852 33.356C144.619 33.4558 140.244 25.1864 142.323 17.9245C140.355 14.2122 137.361 11.1434 133.699 9.08323Z" fill="#1A56DB"/>
<path opacity="0.5" d="M133.699 9.08323C133.699 9.08323 137.657 6.36004 143.639 8.12104C143.639 8.12104 145.354 16.0274 150.066 18.6598C152.653 20.1031 158.98 19.976 163.99 18.3602C169.936 16.4359 172.841 16.4359 173.921 18.6598C175.001 20.8837 173.803 23.1985 169.255 24.2787C164.707 25.3589 161.085 33.2561 152.852 33.356C144.619 33.4558 140.244 25.1864 142.323 17.9245C140.355 14.2122 137.361 11.1434 133.699 9.08323Z" fill="#FCFCFC"/>
<path d="M171.653 20.1576C171.653 20.2384 171.629 20.3174 171.584 20.3846C171.539 20.4517 171.475 20.5041 171.401 20.535C171.326 20.5659 171.244 20.574 171.165 20.5583C171.085 20.5425 171.013 20.5036 170.956 20.4465C170.898 20.3893 170.86 20.3166 170.844 20.2373C170.828 20.1581 170.836 20.0759 170.867 20.0013C170.898 19.9267 170.95 19.8629 171.017 19.818C171.085 19.7731 171.164 19.7491 171.244 19.7491C171.353 19.7491 171.457 19.7922 171.533 19.8688C171.61 19.9454 171.653 20.0493 171.653 20.1576Z" fill="#141414"/>
<path d="M150.939 26.8021C146.065 28.1274 135.226 27.7099 130.869 24.3513C126.512 20.9927 131.523 22.5358 131.523 22.5358C131.523 22.5358 126.212 19.7309 125.622 17.5342C125.032 15.3375 128.237 16.6809 128.237 16.6809C128.237 16.6809 124.061 13.1317 123.517 11.0439C122.972 8.95616 126.022 10.227 126.022 10.227C126.022 10.227 122.218 7.43116 122.99 5.55216C123.762 3.67316 143.813 19.6855 150.013 20.1848C156.213 20.684 155.877 25.4587 150.939 26.8021Z" fill="#1A56DB"/>
<path opacity="0.4" d="M150.939 26.8021C146.065 28.1274 135.226 27.7099 130.869 24.3513C126.512 20.9927 131.523 22.5358 131.523 22.5358C131.523 22.5358 126.212 19.7309 125.622 17.5342C125.032 15.3375 128.237 16.6809 128.237 16.6809C128.237 16.6809 124.061 13.1317 123.517 11.0439C122.972 8.95616 126.022 10.227 126.022 10.227C126.022 10.227 122.218 7.43116 122.99 5.55216C123.762 3.67316 143.813 19.6855 150.013 20.1848C156.213 20.684 155.877 25.4587 150.939 26.8021Z" fill="#FCFCFC"/>
<path d="M118.987 4.71696C118.951 4.72581 118.913 4.72581 118.878 4.71696C118.033 4.41741 117.171 4.13602 116.3 3.87277C116.213 3.84556 116.141 3.78562 116.099 3.70584C116.057 3.62605 116.047 3.5328 116.073 3.44614C116.1 3.35997 116.16 3.28792 116.24 3.24548C116.319 3.20304 116.413 3.19361 116.499 3.21921C117.407 3.48245 118.251 3.77292 119.105 4.12694C119.181 4.1529 119.245 4.20527 119.286 4.27454C119.326 4.34381 119.341 4.42538 119.327 4.50445C119.312 4.58352 119.27 4.65486 119.208 4.70551C119.145 4.75616 119.067 4.78277 118.987 4.7805V4.71696Z" fill="#1A56DB"/>
<path d="M64.122 78.3975C64.0321 78.3976 63.9457 78.3625 63.8813 78.2997C63.8168 78.237 63.7794 78.1516 63.7771 78.0617C63.777 77.9718 63.8121 77.8854 63.8749 77.8209C63.9376 77.7565 64.023 77.7191 64.1129 77.7168C65.9187 77.6911 67.7192 77.515 69.4958 77.1903C69.5848 77.1743 69.6765 77.1938 69.7512 77.2448C69.8259 77.2957 69.8776 77.3739 69.8952 77.4626C69.9044 77.5068 69.9045 77.5523 69.8957 77.5966C69.8869 77.6408 69.8693 77.6828 69.8438 77.7201C69.8184 77.7574 69.7858 77.7892 69.7478 77.8135C69.7098 77.8379 69.6673 77.8544 69.6229 77.862C67.8075 78.1942 65.9674 78.3734 64.122 78.3975ZM58.6756 78.1071C56.8439 77.9117 55.0253 77.6086 53.2292 77.1993C53.1403 77.1798 53.0628 77.1258 53.0135 77.0493C52.9642 76.9728 52.9471 76.8799 52.966 76.7909C52.9876 76.7036 53.0423 76.6283 53.1186 76.5808C53.1949 76.5333 53.2867 76.5175 53.3745 76.5367C55.1421 76.9349 56.9299 77.2379 58.7301 77.4444C58.8108 77.4577 58.8842 77.4992 58.9372 77.5615C58.9902 77.6239 59.0192 77.703 59.0192 77.7848C59.0192 77.8666 58.9902 77.9458 58.9372 78.0081C58.8842 78.0705 58.8108 78.112 58.7301 78.1252L58.6756 78.1071ZM74.806 76.2916C74.7407 76.2919 74.6768 76.2732 74.6219 76.2377C74.5671 76.2023 74.5238 76.1516 74.4974 76.0919C74.4779 76.0509 74.4668 76.0065 74.465 75.9611C74.4631 75.9158 74.4705 75.8705 74.4866 75.8281C74.5027 75.7857 74.5273 75.747 74.5588 75.7143C74.5903 75.6817 74.628 75.6557 74.6698 75.638C76.3184 74.9274 77.8489 73.9693 79.2085 72.7968C79.278 72.7438 79.365 72.7192 79.452 72.7279C79.5389 72.7366 79.6194 72.7779 79.677 72.8436C79.7346 72.9093 79.7652 72.9945 79.7625 73.0818C79.7598 73.1692 79.724 73.2523 79.6624 73.3142C78.2482 74.5275 76.6602 75.5219 74.9512 76.2644C74.9011 76.2922 74.8451 76.3077 74.7878 76.3098L74.806 76.2916ZM48.037 75.6744C48.0012 75.6832 47.9639 75.6832 47.9281 75.6744C46.2034 75.1025 44.4696 74.4308 42.7903 73.6955C42.7159 73.653 42.66 73.5843 42.6335 73.5028C42.6069 73.4213 42.6117 73.3328 42.6468 73.2546C42.6819 73.1765 42.7449 73.1142 42.8235 73.0799C42.902 73.0456 42.9905 73.0418 43.0717 73.0692C44.7238 73.7954 46.4303 74.458 48.1459 75.0299C48.2309 75.0607 48.3003 75.1236 48.3394 75.2051C48.3784 75.2865 48.3839 75.3801 48.3547 75.4656C48.3291 75.5284 48.285 75.582 48.2282 75.6192C48.1715 75.6565 48.1049 75.6757 48.037 75.6744ZM38.052 71.2628C37.9987 71.2789 37.9418 71.2789 37.8886 71.2628C36.2637 70.355 34.6843 69.3747 33.2138 68.349C33.1774 68.3233 33.1465 68.2908 33.1227 68.2532C33.0989 68.2156 33.0827 68.1737 33.0752 68.1299C33.0676 68.086 33.0687 68.0412 33.0785 67.9978C33.0882 67.9544 33.1064 67.9133 33.1321 67.8769C33.1577 67.8406 33.1902 67.8096 33.2278 67.7859C33.2654 67.7621 33.3073 67.7459 33.3512 67.7383C33.395 67.7308 33.4399 67.7319 33.4833 67.7416C33.5267 67.7514 33.5677 67.7696 33.6041 67.7953C35.0565 68.8028 36.6087 69.7741 38.2244 70.6728C38.2635 70.6945 38.2979 70.7237 38.3255 70.7589C38.3532 70.7941 38.3735 70.8344 38.3853 70.8775C38.3972 70.9206 38.4003 70.9657 38.3945 71.01C38.3887 71.0544 38.3741 71.0971 38.3515 71.1357C38.3131 71.1945 38.2581 71.2406 38.1935 71.2681C38.1288 71.2956 38.0574 71.3032 37.9884 71.29L38.052 71.2628ZM82.9302 69.1841C82.8769 69.2002 82.8201 69.2002 82.7668 69.1841C82.7277 69.1624 82.6933 69.1331 82.6657 69.0979C82.6381 69.0628 82.6178 69.0224 82.6059 68.9793C82.5941 68.9362 82.591 68.8912 82.5968 68.8468C82.6026 68.8025 82.6172 68.7598 82.6397 68.7211C82.9211 68.231 83.1844 67.7226 83.4204 67.1962C83.9256 66.0846 84.3208 64.9262 84.6004 63.7377C84.624 63.6498 84.6805 63.5743 84.7583 63.527C84.836 63.4796 84.9291 63.4641 85.018 63.4835C85.1055 63.507 85.1802 63.564 85.2261 63.6421C85.2719 63.7202 85.2852 63.8132 85.2631 63.9011C84.9669 65.1288 84.5566 66.3262 84.0376 67.4775C83.7925 68.0222 83.5202 68.5577 83.2297 69.0661C83.191 69.1242 83.1356 69.1692 83.0708 69.1951C83.0059 69.2211 82.9348 69.2267 82.8667 69.2113L82.9302 69.1841ZM29.1017 64.9904C29.0219 64.9892 28.9449 64.9603 28.8839 64.9087C27.5015 63.6876 26.2063 62.3712 25.0079 60.9691C24.9452 60.9047 24.9102 60.8184 24.9102 60.7286C24.9102 60.6387 24.9452 60.5524 25.0079 60.488C25.0707 60.4259 25.1555 60.3911 25.2439 60.3911C25.3322 60.3911 25.417 60.4259 25.4799 60.488C26.6567 61.8606 27.9275 63.1497 29.2833 64.3459C29.3459 64.4103 29.381 64.4966 29.381 64.5864C29.381 64.6763 29.3459 64.7626 29.2833 64.827C29.2608 64.8761 29.2268 64.9191 29.1841 64.9523C29.1414 64.9855 29.0914 65.0079 29.0382 65.0176L29.1017 64.9904ZM85.5445 58.6907C85.4996 58.6907 85.4551 58.6817 85.4138 58.6643C85.3724 58.6469 85.335 58.6213 85.3037 58.5891C85.2724 58.557 85.2479 58.5189 85.2315 58.4771C85.2152 58.4353 85.2074 58.3906 85.2086 58.3458C85.1954 56.5406 85.0284 54.7398 84.7094 52.9629C84.6933 52.8739 84.7129 52.7822 84.7638 52.7075C84.8148 52.6328 84.893 52.5811 84.9817 52.5635C85.0716 52.5501 85.1633 52.5719 85.2377 52.6243C85.3121 52.6767 85.3634 52.7557 85.3811 52.8449C85.7077 54.6606 85.8778 56.501 85.8894 58.3458C85.8894 58.4373 85.8531 58.525 85.7884 58.5897C85.7237 58.6544 85.6359 58.6907 85.5445 58.6907ZM83.729 47.925C83.6555 47.9243 83.5842 47.9001 83.5254 47.856C83.4666 47.812 83.4235 47.7503 83.4022 47.6799C82.9393 46.0914 82.3674 44.403 81.6685 42.5149C81.6511 42.4727 81.6425 42.4275 81.6432 42.3818C81.644 42.3362 81.654 42.2912 81.6727 42.2496C81.6913 42.208 81.7183 42.1706 81.7519 42.1397C81.7855 42.1089 81.8251 42.0852 81.8681 42.0701C81.9525 42.0405 82.0451 42.0447 82.1264 42.082C82.2076 42.1192 82.2713 42.1866 82.3039 42.2698C83.0119 44.1761 83.5838 45.9008 84.0558 47.4802C84.0814 47.5669 84.0719 47.6601 84.0295 47.7399C83.9871 47.8197 83.915 47.8797 83.8289 47.9069L83.729 47.925ZM79.971 37.6223C79.908 37.6227 79.8462 37.605 79.7931 37.5712C79.7399 37.5374 79.6977 37.4889 79.6714 37.4316C79.0905 35.9793 78.3008 34.309 77.4747 32.539V32.4482C77.4511 32.3691 77.4566 32.2841 77.4903 32.2087C77.524 32.1333 77.5836 32.0725 77.6584 32.0373C77.7331 32.0022 77.8179 31.995 77.8975 32.0171C77.9771 32.0392 78.0461 32.0891 78.092 32.1577V32.2485C78.9271 34.064 79.7077 35.707 80.2887 37.1321C80.3254 37.2176 80.3269 37.3142 80.2929 37.4008C80.2589 37.4874 80.1922 37.5572 80.1072 37.595L79.971 37.6223ZM75.4323 27.6372C75.3655 27.6393 75.2996 27.6215 75.243 27.5859C75.1864 27.5503 75.1417 27.4987 75.1146 27.4375C74.2977 25.5404 73.6441 23.8611 73.1267 22.3089C73.0975 22.2234 73.103 22.1298 73.1421 22.0483C73.1811 21.9669 73.2506 21.904 73.3355 21.8731C73.4222 21.8444 73.5167 21.8512 73.5984 21.892C73.68 21.9328 73.7422 22.0044 73.7712 22.091C74.2795 23.6251 74.924 25.2862 75.741 27.1652C75.7588 27.2063 75.7682 27.2505 75.7687 27.2952C75.7692 27.34 75.7607 27.3844 75.7438 27.4258C75.7269 27.4672 75.7019 27.5049 75.6702 27.5365C75.6385 27.5682 75.6009 27.5931 75.5594 27.61C75.5291 27.6422 75.4919 27.667 75.4505 27.6826L75.4323 27.6372ZM72.11 17.2346C72.0288 17.2335 71.9506 17.2038 71.8892 17.1506C71.8277 17.0975 71.787 17.0244 71.7742 16.9442C71.6184 15.9715 71.5395 14.9881 71.5382 14.0031C71.5307 13.123 71.6097 12.2444 71.7742 11.3798C71.8004 11.2992 71.8552 11.2311 71.9284 11.1885C72.0015 11.1458 72.0878 11.1315 72.1708 11.1483C72.2537 11.1651 72.3277 11.2119 72.3784 11.2797C72.4291 11.3475 72.4532 11.4316 72.4459 11.5159C72.2888 12.3355 72.2128 13.1686 72.219 14.0031C72.2221 14.9546 72.2979 15.9044 72.4459 16.8443C72.4568 16.9329 72.4339 17.0223 72.3817 17.0946C72.3295 17.167 72.252 17.217 72.1645 17.2346H72.11ZM74.4792 6.92281C74.4003 6.92495 74.3232 6.89924 74.2614 6.85019C74.1987 6.7858 74.1636 6.69949 74.1636 6.60964C74.1636 6.51979 74.1987 6.43349 74.2614 6.36909C75.48 4.94538 76.9627 3.77097 78.6275 2.91064C78.7072 2.8683 78.8003 2.85884 78.8868 2.88429C78.9733 2.90974 79.0465 2.96808 79.0905 3.0468C79.1298 3.12795 79.1366 3.22103 79.1097 3.30706C79.0827 3.39309 79.0239 3.46558 78.9453 3.50974C77.3599 4.32962 75.9481 5.44854 74.7878 6.8048C74.7578 6.85496 74.7152 6.89641 74.6643 6.92507C74.6134 6.95372 74.5558 6.96859 74.4974 6.96819L74.4792 6.92281ZM111.079 2.47493H111.006C109.263 2.11184 107.457 1.80321 105.633 1.5672C105.588 1.56163 105.546 1.54729 105.507 1.52502C105.468 1.50276 105.434 1.47301 105.407 1.43751C105.38 1.40202 105.361 1.36149 105.349 1.3183C105.338 1.27511 105.336 1.23012 105.342 1.18595C105.348 1.14168 105.362 1.09896 105.384 1.06029C105.407 1.02162 105.436 0.987773 105.472 0.96073C105.507 0.933687 105.548 0.913989 105.591 0.902785C105.634 0.891581 105.679 0.8891 105.723 0.895479C107.539 1.13149 109.354 1.44012 111.17 1.80321C111.251 1.82196 111.323 1.86961 111.372 1.93733C111.421 2.00504 111.444 2.08822 111.436 2.1714C111.428 2.25458 111.39 2.33212 111.33 2.38961C111.269 2.44711 111.19 2.48065 111.106 2.48401L111.079 2.47493ZM83.847 1.70336C83.8029 1.70813 83.7583 1.70416 83.7157 1.69168C83.6731 1.67921 83.6334 1.65848 83.5989 1.63066C83.5643 1.60285 83.5356 1.5685 83.5143 1.52957C83.493 1.49065 83.4796 1.44791 83.4748 1.40381C83.4701 1.3597 83.474 1.31509 83.4865 1.27251C83.499 1.22994 83.5197 1.19024 83.5475 1.15568C83.5753 1.12112 83.6097 1.09238 83.6486 1.07109C83.6875 1.04981 83.7303 1.0364 83.7744 1.03163C85.567 0.62946 87.3878 0.365447 89.2208 0.241911C89.3108 0.236895 89.3992 0.267336 89.4671 0.32672C89.535 0.386104 89.5769 0.469706 89.5839 0.559616C89.5876 0.604467 89.5822 0.649604 89.5681 0.692349C89.5541 0.735094 89.5315 0.774578 89.5019 0.808447C89.4723 0.842316 89.4361 0.86988 89.3956 0.889509C89.3551 0.909138 89.3111 0.92043 89.2662 0.92271C87.4635 1.03927 85.6728 1.29725 83.9105 1.69428L83.847 1.70336ZM100.186 1.06794C98.6067 0.959015 96.7277 0.841009 94.7398 0.8047C94.6499 0.802334 94.5645 0.764954 94.5017 0.700521C94.439 0.636087 94.4039 0.549697 94.4039 0.459765C94.4039 0.414885 94.4129 0.370454 94.4303 0.329103C94.4478 0.287751 94.4733 0.250318 94.5055 0.219009C94.5376 0.1877 94.5757 0.163153 94.6175 0.146818C94.6593 0.130484 94.704 0.122689 94.7489 0.123902C96.7549 0.169288 98.6521 0.278217 100.195 0.387145C100.24 0.389425 100.284 0.400717 100.325 0.420345C100.365 0.439974 100.401 0.467539 100.431 0.501408C100.461 0.535277 100.483 0.57476 100.497 0.617506C100.511 0.660251 100.517 0.705387 100.513 0.750239C100.52 0.832203 100.497 0.913831 100.448 0.980405C100.4 1.04698 100.33 1.09412 100.25 1.11333L100.186 1.06794Z" fill="#1A56DB"/>
<path d="M22.041 56.612C21.9801 56.6131 21.9201 56.5976 21.8674 56.5672C21.8146 56.5369 21.7711 56.4927 21.7415 56.4395C21.2824 55.6426 20.8732 54.818 20.516 53.9705C20.4982 53.9294 20.4888 53.8852 20.4883 53.8405C20.4878 53.7957 20.4963 53.7513 20.5132 53.7099C20.5301 53.6684 20.5551 53.6308 20.5868 53.5992C20.6185 53.5675 20.6561 53.5426 20.6976 53.5257C20.7808 53.4922 20.8737 53.4924 20.9568 53.5263C21.0398 53.5602 21.1064 53.6251 21.1424 53.7072C21.4929 54.528 21.8899 55.3281 22.3315 56.1037C22.3654 56.1542 22.3845 56.2132 22.3867 56.274C22.3889 56.3348 22.3741 56.395 22.3439 56.4479C22.3137 56.5007 22.2693 56.5441 22.2158 56.5731C22.1623 56.6021 22.1018 56.6155 22.041 56.612Z" fill="#1A56DB"/>
<path d="M132.282 128.359H97.8242V135.422H132.282V128.359Z" fill="#FCFCFC"/>
<path opacity="0.1" d="M132.282 128.359H97.8242V135.422H132.282V128.359Z" fill="#141414"/>
<path opacity="0.1" d="M112.339 128.359H97.8242V135.422H112.339V128.359Z" fill="#141414"/>
<path opacity="0.1" d="M97.8242 129.376H128.496L97.8242 130.248V129.376Z" fill="#141414"/>
<path opacity="0.1" d="M132.287 130.601L105.699 131.264H132.287V130.601Z" fill="#141414"/>
<path opacity="0.1" d="M99.2344 132.58L112.342 132.045L131.613 132.58L112.342 132.88L99.2344 132.58Z" fill="#141414"/>
<path opacity="0.1" d="M97.8242 134.078H120.536L97.8242 134.614V134.078Z" fill="#141414"/>
<path opacity="0.1" d="M132.235 134.614L117.066 134.895H132.289L132.235 134.614Z" fill="#141414"/>
<path d="M127.497 121.297H93.0391V128.359H127.497V121.297Z" fill="#FCFCFC"/>
<path opacity="0.1" d="M127.497 121.297H93.0391V128.359H127.497V121.297Z" fill="#141414"/>
<path opacity="0.1" d="M107.554 121.297H93.0391V128.359H107.554V121.297Z" fill="#141414"/>
<path opacity="0.1" d="M93.0391 122.314H123.711L93.0391 123.176V122.314Z" fill="#141414"/>
<path opacity="0.1" d="M127.494 123.539L100.906 124.202H127.494V123.539Z" fill="#141414"/>
<path opacity="0.1" d="M94.4336 125.518L107.541 124.973L126.812 125.518L107.541 125.818L94.4336 125.518Z" fill="#141414"/>
<path opacity="0.1" d="M93.0391 127.007H115.75L93.0391 127.551V127.007Z" fill="#141414"/>
<path opacity="0.1" d="M127.438 127.551L112.27 127.833H127.492L127.438 127.551Z" fill="#141414"/>
<path d="M131.422 114.226H96.9648V121.288H131.422V114.226Z" fill="#FCFCFC"/>
<path opacity="0.1" d="M131.422 114.226H96.9648V121.288H131.422V114.226Z" fill="#141414"/>
<path opacity="0.1" d="M111.479 114.226H96.9648V121.288H111.479V114.226Z" fill="#141414"/>
<path opacity="0.1" d="M96.9648 115.243H127.637L96.9648 116.114V115.243Z" fill="#141414"/>
<path opacity="0.1" d="M131.427 116.468L104.84 117.131H131.427V116.468Z" fill="#141414"/>
<path opacity="0.1" d="M98.375 118.447L111.483 117.911L130.754 118.447L111.483 118.746L98.375 118.447Z" fill="#141414"/>
<path opacity="0.1" d="M96.9648 119.945H119.676L96.9648 120.48V119.945Z" fill="#141414"/>
<path opacity="0.1" d="M131.375 120.48L116.207 120.762H131.421L131.375 120.48Z" fill="#141414"/>
<path d="M154.379 135.276L155.268 131.89H192.086L209.033 133.588L209.678 135.276H154.379Z" fill="#141414"/>
<path opacity="0.4" d="M192.086 131.89V135.276H154.379L155.268 131.89H192.086Z" fill="#141414"/>
<path d="M184.692 115.687C184.742 116.098 184.703 116.514 184.578 116.908C184.452 117.302 184.245 117.665 183.968 117.972C183.691 118.279 183.351 118.523 182.972 118.688C182.593 118.853 182.183 118.935 181.769 118.928H125.381C124.499 118.909 123.655 118.569 123.005 117.973C122.355 117.377 121.945 116.564 121.85 115.687L118.501 79.5869C118.464 79.2343 118.489 78.8781 118.573 78.5339C118.73 77.9 119.097 77.3381 119.615 76.9405C120.133 76.543 120.771 76.3334 121.424 76.3463H177.848C178.73 76.3654 179.574 76.7049 180.224 77.3012C180.874 77.8975 181.285 78.71 181.379 79.5869L184.692 115.687Z" fill="#141414"/>
<path opacity="0.4" d="M181.57 118.928H125.381C124.499 118.909 123.655 118.569 123.005 117.973C122.355 117.377 121.945 116.564 121.85 115.687L118.501 79.587C118.464 79.2345 118.489 78.8783 118.573 78.5341H174.762C175.644 78.5532 176.488 78.8927 177.138 79.489C177.788 80.0853 178.198 80.8978 178.293 81.7747L181.642 117.875C181.679 118.228 181.654 118.584 181.57 118.928Z" fill="#141414"/>
<path d="M142.826 96.7885H154.491L151.386 130.184L169.831 132.952V135.276H130.98V132.952L138.941 130.184L142.826 96.7885Z" fill="#141414"/>
<path opacity="0.1" d="M154.491 96.7885L145.849 134.75L138.941 134.541L142.826 96.7885H154.491Z" fill="#FCFCFC"/>
<path d="M154.432 280.885H148.877L138.883 141.776H146.263L154.432 280.885Z" fill="#141414"/>
<path opacity="0.4" d="M154.441 280.885H148.877L139.373 148.692L138.883 142.002H146.263L146.662 148.692L154.441 280.885Z" fill="#FCFCFC"/>
<path opacity="0.2" d="M146.662 148.357H139.373L138.883 142.002H146.263L146.662 148.357Z" fill="#141414"/>
<path d="M195.248 280.885H189.693L188.785 141.776H196.156L195.248 280.885Z" fill="#141414"/>
<path opacity="0.5" d="M196.165 142.002L196.02 164.451L195.257 280.885H189.693L188.93 164.451L188.785 142.002H196.165Z" fill="#FCFCFC"/>
<path opacity="0.2" d="M196.165 142.002L196.02 164.696H188.93L188.785 142.002H196.165Z" fill="#141414"/>
<path d="M254.284 280.885H248.729L238.734 141.776H246.114L254.284 280.885Z" fill="#141414"/>
<path opacity="0.5" d="M254.293 280.885H248.729L239.225 148.692L238.734 142.002H246.114L246.514 148.692L254.293 280.885Z" fill="#FCFCFC"/>
<path opacity="0.2" d="M246.514 148.357H239.225L238.734 142.002H246.114L246.514 148.357Z" fill="#141414"/>
<path d="M90.817 280.885H85.2617L93.4313 141.776H100.811L90.817 280.885Z" fill="#141414"/>
<path opacity="0.5" d="M100.811 142.002L100.321 148.692L90.817 280.885H85.2617L93.0319 148.692L93.4313 142.002H100.811Z" fill="#FCFCFC"/>
<path opacity="0.2" d="M93.4385 142.002H100.818L100.328 148.357H93.0391L93.4385 142.002Z" fill="#141414"/>
<path d="M87.5898 138.308H251.962V143.31C251.962 143.567 251.911 143.822 251.813 144.06C251.714 144.298 251.57 144.514 251.388 144.696C251.205 144.878 250.989 145.023 250.751 145.121C250.514 145.22 250.259 145.27 250.001 145.27H89.5505C89.0305 145.27 88.5318 145.064 88.1641 144.696C87.7964 144.328 87.5898 143.83 87.5898 143.31V138.308Z" fill="#1A56DB"/>
<path opacity="0.6" d="M87.5898 138.308H251.962V143.31C251.962 143.567 251.911 143.822 251.813 144.06C251.714 144.298 251.57 144.514 251.388 144.696C251.205 144.878 250.989 145.023 250.751 145.121C250.514 145.22 250.259 145.27 250.001 145.27H89.5505C89.0305 145.27 88.5318 145.064 88.1641 144.696C87.7964 144.328 87.5898 143.83 87.5898 143.31V138.308Z" fill="#FCFCFC"/>
<path opacity="0.2" d="M251.962 138.299H87.5898V141.785H251.962V138.299Z" fill="#141414"/>
<path d="M255.411 139.216H84.1404C83.6204 139.216 83.1217 139.009 82.754 138.642C82.3863 138.274 82.1797 137.775 82.1797 137.255C82.1797 136.734 82.386 136.235 82.7534 135.866C83.1208 135.496 83.6195 135.288 84.1404 135.285H255.411C255.932 135.288 256.431 135.496 256.798 135.866C257.166 136.235 257.372 136.734 257.372 137.255C257.372 137.775 257.165 138.274 256.798 138.642C256.43 139.009 255.931 139.216 255.411 139.216Z" fill="#1A56DB"/>
<path opacity="0.6" d="M255.411 139.216H84.1404C83.6204 139.216 83.1217 139.009 82.754 138.642C82.3863 138.274 82.1797 137.775 82.1797 137.255C82.1797 136.734 82.386 136.235 82.7534 135.866C83.1208 135.496 83.6195 135.288 84.1404 135.285H255.411C255.932 135.288 256.431 135.496 256.798 135.866C257.166 136.235 257.372 136.734 257.372 137.255C257.372 137.775 257.165 138.274 256.798 138.642C256.43 139.009 255.931 139.216 255.411 139.216Z" fill="#FCFCFC"/>
<path d="M214.887 129.231L216.993 126.072C217.2 125.762 217.481 125.507 217.81 125.332C218.14 125.156 218.507 125.064 218.881 125.064H221.549C221.771 125.065 221.991 125.099 222.203 125.164L231.725 128.051C232.266 128.212 232.727 128.572 233.014 129.058L234.385 131.355L214.887 129.231Z" fill="#1A56DB"/>
<path opacity="0.2" d="M234.387 131.355L220.508 129.848L214.871 129.231L216.977 126.072C217.185 125.762 217.465 125.507 217.795 125.332C218.124 125.156 218.492 125.064 218.865 125.064H221.534C221.758 125.066 221.982 125.099 222.196 125.164L222.405 125.228L231.709 128.051C232.254 128.211 232.717 128.571 233.008 129.058L234.387 131.355Z" fill="#141414"/>
<path opacity="0.2" d="M234.387 131.355L220.508 129.848L222.405 125.228L231.709 128.051C232.253 128.211 232.717 128.571 233.007 129.058L234.387 131.355Z" fill="#141414"/>
<path d="M240.979 134.977V135.276H211.551L212.64 131.019C212.842 130.237 213.299 129.545 213.938 129.051C214.578 128.558 215.364 128.292 216.171 128.296H229.224C229.658 128.294 230.089 128.371 230.495 128.523L232.129 129.131L238.61 131.545C239.31 131.805 239.913 132.273 240.336 132.887C240.76 133.501 240.985 134.231 240.979 134.977Z" fill="#1A56DB"/>
<path opacity="0.2" d="M240.976 134.977V135.276H228.895L229.539 130.674C229.581 130.389 229.685 130.116 229.846 129.877C230.006 129.637 230.218 129.436 230.466 129.289C230.714 129.142 230.992 129.052 231.279 129.027C231.566 129.001 231.856 129.039 232.126 129.14L238.607 131.555C239.305 131.813 239.907 132.28 240.331 132.892C240.755 133.505 240.98 134.232 240.976 134.977Z" fill="#141414"/>
<path d="M230.777 132.154L234.626 120.616C234.664 120.499 234.726 120.391 234.81 120.3C234.894 120.209 234.997 120.138 235.111 120.092C235.225 120.045 235.348 120.024 235.471 120.03C235.595 120.036 235.715 120.069 235.824 120.126C235.992 120.222 236.124 120.369 236.203 120.545C236.281 120.721 236.301 120.918 236.26 121.107L233.019 133.415C233.019 133.415 230.868 134.287 230.777 132.154Z" fill="#141414"/>
<path opacity="0.2" d="M214.89 134.323H213.184L213.51 132.644H215.217L214.89 134.323Z" fill="#141414"/>
<path opacity="0.2" d="M217.433 134.259H215.727L216.053 132.58H217.76L217.433 134.259Z" fill="#141414"/>
<defs>
<filter id="filter0_f_1138_1160" x="0" y="249.856" width="392" height="60.551" filterUnits="userSpaceOnUse" color-interpolation-filters="sRGB">
<feFlood flood-opacity="0" result="BackgroundImageFix"/>
<feBlend mode="normal" in="SourceGraphic" in2="BackgroundImageFix" result="shape"/>
<feGaussianBlur stdDeviation="10" result="effect1_foregroundBlur_1138_1160"/>
</filter>
</defs>
</svg>
