<svg width="120" height="40" viewBox="0 0 120 40" fill="none" xmlns="http://www.w3.org/2000/svg">
<g clip-path="url(#clip0_58_419)">
<path d="M110.135 -0.0076825H9.53468C9.16798 -0.0076825 8.80568 -0.0076825 8.43995 -0.0056825C8.1338 -0.0036825 7.83009 0.0021275 7.521 0.0070175C6.84951 0.0149193 6.17961 0.0739938 5.5171 0.183728C4.85552 0.29585 4.21467 0.507233 3.61622 0.810727C3.0185 1.11679 2.47235 1.51449 1.99757 1.98939C1.5203 2.46295 1.12246 3.01033 0.81935 3.61048C0.5154 4.20943 0.304641 4.85126 0.19435 5.5138C0.0830109 6.1755 0.0230984 6.84484 0.01515 7.5158C0.00587 7.8224 0.00489 8.13002 0 8.43666V31.5509C0.00489 31.8614 0.00587 32.1622 0.01515 32.4728C0.0231008 33.1437 0.0830134 33.813 0.19435 34.4747C0.304336 35.1376 0.515108 35.7798 0.81935 36.379C1.12233 36.9772 1.52022 37.5224 1.99757 37.9933C2.47054 38.4703 3.01705 38.8683 3.61622 39.172C4.21467 39.4763 4.85545 39.689 5.5171 39.8028C6.17972 39.9117 6.84956 39.9708 7.521 39.9796C7.83009 39.9864 8.1338 39.9903 8.43995 39.9903C8.80567 39.9923 9.168 39.9923 9.53468 39.9923H110.135C110.494 39.9923 110.859 39.9923 111.219 39.9903C111.523 39.9903 111.836 39.9864 112.141 39.9796C112.811 39.9712 113.479 39.9121 114.141 39.8028C114.804 39.6882 115.448 39.4756 116.049 39.172C116.647 38.8681 117.193 38.4702 117.666 37.9933C118.142 37.5205 118.541 36.9758 118.848 36.379C119.15 35.7794 119.358 35.1373 119.467 34.4747C119.578 33.813 119.64 33.1438 119.652 32.4728C119.656 32.1622 119.656 31.8614 119.656 31.5509C119.664 31.1876 119.664 30.8263 119.664 30.4571V9.52845C119.664 9.16224 119.664 8.79896 119.656 8.43666C119.656 8.13002 119.656 7.8224 119.652 7.51576C119.64 6.84474 119.578 6.17555 119.467 5.51376C119.358 4.8516 119.149 4.20982 118.848 3.61044C118.23 2.40751 117.252 1.42834 116.049 0.810637C115.448 0.507885 114.804 0.296558 114.141 0.183637C113.48 0.0734203 112.811 0.0143253 112.141 0.0068775C111.836 0.0019975 111.523 -0.0038625 111.219 -0.0058125C110.859 -0.0078125 110.494 -0.0076825 110.135 -0.0076825Z" fill="#A6A6A6"/>
<path d="M8.44487 39.1172C8.14019 39.1172 7.84287 39.1133 7.54058 39.1065C6.91436 39.0983 6.2896 39.0438 5.67144 38.9434C5.09503 38.8441 4.53664 38.6595 4.0147 38.3955C3.49754 38.1337 3.02585 37.7905 2.6177 37.3789C2.20364 36.9722 1.85891 36.5004 1.59719 35.9824C1.33258 35.461 1.14945 34.9021 1.05419 34.3252C0.951311 33.7053 0.895651 33.0785 0.887687 32.4502C0.881347 32.2393 0.873047 31.5371 0.873047 31.5371V8.43653C0.873047 8.43653 0.881887 7.74512 0.887737 7.54199C0.895363 6.91467 0.950699 6.28884 1.05327 5.66992C1.14871 5.09144 1.33197 4.53094 1.59673 4.00782C1.85749 3.49013 2.2003 3.01805 2.61187 2.60987C3.02297 2.19781 3.49617 1.85279 4.01421 1.5874C4.53495 1.32428 5.09228 1.14092 5.66753 1.04346C6.28772 0.942024 6.91465 0.887184 7.54304 0.879398L8.44536 0.867188H111.214L112.127 0.879888C112.75 0.887287 113.371 0.941637 113.985 1.04248C114.566 1.14116 115.13 1.3258 115.656 1.59033C116.694 2.12517 117.539 2.97135 118.071 4.01026C118.332 4.52977 118.512 5.08569 118.607 5.65918C118.71 6.28318 118.768 6.91393 118.78 7.54639C118.783 7.82959 118.783 8.13379 118.783 8.43653C118.791 8.81153 118.791 9.16846 118.791 9.52832V30.457C118.791 30.8203 118.791 31.1748 118.783 31.5322C118.783 31.8574 118.783 32.1553 118.779 32.4619C118.768 33.0831 118.711 33.7026 118.608 34.3154C118.515 34.8965 118.333 35.4597 118.068 35.9854C117.805 36.4978 117.462 36.9655 117.053 37.3711C116.644 37.7849 116.172 38.1301 115.653 38.3936C115.128 38.6596 114.566 38.8449 113.985 38.9434C113.367 39.0443 112.742 39.0989 112.116 39.1065C111.823 39.1133 111.517 39.1172 111.219 39.1172L110.135 39.1192L8.44487 39.1172Z" fill="black"/>
<path d="M24.769 20.2928C24.7797 19.4581 25.0014 18.6397 25.4135 17.9138C25.8255 17.1878 26.4145 16.5779 27.1256 16.1407C26.6738 15.4955 26.0779 14.9646 25.385 14.59C24.6922 14.2155 23.9216 14.0077 23.1344 13.983C21.4552 13.8068 19.8272 14.9879 18.9715 14.9879C18.0992 14.9879 16.7817 14.0005 15.363 14.0297C14.4453 14.0594 13.551 14.3262 12.7671 14.8043C11.9832 15.2823 11.3365 15.9553 10.8901 16.7576C8.95607 20.106 10.3987 25.0271 12.2513 27.7337C13.1782 29.059 14.2615 30.5395 15.6789 30.487C17.066 30.4294 17.584 29.6025 19.2583 29.6025C20.9171 29.6025 21.4031 30.487 22.8493 30.4536C24.3377 30.4294 25.2754 29.1223 26.1698 27.7844C26.8358 26.8401 27.3483 25.7964 27.6882 24.6919C26.8235 24.3262 26.0856 23.714 25.5665 22.9317C25.0474 22.1494 24.77 21.2316 24.769 20.2928Z" fill="white"/>
<path d="M22.0373 12.203C22.8489 11.2288 23.2487 9.97663 23.1518 8.7124C21.912 8.84262 20.7668 9.43518 19.9443 10.372C19.5421 10.8297 19.2341 11.3621 19.0379 11.9389C18.8416 12.5157 18.761 13.1254 18.8006 13.7334C19.4207 13.7398 20.0342 13.6054 20.5949 13.3403C21.1555 13.0752 21.6487 12.6863 22.0373 12.203Z" fill="white"/>
<path d="M42.3025 27.1319H37.5691L36.4324 30.4883H34.4275L38.9109 18.0703H40.9939L45.4773 30.4883H43.4382L42.3025 27.1319ZM38.0593 25.583H41.8113L39.9617 20.1358H39.91L38.0593 25.583Z" fill="white"/>
<path d="M55.1599 25.9619C55.1599 28.7754 53.6541 30.583 51.3816 30.583C50.806 30.6131 50.2335 30.4805 49.7297 30.2003C49.2259 29.9202 48.8112 29.5039 48.533 28.999H48.49V33.4834H46.6316V21.4345H48.4305V22.9404H48.4646C48.7556 22.4379 49.1773 22.0237 49.6849 21.7419C50.1926 21.46 50.7671 21.3211 51.3474 21.3398C53.6453 21.3398 55.1599 23.1562 55.1599 25.9619ZM53.2498 25.9619C53.2498 24.1289 52.3025 22.9238 50.8572 22.9238C49.4373 22.9238 48.4822 24.1543 48.4822 25.9619C48.4822 27.7861 49.4373 29.0078 50.8572 29.0078C52.3025 29.0078 53.2498 27.8115 53.2498 25.9619Z" fill="white"/>
<path d="M65.1248 25.9619C65.1248 28.7754 63.6189 30.583 61.3465 30.583C60.7708 30.6131 60.1983 30.4805 59.6945 30.2003C59.1907 29.9202 58.776 29.5038 58.4978 28.999H58.4548V33.4833H56.5964V21.4345H58.3953V22.9404H58.4294C58.7204 22.4379 59.1421 22.0237 59.6498 21.7419C60.1574 21.46 60.7319 21.3211 61.3123 21.3398C63.6101 21.3398 65.1248 23.1562 65.1248 25.9619ZM63.2146 25.9619C63.2146 24.1289 62.2674 22.9238 60.822 22.9238C59.4021 22.9238 58.447 24.1543 58.447 25.9619C58.447 27.7861 59.4021 29.0078 60.822 29.0078C62.2674 29.0078 63.2146 27.8115 63.2146 25.9619Z" fill="white"/>
<path d="M71.7107 27.0284C71.8484 28.2598 73.0447 29.0684 74.6795 29.0684C76.2459 29.0684 77.3728 28.2598 77.3728 27.1494C77.3728 26.1856 76.6931 25.6084 75.0838 25.2129L73.4744 24.8252C71.1941 24.2744 70.1355 23.208 70.1355 21.4775C70.1355 19.335 72.0027 17.8633 74.6541 17.8633C77.2781 17.8633 79.0769 19.335 79.1375 21.4775H77.2615C77.1492 20.2383 76.1248 19.4902 74.6277 19.4902C73.1306 19.4902 72.1062 20.2471 72.1062 21.3486C72.1062 22.2266 72.7605 22.7432 74.3611 23.1386L75.7292 23.4746C78.2771 24.0771 79.3357 25.1006 79.3357 26.917C79.3357 29.2402 77.4851 30.6953 74.5417 30.6953C71.7878 30.6953 69.9285 29.2744 69.8083 27.0283L71.7107 27.0284Z" fill="white"/>
<path d="M83.3464 19.292V21.4346H85.0681V22.9063H83.3464V27.8975C83.3464 28.6729 83.6912 29.0342 84.448 29.0342C84.6524 29.0306 84.8564 29.0163 85.0593 28.9912V30.4541C84.719 30.5177 84.3732 30.5464 84.0271 30.54C82.1941 30.54 81.4792 29.8515 81.4792 28.0957V22.9063H80.1628V21.4346H81.4792V19.292H83.3464Z" fill="white"/>
<path d="M86.0652 25.9619C86.0652 23.1133 87.7429 21.3232 90.3591 21.3232C92.9841 21.3232 94.6541 23.1132 94.6541 25.9619C94.6541 28.8184 92.9929 30.6006 90.3591 30.6006C87.7263 30.6006 86.0652 28.8184 86.0652 25.9619ZM92.7605 25.9619C92.7605 24.0078 91.865 22.8545 90.3591 22.8545C88.8533 22.8545 87.9587 24.0166 87.9587 25.9619C87.9587 27.9238 88.8533 29.0684 90.3591 29.0684C91.865 29.0684 92.7605 27.9238 92.7605 25.9619Z" fill="white"/>
<path d="M96.1863 21.4347H97.9587V22.9757H98.0017C98.1217 22.4944 98.4036 22.0691 98.8002 21.7712C99.1968 21.4733 99.6838 21.321 100.179 21.34C100.394 21.3392 100.607 21.3625 100.816 21.4093V23.1476C100.546 23.065 100.264 23.027 99.9812 23.0353C99.7112 23.0243 99.4421 23.0719 99.1922 23.1748C98.9424 23.2777 98.7178 23.4334 98.5338 23.6313C98.3498 23.8292 98.2108 24.0646 98.1264 24.3212C98.042 24.5779 98.0141 24.8498 98.0447 25.1183V30.4884H96.1863L96.1863 21.4347Z" fill="white"/>
<path d="M109.385 27.8291C109.135 29.4727 107.534 30.6006 105.486 30.6006C102.852 30.6006 101.218 28.8359 101.218 26.0049C101.218 23.165 102.861 21.3232 105.408 21.3232C107.913 21.3232 109.488 23.0439 109.488 25.7891V26.4258H103.094V26.5381C103.064 26.8713 103.106 27.2069 103.216 27.5228C103.326 27.8386 103.502 28.1274 103.733 28.37C103.963 28.6125 104.242 28.8033 104.552 28.9296C104.862 29.0559 105.195 29.1148 105.529 29.1025C105.968 29.1437 106.409 29.042 106.786 28.8125C107.162 28.5831 107.455 28.2382 107.62 27.8291L109.385 27.8291ZM103.102 25.127H107.629C107.645 24.8274 107.6 24.5275 107.495 24.2463C107.391 23.9651 107.229 23.7086 107.02 23.4928C106.812 23.2771 106.561 23.1067 106.284 22.9925C106.006 22.8783 105.708 22.8227 105.408 22.8291C105.105 22.8273 104.805 22.8854 104.525 23.0002C104.245 23.1149 103.991 23.284 103.776 23.4976C103.562 23.7113 103.392 23.9652 103.276 24.2449C103.161 24.5245 103.102 24.8243 103.102 25.127Z" fill="white"/>
<path d="M37.8262 8.72308C38.2158 8.69512 38.6067 8.75398 38.9709 8.89541C39.335 9.03685 39.6632 9.25733 39.9317 9.54095C40.2003 9.82458 40.4026 10.1643 40.524 10.5355C40.6454 10.9068 40.6829 11.3004 40.6338 11.6879C40.6338 13.5942 39.6035 14.6899 37.8262 14.6899H35.6709V8.72308H37.8262ZM36.5976 13.8461H37.7226C38.0011 13.8627 38.2797 13.8171 38.5382 13.7125C38.7967 13.6078 39.0287 13.4469 39.2172 13.2413C39.4057 13.0358 39.546 12.7908 39.6278 12.5241C39.7097 12.2575 39.7311 11.976 39.6904 11.7001C39.7281 11.4252 39.7046 11.1455 39.6215 10.8808C39.5383 10.6161 39.3977 10.3731 39.2096 10.1692C39.0216 9.96528 38.7907 9.80547 38.5337 9.70124C38.2766 9.597 37.9996 9.55092 37.7226 9.56629H36.5976V13.8461Z" fill="white"/>
<path d="M41.6807 12.4365C41.6524 12.1406 41.6862 11.842 41.7801 11.5599C41.8739 11.2779 42.0257 11.0185 42.2256 10.7985C42.4256 10.5785 42.6693 10.4028 42.9411 10.2825C43.213 10.1622 43.507 10.1001 43.8042 10.1001C44.1015 10.1001 44.3955 10.1622 44.6673 10.2825C44.9392 10.4028 45.1829 10.5785 45.3828 10.7985C45.5828 11.0185 45.7345 11.2779 45.8284 11.5599C45.9222 11.842 45.9561 12.1406 45.9278 12.4365C45.9566 12.7327 45.9232 13.0317 45.8296 13.3142C45.736 13.5967 45.5843 13.8565 45.3843 14.077C45.1843 14.2974 44.9404 14.4735 44.6683 14.594C44.3962 14.7146 44.1019 14.7768 43.8042 14.7768C43.5066 14.7768 43.2123 14.7146 42.9402 14.594C42.668 14.4735 42.4241 14.2974 42.2241 14.077C42.0242 13.8565 41.8725 13.5967 41.7789 13.3142C41.6853 13.0317 41.6519 12.7327 41.6807 12.4365ZM45.0137 12.4365C45.0137 11.4604 44.5752 10.8896 43.8057 10.8896C43.0332 10.8896 42.5987 11.4604 42.5987 12.4365C42.5987 13.4204 43.0333 13.9868 43.8057 13.9868C44.5752 13.9868 45.0137 13.4165 45.0137 12.4365Z" fill="white"/>
<path d="M51.5732 14.6899H50.6514L49.7207 11.3735H49.6504L48.7236 14.6899H47.8105L46.5693 10.187H47.4707L48.2773 13.623H48.3438L49.2695 10.187H50.1221L51.0479 13.623H51.1182L51.9209 10.187H52.8096L51.5732 14.6899Z" fill="white"/>
<path d="M53.8535 10.1871H54.709V10.9024H54.7754C54.888 10.6455 55.0781 10.4301 55.3189 10.2863C55.5598 10.1425 55.8395 10.0774 56.1191 10.1001C56.3382 10.0837 56.5582 10.1167 56.7628 10.1968C56.9674 10.2769 57.1514 10.402 57.3011 10.5628C57.4508 10.7237 57.5623 10.9161 57.6275 11.126C57.6927 11.3358 57.7099 11.5576 57.6777 11.7749V14.6899H56.7891V11.9981C56.7891 11.2745 56.4746 10.9146 55.8174 10.9146C55.6686 10.9077 55.5201 10.933 55.3821 10.9888C55.244 11.0446 55.1197 11.1297 55.0175 11.2381C54.9154 11.3464 54.8379 11.4756 54.7904 11.6168C54.7429 11.7579 54.7264 11.9076 54.7422 12.0557V14.69H53.8535L53.8535 10.1871Z" fill="white"/>
<path d="M59.0938 8.4292H59.9824V14.6899H59.0938V8.4292Z" fill="white"/>
<path d="M61.2178 12.4366C61.1895 12.1406 61.2234 11.842 61.3172 11.56C61.4111 11.2779 61.5629 11.0185 61.7628 10.7985C61.9628 10.5786 62.2065 10.4028 62.4784 10.2825C62.7503 10.1622 63.0443 10.1001 63.3416 10.1001C63.6389 10.1001 63.9329 10.1622 64.2047 10.2825C64.4766 10.4028 64.7203 10.5786 64.9203 10.7985C65.1203 11.0185 65.272 11.2779 65.3659 11.56C65.4598 11.842 65.4936 12.1406 65.4653 12.4366C65.4942 12.7328 65.4607 13.0318 65.3671 13.3143C65.2734 13.5968 65.1217 13.8566 64.9217 14.077C64.7217 14.2975 64.4778 14.4736 64.2057 14.5941C63.9335 14.7146 63.6392 14.7769 63.3416 14.7769C63.0439 14.7769 62.7496 14.7146 62.4775 14.5941C62.2053 14.4736 61.9614 14.2975 61.7614 14.077C61.5614 13.8566 61.4097 13.5968 61.3161 13.3143C61.2225 13.0318 61.189 12.7328 61.2178 12.4366ZM64.5508 12.4366C64.5508 11.4605 64.1123 10.8897 63.3428 10.8897C62.5703 10.8897 62.1358 11.4605 62.1358 12.4366C62.1358 13.4205 62.5704 13.9869 63.3428 13.9869C64.1123 13.9869 64.5508 13.4165 64.5508 12.4366Z" fill="white"/>
<path d="M66.4009 13.4165C66.4009 12.6059 67.0044 12.1387 68.0757 12.0723L69.2954 12.0019V11.6133C69.2954 11.1377 68.981 10.8691 68.3735 10.8691C67.8774 10.8691 67.5337 11.0513 67.4351 11.3696H66.5747C66.6655 10.5962 67.3931 10.1001 68.4146 10.1001C69.5435 10.1001 70.1802 10.6621 70.1802 11.6133V14.6899H69.3247V14.0571H69.2544C69.1117 14.2841 68.9113 14.4692 68.6737 14.5934C68.436 14.7176 68.1697 14.7765 67.9019 14.7641C67.7128 14.7838 67.5218 14.7636 67.341 14.7049C67.1602 14.6462 66.9938 14.5503 66.8524 14.4233C66.711 14.2964 66.5977 14.1412 66.52 13.9678C66.4422 13.7943 66.4016 13.6065 66.4009 13.4165ZM69.2954 13.0317V12.6553L68.1958 12.7256C67.5757 12.7671 67.2944 12.978 67.2944 13.375C67.2944 13.7803 67.646 14.0161 68.1294 14.0161C68.2711 14.0304 68.4142 14.0161 68.5502 13.974C68.6862 13.932 68.8123 13.8629 68.9211 13.7711C69.0299 13.6793 69.1191 13.5665 69.1834 13.4394C69.2477 13.3124 69.2858 13.1738 69.2954 13.0317Z" fill="white"/>
<path d="M71.3481 12.4365C71.3481 11.0137 72.0796 10.1123 73.2173 10.1123C73.4987 10.0994 73.778 10.1668 74.0225 10.3067C74.267 10.4465 74.4667 10.6532 74.5981 10.9023H74.6646V8.4292H75.5532V14.6899H74.7017V13.9785H74.6314C74.4897 14.226 74.2831 14.43 74.0339 14.5685C73.7846 14.707 73.5022 14.7747 73.2173 14.7641C72.0718 14.7642 71.3481 13.8628 71.3481 12.4365ZM72.2661 12.4365C72.2661 13.3916 72.7163 13.9663 73.4693 13.9663C74.2183 13.9663 74.6812 13.3833 74.6812 12.4404C74.6812 11.502 74.2134 10.9107 73.4693 10.9107C72.7212 10.9107 72.2661 11.4893 72.2661 12.4365Z" fill="white"/>
<path d="M79.23 12.4365C79.2017 12.1406 79.2356 11.842 79.3294 11.5599C79.4232 11.2779 79.575 11.0185 79.7749 10.7985C79.9749 10.5785 80.2186 10.4028 80.4904 10.2825C80.7623 10.1622 81.0563 10.1001 81.3536 10.1001C81.6508 10.1001 81.9448 10.1622 82.2167 10.2825C82.4885 10.4028 82.7322 10.5785 82.9322 10.7985C83.1321 11.0185 83.2839 11.2779 83.3777 11.5599C83.4715 11.842 83.5054 12.1406 83.4771 12.4365C83.5059 12.7327 83.4725 13.0317 83.3789 13.3142C83.2853 13.5967 83.1336 13.8565 82.9336 14.077C82.7336 14.2974 82.4897 14.4735 82.2176 14.594C81.9455 14.7146 81.6512 14.7768 81.3536 14.7768C81.0559 14.7768 80.7616 14.7146 80.4895 14.594C80.2173 14.4735 79.9735 14.2974 79.7735 14.077C79.5735 13.8565 79.4218 13.5967 79.3282 13.3142C79.2346 13.0317 79.2012 12.7327 79.23 12.4365ZM82.563 12.4365C82.563 11.4604 82.1245 10.8896 81.355 10.8896C80.5826 10.8896 80.148 11.4604 80.148 12.4365C80.148 13.4204 80.5826 13.9868 81.355 13.9868C82.1245 13.9868 82.563 13.4165 82.563 12.4365Z" fill="white"/>
<path d="M84.6694 10.1871H85.5249V10.9024H85.5913C85.704 10.6455 85.894 10.4301 86.1348 10.2863C86.3757 10.1425 86.6555 10.0774 86.9351 10.1001C87.1542 10.0837 87.3742 10.1167 87.5788 10.1968C87.7834 10.2769 87.9673 10.402 88.117 10.5628C88.2667 10.7237 88.3783 10.9161 88.4435 11.126C88.5087 11.3358 88.5258 11.5576 88.4937 11.7749V14.6899H87.605V11.9981C87.605 11.2745 87.2905 10.9146 86.6333 10.9146C86.4846 10.9077 86.336 10.933 86.198 10.9888C86.0599 11.0446 85.9356 11.1297 85.8335 11.2381C85.7313 11.3464 85.6539 11.4756 85.6063 11.6168C85.5588 11.7579 85.5423 11.9076 85.5581 12.0557V14.69H84.6694V10.1871Z" fill="white"/>
<path d="M93.5151 9.06592V10.2075H94.4907V10.9561H93.5151V13.2715C93.5151 13.7432 93.7095 13.9497 94.1519 13.9497C94.2651 13.9493 94.3783 13.9425 94.4907 13.9292V14.6694C94.3311 14.698 94.1694 14.7132 94.0073 14.7148C93.019 14.7148 92.6255 14.3672 92.6255 13.499V10.956H91.9106V10.2075H92.6255V9.06592H93.5151Z" fill="white"/>
<path d="M95.7046 8.4292H96.5854V10.9106H96.6558C96.7739 10.6513 96.9691 10.4347 97.2148 10.2904C97.4605 10.146 97.7447 10.081 98.0288 10.104C98.2467 10.0921 98.4646 10.1285 98.6669 10.2106C98.8692 10.2926 99.0508 10.4183 99.199 10.5786C99.3471 10.739 99.458 10.93 99.5238 11.1382C99.5896 11.3463 99.6086 11.5664 99.5795 11.7827V14.6899H98.69V12.0019C98.69 11.2827 98.355 10.9184 97.7271 10.9184C97.5743 10.9059 97.4207 10.9269 97.2769 10.98C97.1332 11.033 97.0027 11.1169 96.8947 11.2256C96.7867 11.3343 96.7038 11.4654 96.6517 11.6095C96.5997 11.7536 96.5797 11.9074 96.5933 12.06V14.6899H95.7046L95.7046 8.4292Z" fill="white"/>
<path d="M104.761 13.4742C104.64 13.8857 104.379 14.2417 104.022 14.4799C103.665 14.718 103.236 14.8232 102.81 14.7769C102.513 14.7848 102.218 14.7279 101.946 14.6104C101.673 14.4929 101.43 14.3175 101.232 14.0963C101.034 13.8752 100.887 13.6136 100.8 13.3298C100.713 13.046 100.689 12.7467 100.73 12.4527C100.69 12.1578 100.715 11.8579 100.801 11.5732C100.888 11.2886 101.034 11.0258 101.231 10.8027C101.428 10.5796 101.671 10.4015 101.942 10.2803C102.214 10.159 102.509 10.0976 102.806 10.1002C104.059 10.1002 104.815 10.9562 104.815 12.3702V12.6803H101.635V12.7301C101.621 12.8953 101.642 13.0616 101.696 13.2184C101.75 13.3751 101.837 13.5188 101.949 13.6403C102.062 13.7618 102.199 13.8583 102.352 13.9237C102.504 13.9891 102.669 14.0219 102.834 14.0201C103.047 14.0456 103.262 14.0073 103.453 13.9101C103.644 13.8129 103.801 13.6611 103.906 13.4742L104.761 13.4742ZM101.635 12.023H103.91C103.921 11.8719 103.9 11.7201 103.849 11.5774C103.798 11.4347 103.718 11.3042 103.614 11.1943C103.509 11.0845 103.383 10.9977 103.243 10.9395C103.103 10.8813 102.953 10.853 102.801 10.8565C102.647 10.8546 102.495 10.8834 102.353 10.9414C102.21 10.9993 102.081 11.0852 101.972 11.1939C101.864 11.3026 101.778 11.432 101.72 11.5744C101.662 11.7168 101.633 11.8693 101.635 12.023Z" fill="white"/>
</g>
<defs>
<clipPath id="clip0_58_419">
<rect width="119.664" height="40" fill="white" transform="translate(0 -0.0078125)"/>
</clipPath>
</defs>
</svg>
