<svg width="445" height="350" viewBox="0 0 445 350" fill="none" xmlns="http://www.w3.org/2000/svg">
<g clip-path="url(#clip0_108_690)">
<path d="M405.066 319.243C396.536 328.384 386.761 336.278 376.031 342.69C375.784 342.841 375.534 342.984 375.283 343.131L357.911 327.741C358.094 327.571 358.296 327.381 358.513 327.171C371.457 314.869 435.716 228.854 439.998 207.908C439.703 209.653 443.862 278.086 405.066 319.243Z" fill="#F0F0F0"/>
<path d="M379.382 345.659C379.054 345.738 378.72 345.811 378.384 345.878L365.352 334.332C365.606 334.243 365.904 334.138 366.244 334.02C371.836 332.039 388.491 326.056 405.065 319.241C422.874 311.916 440.598 303.64 444.41 298.338C443.592 299.57 418.405 336.925 379.382 345.659Z" fill="#F0F0F0"/>
<path d="M404.825 91.5864H402.969V40.6951C402.969 36.8271 402.208 32.997 400.729 29.4234C399.25 25.8498 397.083 22.6028 394.35 19.8677C391.618 17.1326 388.374 14.9629 384.803 13.4827C381.233 12.0025 377.406 11.2406 373.542 11.2406H265.822C261.957 11.2406 258.131 12.0025 254.56 13.4827C250.99 14.9629 247.746 17.1325 245.014 19.8676C242.281 22.6027 240.113 25.8497 238.635 29.4233C237.156 32.9969 236.395 36.827 236.395 40.695V319.888C236.395 323.757 237.156 327.587 238.635 331.16C240.113 334.734 242.281 337.981 245.014 340.716C247.746 343.451 250.99 345.621 254.56 347.101C258.131 348.581 261.957 349.343 265.822 349.343H373.542C377.406 349.343 381.233 348.581 384.803 347.101C388.374 345.621 391.618 343.451 394.35 340.716C397.083 337.981 399.25 334.734 400.729 331.16C402.208 327.587 402.969 323.757 402.969 319.889V127.812H404.825V91.5864Z" fill="#3F3D56"/>
<path d="M396.705 40.8975V319.684C396.705 322.573 396.137 325.434 395.032 328.102C393.927 330.771 392.308 333.196 390.267 335.238C388.226 337.28 385.803 338.9 383.136 340.004C380.47 341.109 377.612 341.677 374.726 341.676H266.487C263.602 341.676 260.745 341.108 258.079 340.003C255.413 338.898 252.991 337.278 250.951 335.235C248.91 333.193 247.292 330.769 246.188 328.101C245.084 325.432 244.515 322.573 244.516 319.684V40.8975C244.515 38.0094 245.084 35.1496 246.188 32.4813C247.292 29.813 248.91 27.3886 250.951 25.3464C252.991 23.3043 255.413 21.6844 258.079 20.5793C260.745 19.4742 263.602 18.9055 266.487 18.9057H279.622C278.978 20.4926 278.732 22.2137 278.908 23.9177C279.084 25.6218 279.675 27.2565 280.63 28.6781C281.585 30.0997 282.874 31.2647 284.385 32.0705C285.895 32.8764 287.58 33.2984 289.291 33.2996H351.001C352.714 33.3012 354.401 32.8809 355.912 32.0758C357.424 31.2707 358.715 30.1056 359.67 28.6831C360.626 27.2607 361.217 25.6247 361.392 23.9196C361.566 22.2144 361.318 20.4925 360.671 18.9057H374.726C377.612 18.9047 380.47 19.4727 383.136 20.5774C385.803 21.6822 388.226 23.3019 390.267 25.3441C392.308 27.3863 393.927 29.8111 395.032 32.4797C396.137 35.1484 396.705 38.0088 396.705 40.8975Z" fill="white"/>
<path d="M363.036 185.77H267.898C266.231 185.768 264.634 185.105 263.455 183.925C262.277 182.746 261.614 181.147 261.612 179.479V176.348C261.614 174.68 262.277 173.081 263.455 171.901C264.634 170.722 266.231 170.058 267.898 170.056H363.036C364.703 170.058 366.3 170.722 367.479 171.901C368.657 173.081 369.32 174.68 369.322 176.348V179.479C369.32 181.147 368.657 182.746 367.479 183.925C366.3 185.105 364.703 185.768 363.036 185.77Z" fill="#F0F0F0"/>
<path d="M363.036 212.764H267.898C266.231 212.762 264.634 212.098 263.455 210.919C262.277 209.74 261.614 208.14 261.612 206.472V203.341C261.614 201.673 262.277 200.074 263.455 198.895C264.634 197.715 266.231 197.052 267.898 197.05H363.036C364.703 197.052 366.3 197.715 367.479 198.895C368.657 200.074 369.32 201.673 369.322 203.341V206.472C369.32 208.14 368.657 209.74 367.479 210.919C366.3 212.098 364.703 212.762 363.036 212.764Z" fill="#F0F0F0"/>
<path d="M367.795 179.733H272.657C270.907 179.731 269.23 179.034 267.992 177.796C266.755 176.558 266.059 174.879 266.057 173.127V169.996C266.059 168.245 266.755 166.566 267.992 165.327C269.23 164.089 270.907 163.392 272.657 163.39H367.795C369.545 163.392 371.223 164.089 372.46 165.327C373.697 166.566 374.393 168.245 374.395 169.996V173.127C374.393 174.879 373.697 176.558 372.46 177.796C371.223 179.034 369.545 179.731 367.795 179.733ZM272.657 164.648C271.24 164.65 269.882 165.214 268.881 166.216C267.879 167.219 267.316 168.578 267.314 169.996V173.127C267.316 174.545 267.879 175.904 268.881 176.907C269.882 177.909 271.24 178.473 272.657 178.475H367.795C369.212 178.473 370.57 177.909 371.571 176.907C372.573 175.904 373.136 174.545 373.138 173.127V169.996C373.136 168.578 372.573 167.219 371.571 166.216C370.57 165.214 369.212 164.65 367.795 164.648H272.657Z" fill="#3F3D56"/>
<path d="M367.795 206.727H272.657C270.907 206.725 269.23 206.028 267.992 204.79C266.755 203.551 266.059 201.872 266.057 200.121V196.989C266.059 195.238 266.755 193.559 267.992 192.321C269.23 191.082 270.907 190.386 272.657 190.384H367.795C369.545 190.386 371.223 191.082 372.46 192.321C373.697 193.559 374.393 195.238 374.395 196.989V200.121C374.393 201.872 373.697 203.551 372.46 204.79C371.223 206.028 369.545 206.725 367.795 206.727ZM272.657 191.642C271.24 191.644 269.882 192.207 268.881 193.21C267.879 194.212 267.316 195.572 267.314 196.989V200.121C267.316 201.539 267.879 202.898 268.881 203.9C269.882 204.903 271.24 205.467 272.657 205.468H367.795C369.212 205.467 370.57 204.903 371.571 203.9C372.573 202.898 373.136 201.539 373.138 200.121V196.989C373.136 195.572 372.573 194.212 371.571 193.21C370.57 192.207 369.212 191.644 367.795 191.642H272.657Z" fill="#3F3D56"/>
<path d="M396.705 40.8975V101.538C387.079 104.072 377 104.363 367.243 102.388C357.487 100.412 348.313 96.2225 340.428 90.1414C332.543 84.0604 326.157 76.2499 321.761 67.3109C317.365 58.3718 315.076 48.5425 315.07 38.5792C315.07 36.8008 315.142 35.0409 315.284 33.2996H351.002C352.714 33.3012 354.401 32.8809 355.913 32.0758C357.424 31.2707 358.715 30.1056 359.671 28.6831C360.626 27.2607 361.217 25.6247 361.392 23.9196C361.566 22.2144 361.319 20.4925 360.671 18.9057H374.726C377.612 18.9047 380.47 19.4727 383.137 20.5774C385.803 21.6822 388.226 23.3019 390.267 25.3441C392.309 27.3863 393.928 29.8111 395.032 32.4797C396.137 35.1484 396.705 38.0088 396.705 40.8975Z" fill="#F0F0F0"/>
<path d="M299.206 337.889C299.206 339.167 299.159 340.43 299.056 341.676H266.487C263.602 341.676 260.745 341.108 258.079 340.003C255.413 338.898 252.991 337.278 250.951 335.236C248.91 333.193 247.292 330.769 246.188 328.101C245.084 325.432 244.515 322.573 244.516 319.684V289.865C251.342 288.976 258.28 289.554 264.866 291.56C271.452 293.566 277.536 296.954 282.711 301.498C287.886 306.043 292.034 311.639 294.878 317.914C297.722 324.189 299.198 330.999 299.206 337.889Z" fill="#CB2A8A"/>
<path d="M36.5309 285.566C37.446 285.969 38.4835 285.992 39.4156 285.631C40.3477 285.269 41.0985 284.552 41.5032 283.637L70.8426 217.08C71.5141 215.557 71.7193 213.869 71.4322 212.229C71.1451 210.59 70.3786 209.072 69.2297 207.868C68.0807 206.664 66.6009 205.828 64.9774 205.466C63.354 205.105 61.6597 205.233 60.1089 205.834C58.3173 206.519 56.818 207.804 55.8662 209.471C55.7148 209.735 55.5775 210.006 55.4549 210.284L26.1155 276.841C25.9155 277.294 25.8067 277.783 25.7954 278.278C25.7841 278.774 25.8704 279.267 26.0494 279.729C26.2285 280.191 26.4967 280.614 26.8388 280.972C27.181 281.331 27.5903 281.618 28.0434 281.818L36.5309 285.566Z" fill="#CB2A8A"/>
<path d="M69.6381 244.405L40.6177 237.95L47.8005 218.93C49.0242 214.282 51.8718 210.226 55.827 207.499C59.7822 204.772 64.583 203.554 69.3585 204.066L69.6381 204.097L69.6381 244.405Z" fill="#2F2E41"/>
<path d="M128.255 286.518C127.402 286.517 126.567 286.268 125.851 285.802C125.136 285.335 124.571 284.672 124.225 283.891L94.8858 217.334C93.9527 215.217 93.8659 212.822 94.6434 210.642C95.4208 208.462 97.0033 206.663 99.0652 205.616C101.127 204.569 103.512 204.352 105.728 205.011C107.945 205.67 109.825 207.154 110.982 209.158C111.145 209.441 111.292 209.732 111.424 210.031L140.763 276.587C141.234 277.656 141.262 278.868 140.84 279.957C140.418 281.046 139.581 281.922 138.514 282.394L129.739 286.269L129.734 286.259C129.26 286.43 128.759 286.518 128.255 286.518Z" fill="#CB2A8A"/>
<path d="M87.6711 263.663C86.6713 263.664 85.7127 264.062 85.0057 264.77C84.2987 265.478 83.901 266.437 83.8999 267.438V344.828C83.901 345.828 84.2987 346.788 85.0057 347.496C85.7127 348.203 86.6713 348.601 87.6711 348.602H96.9479C97.9477 348.601 98.9063 348.203 99.6133 347.496C100.32 346.788 100.718 345.828 100.719 344.828V267.438C100.718 266.437 100.32 265.478 99.6133 264.77C98.9063 264.062 97.9477 263.664 96.9479 263.663H87.6711Z" fill="#CB2A8A"/>
<path d="M69.3225 263.663C68.3226 263.664 67.364 264.062 66.657 264.77C65.9501 265.478 65.5524 266.437 65.5513 267.438V344.828C65.5524 345.828 65.9501 346.788 66.657 347.496C67.364 348.203 68.3226 348.601 69.3225 348.602H78.5994C79.5992 348.601 80.5578 348.203 81.2648 347.496C81.9718 346.788 82.3695 345.828 82.3706 344.828V267.438C82.3695 266.437 81.9718 265.478 81.2648 264.77C80.5578 264.062 79.5992 263.664 78.5994 263.663H69.3225Z" fill="#CB2A8A"/>
<path d="M82.8583 182.584C100.562 182.584 114.913 168.219 114.913 150.499C114.913 132.779 100.562 118.414 82.8583 118.414C65.1548 118.414 50.8032 132.779 50.8032 150.499C50.8032 168.219 65.1548 182.584 82.8583 182.584Z" fill="#CB2A8A"/>
<path d="M93.5252 163.968C95.603 163.91 98.1891 163.838 100.181 162.381C100.775 161.93 101.262 161.354 101.609 160.694C101.957 160.034 102.156 159.306 102.193 158.561C102.229 158.031 102.142 157.5 101.939 157.01C101.736 156.52 101.423 156.083 101.023 155.734C99.9828 154.854 98.4634 154.647 96.8259 155.129L98.5225 142.719L97.2771 142.549L95.2826 157.138L96.3226 156.66C97.5283 156.107 99.1835 155.825 100.212 156.695C100.465 156.922 100.661 157.205 100.787 157.521C100.913 157.837 100.964 158.177 100.936 158.516C100.906 159.071 100.757 159.612 100.498 160.104C100.24 160.595 99.879 161.026 99.4398 161.365C97.8894 162.498 95.8281 162.645 93.4902 162.71L93.5252 163.968Z" fill="#2F2E41"/>
<path d="M111.452 143.79H104.682V145.048H111.452V143.79Z" fill="#2F2E41"/>
<path d="M90.0818 143.79H83.3115V145.048H90.0818V143.79Z" fill="#2F2E41"/>
<path d="M114.62 286.909L103.083 202.608C102.959 201.704 102.512 200.875 101.825 200.276C101.138 199.676 100.258 199.345 99.3461 199.346H90.6376C90.6738 199.138 90.6927 198.927 90.694 198.716V195.571C90.694 194.57 90.2967 193.61 89.5894 192.902C88.8822 192.194 87.923 191.796 86.9228 191.796H79.3805C78.3803 191.796 77.4211 192.194 76.7139 192.902C76.0066 193.61 75.6093 194.57 75.6093 195.571V198.716C75.6106 198.927 75.6295 199.138 75.6658 199.346H66.9572C66.0456 199.346 65.1649 199.676 64.478 200.276C63.7911 200.875 63.3444 201.704 63.2207 202.608L51.6833 286.909C51.6102 287.443 51.6523 287.986 51.8066 288.503C51.9608 289.019 52.2238 289.497 52.5778 289.903C52.9317 290.309 53.3685 290.634 53.8587 290.858C54.3489 291.081 54.8811 291.196 55.4195 291.196H110.884C111.422 291.196 111.954 291.081 112.445 290.858C112.935 290.634 113.372 290.309 113.726 289.903C114.079 289.497 114.342 289.019 114.497 288.503C114.651 287.987 114.693 287.443 114.62 286.909Z" fill="#2F2E41"/>
<path d="M96.665 244.405V204.097L96.9446 204.066C101.726 203.554 106.532 204.776 110.49 207.51C114.448 210.243 117.294 214.307 118.513 218.963L125.685 237.95L96.665 244.405Z" fill="#2F2E41"/>
<path d="M81.2439 183.585L59.0722 174.971C55.4467 173.563 51.8009 172.197 48.1945 170.74C46.6497 170.201 45.2267 169.362 44.0075 168.27C42.9461 167.145 42.2226 165.744 41.9201 164.227C41.1511 160.973 41.2902 157.417 41.345 154.096C41.3876 150.464 41.6862 146.84 42.2386 143.25C43.2069 136.504 45.4807 130.012 48.9327 124.137C55.1505 113.926 65.8635 106.243 78.1863 106.856C83.8913 107.14 89.6291 109.189 93.8678 113.093C94.3099 113.622 94.806 114.103 95.348 114.529C95.7247 114.671 96.1347 114.698 96.5269 114.608C97.0442 114.575 97.5618 114.55 98.0799 114.532C99.8777 114.456 101.679 114.532 103.464 114.758C106.717 115.11 109.8 116.391 112.345 118.449C114.463 120.273 116.187 122.848 116.364 125.709C116.45 127.023 116.233 128.338 115.73 129.555C115.227 130.771 114.452 131.855 113.464 132.724C110.819 134.956 107.045 134.171 103.872 134.003L92.2478 133.387L86.3583 133.074C85.1457 133.01 85.1492 134.898 86.3583 134.962L102.012 135.792C104.527 135.925 107.12 136.252 109.637 136.101C111.572 136.014 113.419 135.27 114.875 133.992C116.205 132.769 117.196 131.223 117.75 129.502C118.305 127.782 118.405 125.948 118.041 124.177C117.234 120.316 114.363 117.122 110.997 115.222C106.418 112.636 100.948 112.389 95.8238 112.771L96.4905 113.047C90.694 106.82 81.8152 104.191 73.4798 105.111C64.6789 106.082 56.8513 110.997 51.2272 117.717C44.9567 125.209 41.5397 134.552 40.2113 144.158C39.52 149.345 39.2924 154.583 39.5312 159.811C39.5214 162.116 39.9154 164.405 40.6954 166.574C41.5854 168.685 43.1945 170.412 45.2366 171.447C47.5779 172.579 49.9848 173.568 52.4445 174.411L60.6131 177.585L76.6584 183.818L80.7427 185.405C81.8746 185.845 82.3649 184.021 81.2439 183.585Z" fill="#2F2E41"/>
<path d="M46.3829 119.448C44.456 119.448 42.5725 118.876 40.9704 117.805C39.3683 116.733 38.1196 115.21 37.3822 113.429C36.6449 111.647 36.4519 109.686 36.8278 107.795C37.2037 105.903 38.1316 104.165 39.4941 102.802C40.8565 101.438 42.5924 100.509 44.4823 100.133C46.3721 99.7567 48.3309 99.9498 50.111 100.688C51.8912 101.426 53.4127 102.676 54.4832 104.279C55.5537 105.883 56.1251 107.768 56.1251 109.697C56.1222 112.282 55.0948 114.761 53.2685 116.589C51.4421 118.417 48.9658 119.445 46.3829 119.448ZM46.3829 101.833C44.829 101.833 43.31 102.294 42.0179 103.158C40.7259 104.022 39.7189 105.251 39.1243 106.687C38.5296 108.124 38.374 109.706 38.6772 111.231C38.9803 112.757 39.7286 114.158 40.8274 115.258C41.9262 116.357 43.3261 117.106 44.8501 117.41C46.3741 117.713 47.9539 117.557 49.3895 116.962C50.8251 116.367 52.0521 115.359 52.9154 114.066C53.7787 112.773 54.2395 111.252 54.2395 109.697C54.2372 107.612 53.4087 105.613 51.9358 104.139C50.4629 102.665 48.4659 101.835 46.3829 101.833Z" fill="#2F2E41"/>
<path d="M209.237 179.878L188.151 163.735L172.023 184.841L193.11 200.984L209.237 179.878Z" fill="#F0F0F0"/>
<path d="M90.0655 35.7761C93.3972 35.7734 96.6833 36.5517 99.6604 38.0486C102.638 39.5455 105.223 41.7194 107.21 44.3963L119.523 28.2823L82.5787 0L54.3228 36.9786L70.2456 49.1683C71.8391 45.2127 74.5774 41.8242 78.1091 39.4378C81.6408 37.0515 85.8045 35.7763 90.0655 35.7761Z" fill="#F0F0F0"/>
<path d="M444.371 349.704H0.628531C0.461834 349.704 0.301964 349.637 0.184092 349.519C0.0662196 349.401 0 349.241 0 349.075C0 348.908 0.0662196 348.748 0.184092 348.63C0.301964 348.512 0.461834 348.445 0.628531 348.445H444.371C444.538 348.445 444.698 348.512 444.816 348.63C444.934 348.748 445 348.908 445 349.075C445 349.241 444.934 349.401 444.816 349.519C444.698 349.637 444.538 349.704 444.371 349.704Z" fill="#3F3D56"/>
<path d="M336.068 245.314H290.9C289.234 245.313 287.636 244.649 286.458 243.47C285.279 242.29 284.617 240.691 284.615 239.023V235.892C284.617 234.224 285.279 232.625 286.458 231.445C287.636 230.266 289.234 229.603 290.9 229.601H336.068C337.734 229.603 339.332 230.266 340.51 231.445C341.688 232.625 342.351 234.224 342.353 235.892V239.023C342.351 240.691 341.688 242.29 340.51 243.47C339.332 244.649 337.734 245.313 336.068 245.314Z" fill="#CB2A8A"/>
<path d="M340.827 239.278H295.659C293.909 239.276 292.232 238.579 290.995 237.341C289.757 236.102 289.062 234.423 289.06 232.672V229.541C289.062 227.789 289.757 226.11 290.995 224.872C292.232 223.633 293.909 222.937 295.659 222.935H340.827C342.577 222.937 344.254 223.633 345.491 224.872C346.728 226.11 347.424 227.789 347.426 229.541V232.672C347.424 234.423 346.728 236.102 345.491 237.341C344.254 238.579 342.577 239.276 340.827 239.278ZM295.659 224.193C294.243 224.195 292.885 224.759 291.883 225.761C290.882 226.764 290.318 228.123 290.317 229.541V232.672C290.318 234.09 290.882 235.449 291.883 236.451C292.885 237.454 294.243 238.018 295.659 238.019H340.827C342.243 238.018 343.601 237.454 344.603 236.451C345.604 235.449 346.168 234.09 346.169 232.672V229.541C346.168 228.123 345.604 226.764 344.603 225.761C343.601 224.759 342.243 224.195 340.827 224.193H295.659Z" fill="#3F3D56"/>
</g>
<defs>
<clipPath id="clip0_108_690">
<rect width="445" height="349.704" fill="white"/>
</clipPath>
</defs>
</svg>
