<svg width="445" height="334" viewBox="0 0 445 334" fill="none" xmlns="http://www.w3.org/2000/svg">
<g clip-path="url(#clip0_249_1342)">
<path d="M445 332.38C445 332.913 444.572 333.342 444.038 333.342H0.961769C0.428351 333.342 0 332.913 0 332.38C0 331.847 0.428351 331.418 0.961769 331.418H444.038C444.572 331.418 445 331.847 445 332.38Z" fill="#2E2E43"/>
<path d="M352.912 68.5235H92.1972C88.5938 68.5235 85.6621 65.5919 85.6621 61.9884V41.9023C85.6621 38.2988 88.5938 35.3672 92.1972 35.3672H352.912C356.515 35.3672 359.447 38.2988 359.447 41.9023V61.9884C359.447 65.5919 356.515 68.5235 352.912 68.5235Z" fill="white" stroke="#BAB7C9" stroke-width="2" stroke-linecap="round" stroke-linejoin="round"/>
<path d="M352.912 192.346H92.1972C88.5938 192.346 85.6621 189.414 85.6621 185.811V165.725C85.6621 162.121 88.5938 159.189 92.1972 159.189H352.912C356.515 159.189 359.447 162.121 359.447 165.725V185.811C359.447 189.414 356.515 192.346 352.912 192.346Z" fill="white" stroke="#BAB7C9" stroke-width="2" stroke-linecap="round" stroke-linejoin="round"/>
<path d="M167.832 281.249H91.3886C87.7852 281.249 84.8535 278.317 84.8535 274.714V254.628C84.8535 251.024 87.7852 248.093 91.3886 248.093H167.832C171.435 248.093 174.367 251.024 174.367 254.628V274.714C174.367 278.317 171.435 281.249 167.832 281.249Z" fill="#CB2A8A"/>
<path d="M86.2344 0.808228H143.415" stroke="#BAB7C9" stroke-width="2" stroke-linecap="round" stroke-linejoin="round"/>
<path d="M86.2344 124.63H192.453" stroke="#BAB7C9" stroke-width="2" stroke-linecap="round" stroke-linejoin="round"/>
<path d="M321.37 296.808L312.378 302.556L320.532 315.31L329.523 309.562L321.37 296.808Z" fill="#F1A1A4"/>
<path d="M292.853 125.355L281.494 129.234L281.316 112.832L291.652 112.717L292.853 125.355Z" fill="#F1A1A4"/>
<path d="M282.642 117.361C288.915 117.361 294.001 112.276 294.001 106.003C294.001 99.7295 288.915 94.644 282.642 94.644C276.369 94.644 271.284 99.7295 271.284 106.003C271.284 112.276 276.369 117.361 282.642 117.361Z" fill="#F1A1A4"/>
<path d="M285.75 104.844C283.853 104.808 282.579 102.905 281.819 101.154C281.059 99.4139 280.278 97.4011 278.512 96.6935C277.065 96.1169 274.57 100.142 273.417 99.0942C272.216 97.9987 273.312 92.2748 274.565 91.2422C275.817 90.2096 277.537 89.9895 279.151 89.8899C283.108 89.6645 287.087 89.937 290.976 90.7076C293.377 91.1793 295.861 91.9079 297.607 93.6219C299.824 95.7972 300.422 99.1099 300.61 102.208C300.809 105.379 300.657 108.702 299.148 111.501C297.633 114.295 294.43 116.376 291.322 115.705C290.992 114.022 291.285 112.298 291.39 110.579C291.495 108.87 291.343 107.025 290.284 105.672C289.225 104.32 286.993 103.806 285.792 105.028" fill="#2F2E43"/>
<path d="M299.766 108.623C300.893 107.78 302.24 107.067 303.64 107.224C305.155 107.386 306.444 108.623 306.848 110.091C307.251 111.559 306.832 113.184 305.915 114.4C304.997 115.616 303.619 116.423 302.151 116.837C301.302 117.078 300.374 117.178 299.557 116.837C298.356 116.334 297.696 114.819 298.152 113.598" fill="#2F2E43"/>
<path d="M257.498 215.93C256.785 219.667 258.206 223.064 260.68 223.51C263.148 223.955 265.733 221.282 266.451 217.545C266.76 216.056 266.692 214.515 266.252 213.053L274.989 154.472L263.217 152.396L259.343 211.816C258.394 213.032 257.76 214.442 257.498 215.946L257.498 215.93Z" fill="#F1A1A4"/>
<path d="M281.284 121.707L273.265 121.796C267.604 122.713 266.099 125.758 264.878 131.356C263.007 139.895 260.617 151.275 261.12 151.432C261.922 151.694 275.639 157.963 282.584 156.411L281.29 121.707L281.284 121.707Z" fill="#CB2A8A"/>
<path d="M291.134 307.896L280.463 308.015L280.632 323.152L291.303 323.033L291.134 307.896Z" fill="#F1A1A4"/>
<path d="M270.314 332.436C269.187 332.452 268.196 332.436 267.441 332.373C264.6 332.148 261.88 330.082 260.501 328.877C259.883 328.337 259.678 327.456 259.988 326.702C260.208 326.162 260.659 325.748 261.225 325.575L268.694 323.352L280.734 315.034L280.87 315.275C280.923 315.364 282.139 317.497 282.553 318.944C282.71 319.494 282.679 319.95 282.448 320.307C282.291 320.553 282.071 320.7 281.892 320.789C282.113 321.014 282.805 321.476 284.933 321.79C288.025 322.251 288.649 319.033 288.67 318.897L288.691 318.787L288.78 318.724C290.242 317.754 291.139 317.319 291.453 317.408C291.652 317.461 291.972 317.56 292.947 326.282C293.036 326.555 293.676 328.557 293.277 330.486C292.848 332.583 283.701 331.959 281.877 331.817C281.824 331.823 274.989 332.389 270.303 332.436H270.319L270.314 332.436Z" fill="#2F2E43"/>
<path d="M309.715 329.92C308.462 329.936 307.309 329.794 306.486 329.658C305.679 329.522 305.039 328.887 304.903 328.08C304.798 327.498 304.971 326.916 305.354 326.476L310.512 320.637L316.319 307.208L316.566 307.339C316.655 307.386 318.814 308.555 319.936 309.561C320.361 309.944 320.576 310.348 320.576 310.777C320.576 311.071 320.466 311.312 320.355 311.475C320.665 311.548 321.493 311.569 323.464 310.715C326.331 309.467 325.157 306.406 325.104 306.285L325.062 306.181L325.11 306.086C325.838 304.493 326.373 303.644 326.682 303.549C326.881 303.497 327.201 303.397 332.647 310.285C332.867 310.468 334.471 311.826 335.153 313.671C335.892 315.678 327.814 319.987 326.179 320.831C326.132 320.873 317.688 327.147 314.218 328.945C312.839 329.658 311.198 329.894 309.705 329.904L309.72 329.92L309.715 329.92Z" fill="#2F2E43"/>
<path d="M297.565 181.189L267.688 181.519L265.287 209.341L278.292 311.91L293.545 311.737L286.788 252.491L312.126 305.772L325.576 296.127L305.7 246.342C305.7 246.342 312.121 202.711 306.575 191.923C301.035 181.136 297.57 181.173 297.57 181.173V181.189L297.565 181.189Z" fill="#2F2E43"/>
<path d="M312.441 182.719L264.988 183.249L278.543 121.743L299.221 121.507L312.441 182.719Z" fill="#CB2A8A"/>
<path d="M317.074 215.27C317.871 218.997 316.524 222.419 314.066 222.917C311.602 223.42 308.96 220.805 308.169 217.078C307.828 215.595 307.86 214.054 308.263 212.581L298.22 154.205L309.941 151.867L315.135 211.192C316.11 212.387 316.776 213.786 317.074 215.28V215.27Z" fill="#F1A1A4"/>
<path d="M291.207 121.597L299.227 121.507C304.903 122.304 306.476 125.313 307.828 130.885C309.888 139.381 312.525 150.698 312.032 150.871C311.23 151.144 297.665 157.717 290.688 156.322L291.217 121.597L291.207 121.597Z" fill="#CB2A8A"/>
</g>
<defs>
<clipPath id="clip0_249_1342">
<rect width="445" height="333.342" fill="white"/>
</clipPath>
</defs>
</svg>
