<svg width="29" height="28" viewBox="0 0 29 28" fill="none" xmlns="http://www.w3.org/2000/svg">
<g clip-path="url(#clip0_1110_7324)">
<path d="M13.7193 1.28326L15.7741 2.03197L8.91452 20.858L6.85974 20.1093C6.5922 20.0118 6.4543 19.7158 6.55181 19.4483L13.0583 1.59119C13.1558 1.32365 13.4517 1.18575 13.7193 1.28326Z" fill="#D6D6D4"/>
<path d="M15.7736 2.03223L27.5663 6.32903C28.4344 6.64533 28.8817 7.60547 28.5654 8.47351L22.8513 24.156C22.535 25.0241 21.5748 25.4714 20.7068 25.1551L8.91406 20.8583L15.7736 2.03223Z" fill="#338FD8"/>
<path d="M17.5364 6.67513L24.8007 9.32195C25.2627 9.49028 25.5008 10.0013 25.3324 10.4634L23.7924 14.6901C23.624 15.1522 23.113 15.3903 22.6509 15.2219L15.3866 12.5751C14.9246 12.4067 14.6865 11.8957 14.8548 11.4336L16.3949 7.2069C16.5633 6.7449 17.0743 6.50679 17.5364 6.67513Z" fill="#D6D6D4"/>
<path d="M21.5763 10.8919C21.5264 10.8919 21.4769 10.8831 21.43 10.8661L19.1243 10.026C18.903 9.94519 18.7889 9.70022 18.8697 9.47883C18.9505 9.25744 19.1955 9.14342 19.4169 9.22421L21.7226 10.0643C21.944 10.1451 22.058 10.39 21.9772 10.6114C21.9158 10.7798 21.7556 10.8919 21.5763 10.8919Z" fill="#707070"/>
<path d="M21.5438 12.9273C21.4939 12.9273 21.4444 12.9185 21.3975 12.9015L17.8392 11.6051C17.6178 11.5243 17.5038 11.2793 17.5846 11.0579C17.6653 10.8365 17.9103 10.7225 18.1317 10.8033L21.6901 12.0997C21.9114 12.1805 22.0255 12.4254 21.9447 12.6468C21.8833 12.8152 21.7231 12.9273 21.5438 12.9273Z" fill="#707070"/>
<path d="M1.1826 6.71191H3.36952V26.7487H1.1826C0.897842 26.7487 0.666992 26.5179 0.666992 26.2331V7.22752C0.666992 6.94276 0.897842 6.71191 1.1826 6.71191Z" fill="#D6D6D4"/>
<path d="M3.36914 6.71191H15.9203C16.8442 6.71191 17.5932 7.46088 17.5932 8.38478V25.0758C17.5932 25.9997 16.8442 26.7487 15.9203 26.7487H3.36914V6.71191Z" fill="#FEB431"/>
<path d="M6.616 10.4707H14.3474C14.8392 10.4707 15.2378 10.8694 15.2378 11.3611V15.8596C15.2378 16.3514 14.8392 16.7501 14.3474 16.7501H6.616C6.12422 16.7501 5.72559 16.3514 5.72559 15.8596V11.3611C5.72559 10.8693 6.12422 10.4707 6.616 10.4707Z" fill="#D6D6D4"/>
<path d="M11.7085 13.0751H9.25484C9.01918 13.0751 8.82812 12.884 8.82812 12.6484C8.82812 12.4127 9.01918 12.2217 9.25484 12.2217H11.7085C11.9442 12.2217 12.1352 12.4127 12.1352 12.6484C12.1352 12.884 11.9442 13.0751 11.7085 13.0751Z" fill="#707070"/>
<path d="M12.375 14.9989H8.58785C8.35219 14.9989 8.16113 14.8079 8.16113 14.5722C8.16113 14.3366 8.35219 14.1455 8.58785 14.1455H12.375C12.6107 14.1455 12.8017 14.3366 12.8017 14.5722C12.8017 14.8079 12.6107 14.9989 12.375 14.9989Z" fill="#707070"/>
</g>
<defs>
<clipPath id="clip0_1110_7324">
<rect width="28" height="28" fill="white" transform="translate(0.666992)"/>
</clipPath>
</defs>
</svg>
