<svg width="28" height="28" viewBox="0 0 28 28" fill="none" xmlns="http://www.w3.org/2000/svg">
<g clip-path="url(#clip0_1110_8990)">
<path fill-rule="evenodd" clip-rule="evenodd" d="M27.35 16.6991H25.7592C25.456 16.6991 25.2119 16.455 25.2119 16.1518V14.0688C25.2119 13.7656 25.456 13.5215 25.7592 13.5215H27.35C27.6532 13.5215 27.8973 13.7656 27.8973 14.0688V16.1518C27.8973 16.455 27.6532 16.6991 27.35 16.6991Z" fill="#C24441"/>
<path fill-rule="evenodd" clip-rule="evenodd" d="M22.8971 28.0004H0.645922C0.346668 28.0004 0.102539 27.7563 0.102539 27.4571V23.1848C0.102539 20.527 2.26426 18.3652 4.92211 18.3652H6.96177H16.6639H18.6248C21.2787 18.3652 23.4405 20.527 23.4405 23.1848V27.4571C23.4405 27.7563 23.1963 28.0004 22.8971 28.0004Z" fill="#EF5350"/>
<path fill-rule="evenodd" clip-rule="evenodd" d="M6.66285 18.3652H6.9621H16.6643H16.8808C16.9163 18.7275 16.8099 19.1016 16.5619 19.3929L12.8881 23.6652C12.6361 23.9605 12.2739 24.1298 11.888 24.1377C11.8801 24.1377 11.8683 24.1377 11.8604 24.1377C11.4745 24.1377 11.1084 23.9763 10.8485 23.6888L7.00541 19.4166C6.73766 19.1212 6.62347 18.7354 6.66285 18.3652Z" fill="#C24441"/>
<path fill-rule="evenodd" clip-rule="evenodd" d="M5.43833 28.0005H4.35156V23.3188C4.35156 23.0195 4.59569 22.7754 4.89495 22.7754C5.1942 22.7754 5.43833 23.0195 5.43833 23.3188V28.0005Z" fill="#C24441"/>
<path fill-rule="evenodd" clip-rule="evenodd" d="M19.1922 28.0005H18.1055V23.3188C18.1055 23.0195 18.3496 22.7754 18.6489 22.7754C18.9481 22.7754 19.1922 23.0195 19.1922 23.3188V28.0005Z" fill="#C24441"/>
<path fill-rule="evenodd" clip-rule="evenodd" d="M14.5136 14.7738C14.809 14.7502 15.0728 14.9707 15.0964 15.2699C15.1397 15.7542 15.3208 17.4001 15.9469 18.164C16.1162 18.3648 16.1123 18.6601 15.943 18.861L12.2692 23.1372C12.1668 23.2553 12.0212 23.3222 11.8637 23.3262H11.8597C11.7022 23.3262 11.5565 23.2592 11.4542 23.145L7.60715 18.8688C7.42996 18.672 7.42209 18.3688 7.59534 18.164C8.22535 17.4001 8.40648 15.7542 8.44585 15.266C8.46948 14.9707 8.7333 14.7462 9.03255 14.7738C9.32787 14.7974 14.5136 14.7738 14.5136 14.7738Z" fill="#FFB08C"/>
<path fill-rule="evenodd" clip-rule="evenodd" d="M14.5143 14.7738C14.8096 14.7502 15.0734 14.9707 15.097 15.2699C15.1167 15.4747 15.1561 15.8842 15.2467 16.3449C14.9435 16.5417 14.6167 16.7189 14.2702 16.8804C13.9788 17.0142 13.6913 17.156 13.4039 17.2978C12.9078 17.5419 12.3408 17.8293 11.7737 17.8293C11.2107 17.8293 10.6437 17.5419 10.1436 17.2978C9.85615 17.156 9.56871 17.0142 9.27733 16.8804C8.93082 16.7189 8.604 16.5378 8.29688 16.337C8.38744 15.8763 8.42681 15.4707 8.4465 15.266C8.47013 14.9707 8.73394 14.7462 9.0332 14.7738C9.32852 14.7974 14.5143 14.7738 14.5143 14.7738Z" fill="#FF9E7E"/>
<path fill-rule="evenodd" clip-rule="evenodd" d="M11.773 17.2894C11.4029 17.2894 11.0328 17.128 10.3831 16.8091C10.1507 16.6949 9.85936 16.5531 9.50498 16.3877C6.1738 14.8442 6.08324 11.9855 6.00055 9.21744C5.99661 9.06387 5.98874 8.91031 5.9848 8.75674C5.97299 8.45749 6.20924 8.20548 6.5085 8.19761C6.76444 8.1858 7.46139 7.94561 7.68976 7.48097C11.0958 0.621742 16.443 2.82284 17.2108 8.19761C17.51 8.20548 17.7463 8.45749 17.7345 8.75674V8.79612C17.636 11.7335 17.5297 14.7733 14.041 16.3877C13.6867 16.5531 13.3992 16.6949 13.163 16.8091C12.5133 17.128 12.1431 17.2894 11.773 17.2894Z" fill="#FFC39C"/>
<path fill-rule="evenodd" clip-rule="evenodd" d="M17.3964 9.13514C17.3019 9.13514 17.2074 9.11152 17.1247 9.06033C14.8488 7.74518 13.3919 6.63873 12.7658 5.8709C12.3957 6.29616 11.9271 6.49304 11.6042 6.5836C11.2696 7.47743 10.356 8.19406 8.88339 8.71776C7.72968 9.12727 6.44998 9.26114 6.40666 9.26902C6.16254 9.30052 5.92628 9.1627 5.83572 8.93433C4.74895 6.28041 6.05228 3.31149 6.09953 3.18942C6.13497 3.09492 6.19404 3.01617 6.27279 2.95317C6.54842 2.7366 6.96974 2.59485 7.35955 2.50035C7.14299 2.20897 6.97367 1.97272 6.95792 1.95697C6.8713 1.8349 6.8398 1.68134 6.86736 1.53565C6.89492 1.38996 6.98155 1.26002 7.10755 1.18127C8.32032 0.409506 9.71815 0 11.1475 0C13.321 0 15.3686 0.960765 16.6286 2.56729C17.928 4.225 18.5147 6.31585 17.9201 8.7217C17.8807 8.88708 17.7626 9.02489 17.609 9.09183C17.5382 9.11939 17.4673 9.13514 17.3964 9.13514Z" fill="#B07F5F"/>
<path fill-rule="evenodd" clip-rule="evenodd" d="M13.0803 14.3368H10.2885C9.98534 14.3368 9.74121 14.0927 9.74121 13.7895C9.74121 13.4863 9.98534 13.2422 10.2885 13.2422H13.0803C13.3835 13.2422 13.6276 13.4863 13.6276 13.7895C13.6276 14.0927 13.3835 14.3368 13.0803 14.3368Z" fill="#FF8E71"/>
<path fill-rule="evenodd" clip-rule="evenodd" d="M25.7595 17.621H18.1128C17.8096 17.621 17.5654 17.3768 17.5654 17.0737V13.1479C17.5654 12.8447 17.8096 12.6006 18.1128 12.6006H25.7595C26.0627 12.6006 26.3068 12.8447 26.3068 13.1479V17.0737C26.3068 17.3768 26.0627 17.621 25.7595 17.621Z" fill="#EF5350"/>
<path fill-rule="evenodd" clip-rule="evenodd" d="M13.6201 9.8916C13.4901 9.61991 13.1633 9.50572 12.8916 9.63566C12.6199 9.7656 12.5057 10.0924 12.6357 10.3641C12.6357 10.3641 13.1554 11.4942 14.7698 11.1752C15.0651 11.1201 15.2581 10.8327 15.199 10.5334C15.1439 10.2381 14.8564 10.0452 14.5611 10.1042C13.7815 10.2578 13.6201 9.89554 13.6201 9.8916Z" fill="#FF8E71"/>
<path fill-rule="evenodd" clip-rule="evenodd" d="M10.907 10.3641C11.0369 10.0924 10.9227 9.7656 10.6511 9.63566C10.3794 9.50572 10.0525 9.61991 9.92261 9.8916C9.92261 9.89554 9.76117 10.2578 8.98153 10.1042C8.68621 10.0452 8.39877 10.2381 8.34364 10.5334C8.28458 10.8327 8.47752 11.1201 8.77284 11.1752C10.3872 11.4942 10.907 10.3641 10.907 10.3641Z" fill="#FF8E71"/>
<path fill-rule="evenodd" clip-rule="evenodd" d="M18.6562 16.5264H25.2123V13.6953H18.6562V16.5264Z" fill="#F5F5F5"/>
<path fill-rule="evenodd" clip-rule="evenodd" d="M19.6206 16.1602C19.3213 16.1602 19.0732 15.9121 19.0732 15.6129V14.6128C19.0732 14.3096 19.3213 14.0654 19.6206 14.0654C19.9238 14.0654 20.1679 14.3096 20.1679 14.6128V15.6129C20.1679 15.9161 19.9238 16.1602 19.6206 16.1602Z" fill="#C24441"/>
</g>
<defs>
<clipPath id="clip0_1110_8990">
<rect width="28" height="28" fill="white"/>
</clipPath>
</defs>
</svg>
