<svg width="24" height="24" viewBox="0 0 24 24" fill="none" xmlns="http://www.w3.org/2000/svg">
<g clip-path="url(#clip0_1110_7286)">
<path d="M22.7802 18.1016H5.2887C4.61472 18.1016 4.06836 18.6479 4.06836 19.3219V22.5761C4.06836 23.2501 4.61472 23.7965 5.2887 23.7965H22.7802C23.4542 23.7965 24.0006 23.2501 24.0006 22.5761V19.3219C24.0006 18.6479 23.4542 18.1016 22.7802 18.1016Z" fill="#24AE5F"/>
<path d="M22.7802 10.7793H5.2887C4.61472 10.7793 4.06836 11.3257 4.06836 11.9996V15.2539C4.06836 15.9278 4.61472 16.4742 5.2887 16.4742H22.7802C23.4542 16.4742 24.0006 15.9278 24.0006 15.2539V11.9996C24.0006 11.3257 23.4542 10.7793 22.7802 10.7793Z" fill="#F0C419"/>
<path d="M22.7802 3.45703H5.2887C4.61472 3.45703 4.06836 4.0034 4.06836 4.67737V7.93161C4.06836 8.60558 4.61472 9.15195 5.2887 9.15195H22.7802C23.4542 9.15195 24.0006 8.60558 24.0006 7.93161V4.67737C24.0006 4.0034 23.4542 3.45703 22.7802 3.45703Z" fill="#FF5364"/>
<path d="M6.71173 19.9163L7.92231 20.5887C8.05314 20.6612 8.13431 20.7991 8.13431 20.9487C8.13431 21.0983 8.05314 21.2361 7.92231 21.3087L6.71173 21.9811C6.5843 22.0512 6.42932 22.0489 6.30404 21.975C6.17876 21.9011 6.10179 21.7665 6.10156 21.6211V20.2763C6.10179 20.1308 6.17876 19.9963 6.30404 19.9223C6.42932 19.8484 6.5843 19.8461 6.71173 19.9163Z" fill="white"/>
<path d="M6.71173 12.594L7.92231 13.2664C8.05314 13.339 8.13431 13.4768 8.13431 13.6264C8.13431 13.776 8.05314 13.9138 7.92231 13.9864L6.71173 14.6588C6.5843 14.7289 6.42932 14.7266 6.30404 14.6527C6.17876 14.5788 6.10179 14.4443 6.10156 14.2988V12.954C6.10179 12.8085 6.17876 12.674 6.30404 12.6001C6.42932 12.5262 6.5843 12.5239 6.71173 12.594Z" fill="white"/>
<path d="M6.71173 5.2727L7.92231 5.94511C8.05314 6.01767 8.13431 6.1555 8.13431 6.30511C8.13431 6.45472 8.05314 6.59255 7.92231 6.66511L6.71173 7.33752C6.5843 7.40766 6.42932 7.40535 6.30404 7.33143C6.17876 7.25752 6.10179 7.12298 6.10156 6.97752V5.6327C6.10179 5.48725 6.17876 5.3527 6.30404 5.27879C6.42932 5.20488 6.5843 5.20256 6.71173 5.2727Z" fill="white"/>
<path d="M22.7797 0.203125H5.28817C4.83885 0.203125 4.47461 0.567368 4.47461 1.01668C4.47461 1.466 4.83885 1.83024 5.28817 1.83024H22.7797C23.229 1.83024 23.5933 1.466 23.5933 1.01668C23.5933 0.567368 23.229 0.203125 22.7797 0.203125Z" fill="#3F5C6C"/>
<path d="M21.153 5.89852H15.0513C14.8267 5.89852 14.6445 5.7164 14.6445 5.49174C14.6445 5.26708 14.8267 5.08496 15.0513 5.08496H21.153C21.3777 5.08496 21.5598 5.26708 21.5598 5.49174C21.5598 5.7164 21.3777 5.89852 21.153 5.89852Z" fill="white"/>
<path d="M13.4242 5.89852H10.5767C10.352 5.89852 10.1699 5.7164 10.1699 5.49174C10.1699 5.26708 10.352 5.08496 10.5767 5.08496H13.4242C13.6488 5.08496 13.8309 5.26708 13.8309 5.49174C13.8309 5.7164 13.6488 5.89852 13.4242 5.89852Z" fill="white"/>
<path d="M17.492 7.52547H10.5767C10.352 7.52547 10.1699 7.34335 10.1699 7.11869C10.1699 6.89404 10.352 6.71191 10.5767 6.71191H17.492C17.7166 6.71191 17.8987 6.89404 17.8987 7.11869C17.8987 7.34335 17.7166 7.52547 17.492 7.52547Z" fill="white"/>
<path d="M21.153 13.2208H15.0513C14.8267 13.2208 14.6445 13.0387 14.6445 12.814C14.6445 12.5893 14.8267 12.4072 15.0513 12.4072H21.153C21.3777 12.4072 21.5598 12.5893 21.5598 12.814C21.5598 13.0387 21.3777 13.2208 21.153 13.2208Z" fill="white"/>
<path d="M13.4242 13.2208H10.5767C10.352 13.2208 10.1699 13.0387 10.1699 12.814C10.1699 12.5893 10.352 12.4072 10.5767 12.4072H13.4242C13.6488 12.4072 13.8309 12.5893 13.8309 12.814C13.8309 13.0387 13.6488 13.2208 13.4242 13.2208Z" fill="white"/>
<path d="M17.492 14.8477H10.5767C10.352 14.8477 10.1699 14.6656 10.1699 14.441C10.1699 14.2163 10.352 14.0342 10.5767 14.0342H17.492C17.7166 14.0342 17.8987 14.2163 17.8987 14.441C17.8987 14.6656 17.7166 14.8477 17.492 14.8477Z" fill="white"/>
<path d="M21.153 20.5431H15.0513C14.8267 20.5431 14.6445 20.3609 14.6445 20.1363C14.6445 19.9116 14.8267 19.7295 15.0513 19.7295H21.153C21.3777 19.7295 21.5598 19.9116 21.5598 20.1363C21.5598 20.3609 21.3777 20.5431 21.153 20.5431Z" fill="white"/>
<path d="M13.4242 20.5431H10.5767C10.352 20.5431 10.1699 20.3609 10.1699 20.1363C10.1699 19.9116 10.352 19.7295 10.5767 19.7295H13.4242C13.6488 19.7295 13.8309 19.9116 13.8309 20.1363C13.8309 20.3609 13.6488 20.5431 13.4242 20.5431Z" fill="white"/>
<path d="M17.492 22.17H10.5767C10.352 22.17 10.1699 21.9879 10.1699 21.7632C10.1699 21.5386 10.352 21.3564 10.5767 21.3564H17.492C17.7166 21.3564 17.8987 21.5386 17.8987 21.7632C17.8987 21.9879 17.7166 22.17 17.492 22.17Z" fill="white"/>
<path d="M1.22034 18.915H0.40678C0.182121 18.915 0 19.0972 0 19.3218C0 19.5465 0.182121 19.7286 0.40678 19.7286H1.22034C1.445 19.7286 1.62712 19.9107 1.62712 20.1354C1.62712 20.36 1.445 20.5422 1.22034 20.5422C0.995681 20.5422 0.813559 20.7243 0.813559 20.9489C0.813559 21.1736 0.995681 21.3557 1.22034 21.3557C1.445 21.3557 1.62712 21.5378 1.62712 21.7625C1.62712 21.9872 1.445 22.1693 1.22034 22.1693H0.40678C0.182121 22.1693 0 22.3514 0 22.5761C0 22.8007 0.182121 22.9828 0.40678 22.9828H1.22034C1.70143 22.9825 2.13743 22.6996 2.33368 22.2603C2.52993 21.8211 2.44981 21.3075 2.12908 20.9489C2.44981 20.5904 2.52993 20.0768 2.33368 19.6376C2.13743 19.1983 1.70143 18.9154 1.22034 18.915Z" fill="#3F5C6C"/>
<path d="M0.40678 7.52565C0.182121 7.52565 0 7.70777 0 7.93243C0 8.15708 0.182121 8.33921 0.40678 8.33921H2.0339C2.25856 8.33921 2.44068 8.15708 2.44068 7.93243C2.44068 7.70777 2.25856 7.52565 2.0339 7.52565H1.62712V4.67819C1.62708 4.51369 1.52798 4.3654 1.376 4.30246C1.22401 4.23951 1.04908 4.27429 0.932746 4.3906L0.119186 5.20416C-0.0349717 5.36377 -0.0327671 5.61748 0.124142 5.77439C0.28105 5.9313 0.534761 5.9335 0.694373 5.77934L0.813559 5.66015V7.52565H0.40678Z" fill="#3F5C6C"/>
<path d="M2.4408 14.847H1.51334C2.05899 14.304 2.38861 13.5811 2.4408 12.8131C2.4408 12.1391 1.89444 11.5928 1.22046 11.5928C0.546487 11.5928 0.000122925 12.1391 0.000122925 12.8131C0.000122925 13.0378 0.182244 13.2199 0.406903 13.2199C0.631561 13.2199 0.813682 13.0378 0.813682 12.8131C0.813682 12.5885 0.995804 12.4063 1.22046 12.4063C1.44512 12.4063 1.62724 12.5885 1.62724 12.8131C1.62724 13.2358 1.32256 14.1555 0.18114 14.9153C0.0319918 15.0148 -0.0344707 15.2002 0.0175043 15.3717C0.0694793 15.5433 0.227638 15.6606 0.406903 15.6606H2.4408C2.66546 15.6606 2.84758 15.4784 2.84758 15.2538C2.84758 15.0291 2.66546 14.847 2.4408 14.847Z" fill="#3F5C6C"/>
</g>
<defs>
<clipPath id="clip0_1110_7286">
<rect width="24" height="24" fill="white"/>
</clipPath>
</defs>
</svg>
