<svg width="29" height="28" viewBox="0 0 29 28" fill="none" xmlns="http://www.w3.org/2000/svg">
<path d="M10.3489 0.796875H21.5718C23.0924 0.796875 24.325 2.02953 24.325 3.55012V13.04C24.325 14.5606 23.0924 15.7933 21.5718 15.7933H20.9507L21.1509 17.5858C21.2419 18.4007 20.3457 18.9557 19.6567 18.5111L15.4457 15.7933H10.3489C8.82836 15.7933 7.5957 14.5606 7.5957 13.04V3.55006C7.59565 2.02953 8.82831 0.796875 10.3489 0.796875Z" fill="#0573CE"/>
<path d="M11.9522 15.7936H10.3489C8.8282 15.7936 7.5957 14.5606 7.5957 13.0404V3.55006C7.5957 2.0298 8.8282 0.796875 10.3489 0.796875H11.9522C10.4315 0.796875 9.19898 2.0298 9.19898 3.55006V13.0404C9.19898 14.5606 10.4315 15.7936 11.9522 15.7936Z" fill="#0067C5"/>
<path d="M14.3091 5.82324H3.08625C1.56566 5.82324 0.333008 7.0559 0.333008 8.57643V18.0664C0.333008 19.5869 1.56566 20.8196 3.08625 20.8196H3.70734L3.50712 22.6121C3.41613 23.427 4.31234 23.9821 5.00135 23.5374L9.2124 20.8196H14.3091C15.8297 20.8196 17.0624 19.5869 17.0624 18.0664V8.57643C17.0624 7.0559 15.8297 5.82324 14.3091 5.82324Z" fill="#FFD15B"/>
<path d="M5.18248 23.4204L5.00135 23.5374C4.31218 23.9822 3.41612 23.4273 3.50734 22.6121L3.70739 20.8195H3.0862C1.5655 20.8195 0.333008 19.587 0.333008 18.0663V8.57643C0.333008 7.05573 1.5655 5.82324 3.0862 5.82324H4.47094C2.95024 5.82324 1.71775 7.05573 1.71775 8.57643V18.0663C1.71775 19.587 2.95024 20.8195 4.47094 20.8195H5.09213L4.89165 22.6121C4.85512 22.9394 4.97811 23.225 5.18248 23.4204Z" fill="#FFC344"/>
<path d="M6.68391 16.2117C6.1326 16.2117 5.6857 15.7648 5.6857 15.2135V14.79C5.6857 13.8047 6.30612 12.9234 7.22963 12.5968C7.92427 12.3512 8.37189 11.6642 8.31808 10.9263C8.25918 10.1183 7.6049 9.46898 6.79629 9.41604C5.94092 9.35955 5.17885 9.97724 5.06111 10.8212C5.05055 10.8966 5.04525 10.974 5.04525 11.051C5.04525 11.6023 4.59834 12.0492 4.04704 12.0492C3.49573 12.0492 3.04883 11.6023 3.04883 11.051C3.04883 10.882 3.06064 10.7119 3.08388 10.5453C3.34545 8.67098 5.03344 7.29958 6.92677 7.42383C8.72419 7.54152 10.1784 8.98488 10.3094 10.7812C10.4284 12.4138 9.43567 13.9344 7.89523 14.4791C7.76781 14.5241 7.68223 14.649 7.68223 14.79V15.2134C7.68212 15.7647 7.23521 16.2117 6.68391 16.2117Z" fill="#0573CE"/>
<path d="M6.68376 19.1814C6.13245 19.1814 5.68555 18.7345 5.68555 18.1832V18.175C5.68555 17.6237 6.13245 17.1768 6.68376 17.1768C7.23506 17.1768 7.68197 17.6237 7.68197 18.175V18.1832C7.68197 18.7345 7.23506 19.1814 6.68376 19.1814Z" fill="#0573CE"/>
<path d="M3.96627 10.5456C3.94286 10.7121 3.93138 10.8821 3.93138 11.0512C3.93138 11.4441 4.15822 11.7841 4.48831 11.9467C4.3552 12.0125 4.20558 12.0494 4.04704 12.0494C3.49606 12.0494 3.04883 11.6027 3.04883 11.0512C3.04883 10.8821 3.0608 10.7121 3.08421 10.5456C3.34551 8.67086 5.03377 7.29968 6.92694 7.42382C6.99475 7.4283 7.06207 7.43481 7.1289 7.44329C5.5259 7.64071 4.19612 8.89918 3.96627 10.5456Z" fill="#0067C5"/>
<path d="M8.11176 12.5973C7.18836 12.9239 6.5676 13.8054 6.5676 14.7906V15.2139C6.5676 15.6068 6.79499 15.9469 7.12503 16.1095C6.99192 16.1752 6.8423 16.2122 6.68376 16.2122C6.13229 16.2122 5.68555 15.7654 5.68555 15.2139V14.7906C5.68555 13.8054 6.30581 12.9239 7.2297 12.5973C7.92423 12.3514 8.37152 11.6649 8.31766 10.9269C8.26729 10.2329 7.77767 9.656 7.12798 9.474C7.30298 9.42462 7.48848 9.40422 7.67847 9.41663C8.48719 9.46946 9.14136 10.1187 9.2002 10.9269C9.25407 11.6649 8.80629 12.3514 8.11176 12.5973Z" fill="#0067C5"/>
<path d="M7.12503 19.079C6.99192 19.1447 6.8423 19.1817 6.68376 19.1817C6.13229 19.1817 5.68555 18.7349 5.68555 18.1834V18.175C5.68555 17.624 6.13229 17.1768 6.68376 17.1768C6.8423 17.1768 6.99192 17.2137 7.12503 17.2795C6.79494 17.4425 6.5676 17.7825 6.5676 18.175V18.1834C6.5676 18.5763 6.79494 18.9164 7.12503 19.079Z" fill="#0067C5"/>
<path d="M14.3567 9.33203H25.5796C27.1002 9.33203 28.3329 10.5647 28.3329 12.0853V21.5752C28.3329 23.0958 27.1002 24.3284 25.5796 24.3284H24.9585L25.1587 26.1209C25.2497 26.9359 24.3535 27.4909 23.6645 27.0462L19.4535 24.3284H14.3568C12.8362 24.3284 11.6035 23.0958 11.6035 21.5752V12.0853C11.6035 10.5647 12.8361 9.33203 14.3567 9.33203Z" fill="#FE9738"/>
<path d="M15.96 24.3287H14.3567C12.836 24.3287 11.6035 23.0958 11.6035 21.5755V12.0852C11.6035 10.565 12.836 9.33203 14.3567 9.33203H15.96C14.4393 9.33203 13.2068 10.565 13.2068 12.0852V21.5755C13.2068 23.0958 14.4393 24.3287 15.96 24.3287Z" fill="#FE7D43"/>
<path d="M19.9681 19.4656C19.4168 19.4656 18.9699 19.0187 18.9699 18.4674V18.0439C18.9699 17.0586 19.5903 16.1773 20.5138 15.8507C21.2085 15.6051 21.6561 14.9181 21.6023 14.1803C21.5434 13.3722 20.8891 12.7229 20.0805 12.6699C19.2251 12.6135 18.463 13.2311 18.3453 14.0751C18.3347 14.1506 18.3294 14.2279 18.3294 14.3049C18.3294 14.8562 17.8825 15.3032 17.3312 15.3032C16.7799 15.3032 16.333 14.8562 16.333 14.3049C16.333 14.136 16.3448 13.9658 16.3681 13.7992C16.6296 11.9249 18.3176 10.5535 20.211 10.6777C22.0084 10.7954 23.4626 12.2388 23.5935 14.0351C23.7125 15.6677 22.7199 17.1883 21.1794 17.733C21.052 17.778 20.9664 17.9029 20.9664 18.0439V18.4673C20.9663 19.0186 20.5194 19.4656 19.9681 19.4656Z" fill="#F9F7F8"/>
<path d="M19.9679 22.4353C19.4166 22.4353 18.9697 21.9884 18.9697 21.4371V21.4289C18.9697 20.8776 19.4166 20.4307 19.9679 20.4307C20.5192 20.4307 20.9661 20.8776 20.9661 21.4289V21.4371C20.9661 21.9884 20.5192 22.4353 19.9679 22.4353Z" fill="#F9F7F8"/>
<path d="M17.2504 13.7995C17.227 13.966 17.2156 14.1361 17.2156 14.3051C17.2156 14.698 17.4424 15.038 17.7725 15.2006C17.6394 15.2664 17.4898 15.3033 17.3312 15.3033C16.7802 15.3033 16.333 14.8566 16.333 14.3051C16.333 14.1361 16.345 13.966 16.3684 13.7995C16.6297 11.9248 18.3179 10.5536 20.2111 10.6777C20.2789 10.6822 20.3463 10.6887 20.4131 10.6972C18.8101 10.8946 17.4803 12.1531 17.2504 13.7995Z" fill="#DEDBEE"/>
<path d="M21.3959 15.8512C20.4725 16.1778 19.8518 17.0593 19.8518 18.0445V18.4679C19.8518 18.8607 20.0792 19.2008 20.4092 19.3634C20.2761 19.4291 20.1265 19.4661 19.9679 19.4661C19.4165 19.4661 18.9697 19.0193 18.9697 18.4679V18.0445C18.9697 17.0593 19.59 16.1778 20.5139 15.8512C21.2084 15.6053 21.6557 14.9188 21.6018 14.1808C21.5515 13.4868 21.0619 12.9099 20.4122 12.7279C20.5872 12.6785 20.7727 12.6581 20.9626 12.6705C21.7714 12.7234 22.4255 13.3726 22.4844 14.1808C22.5382 14.9188 22.0905 15.6053 21.3959 15.8512Z" fill="#DEDBEE"/>
<path d="M20.4092 22.3329C20.2761 22.3986 20.1265 22.4356 19.9679 22.4356C19.4165 22.4356 18.9697 21.9888 18.9697 21.4374V21.4289C18.9697 20.8779 19.4165 20.4307 19.9679 20.4307C20.1265 20.4307 20.276 20.4676 20.4092 20.5334C20.0791 20.6964 19.8518 21.0364 19.8518 21.4289V21.4374C19.8518 21.8302 20.0792 22.1703 20.4092 22.3329Z" fill="#DEDBEE"/>
</svg>
