<svg width="28" height="28" viewBox="0 0 28 28" fill="none" xmlns="http://www.w3.org/2000/svg">
<g clip-path="url(#clip0_1110_8838)">
<path d="M8.3125 12.25C11.4536 12.25 14 9.70362 14 6.5625C14 3.42138 11.4536 0.875 8.3125 0.875C5.17138 0.875 2.625 3.42138 2.625 6.5625C2.625 9.70362 5.17138 12.25 8.3125 12.25Z" fill="#23AAE6"/>
<path d="M3.5 7.4375C3.98322 7.4375 4.375 7.04572 4.375 6.5625C4.375 4.39135 6.14135 2.625 8.3125 2.625C8.79572 2.625 9.1875 2.23322 9.1875 1.75C9.1875 1.26678 8.79572 0.875 8.3125 0.875C5.17136 0.875 2.625 3.42141 2.625 6.5625C2.625 7.04572 3.01678 7.4375 3.5 7.4375Z" fill="#5AD7FF"/>
<path d="M8.3125 10.5C10.4871 10.5 12.25 8.73712 12.25 6.5625C12.25 4.38788 10.4871 2.625 8.3125 2.625C6.13788 2.625 4.375 4.38788 4.375 6.5625C4.375 8.73712 6.13788 10.5 8.3125 10.5Z" fill="#463C4B"/>
<path d="M11.2289 8.75C11.2289 8.02512 10.6412 7.4375 9.91636 7.4375H6.70801C5.98312 7.4375 5.39551 8.02512 5.39551 8.75V9.20762C6.11591 10.0015 7.15579 10.5 8.31221 10.5C9.46863 10.5 10.5085 10.0015 11.2289 9.20762V8.75Z" fill="#F04B37"/>
<path d="M8.3125 9.1875C7.58762 9.1875 7 8.59988 7 7.875V7.4375H9.625V7.875C9.625 8.59988 9.03738 9.1875 8.3125 9.1875Z" fill="#D7E6F0"/>
<path d="M8.3125 7C9.279 7 10.0625 6.2165 10.0625 5.25C10.0625 4.2835 9.279 3.5 8.3125 3.5C7.346 3.5 6.5625 4.2835 6.5625 5.25C6.5625 6.2165 7.346 7 8.3125 7Z" fill="#FAB991"/>
<path d="M19.6875 12.25C22.8286 12.25 25.375 9.70362 25.375 6.5625C25.375 3.42138 22.8286 0.875 19.6875 0.875C16.5464 0.875 14 3.42138 14 6.5625C14 9.70362 16.5464 12.25 19.6875 12.25Z" fill="#23AAE6"/>
<path d="M14.875 7.4375C15.3582 7.4375 15.75 7.04572 15.75 6.5625C15.75 4.39135 17.5164 2.625 19.6875 2.625C20.1707 2.625 20.5625 2.23322 20.5625 1.75C20.5625 1.26678 20.1707 0.875 19.6875 0.875C16.5464 0.875 14 3.42141 14 6.5625C14 7.04572 14.3918 7.4375 14.875 7.4375Z" fill="#5AD7FF"/>
<path d="M19.6875 10.5C21.8621 10.5 23.625 8.73712 23.625 6.5625C23.625 4.38788 21.8621 2.625 19.6875 2.625C17.5129 2.625 15.75 4.38788 15.75 6.5625C15.75 8.73712 17.5129 10.5 19.6875 10.5Z" fill="#463C4B"/>
<path d="M22.6039 8.75C22.6039 8.02512 22.0162 7.4375 21.2914 7.4375H18.083C17.3581 7.4375 16.7705 8.02512 16.7705 8.75V9.20762C17.4909 10.0015 18.5308 10.5 19.6872 10.5C20.8436 10.5 21.8835 10.0015 22.6039 9.20762V8.75Z" fill="#F04B37"/>
<path d="M19.6875 9.1875C18.9626 9.1875 18.375 8.59988 18.375 7.875V7.4375H21V7.875C21 8.59988 20.4124 9.1875 19.6875 9.1875Z" fill="#D7E6F0"/>
<path d="M19.6875 7C20.654 7 21.4375 6.2165 21.4375 5.25C21.4375 4.2835 20.654 3.5 19.6875 3.5C18.721 3.5 17.9375 4.2835 17.9375 5.25C17.9375 6.2165 18.721 7 19.6875 7Z" fill="#FAB991"/>
<path d="M25.375 21H2.625C1.65851 21 0.875 20.2165 0.875 19.25V12.25C0.875 11.2835 1.65851 10.5 2.625 10.5H25.375C26.3415 10.5 27.125 11.2835 27.125 12.25V19.25C27.125 20.2165 26.3415 21 25.375 21Z" fill="#463C4B"/>
<path d="M23.625 21H2.625C1.65851 21 0.875 20.2165 0.875 19.25V12.25C0.875 11.2835 1.65851 10.5 2.625 10.5H23.625C24.5915 10.5 25.375 11.2835 25.375 12.25V19.25C25.375 20.2165 24.5915 21 23.625 21Z" fill="#555A6E"/>
<path d="M15.75 18.8125H22.75V23.1875C22.75 23.6708 22.3583 24.0625 21.875 24.0625H15.75V18.8125Z" fill="#F0915A"/>
<path d="M21.875 17.0625C22.3583 17.0625 22.75 17.4542 22.75 17.9375V18.8125H21V17.9375C21 17.4542 21.3917 17.0625 21.875 17.0625Z" fill="#FAB991"/>
<path d="M20.125 17.0625C20.6083 17.0625 21 17.4542 21 17.9375V18.8125H19.25V17.9375C19.25 17.4542 19.6417 17.0625 20.125 17.0625Z" fill="#FAB991"/>
<path d="M18.375 17.0625C18.8583 17.0625 19.25 17.4542 19.25 17.9375V18.8125H17.5V17.9375C17.5 17.4542 17.8917 17.0625 18.375 17.0625Z" fill="#FAB991"/>
<path d="M16.625 13.125C17.1083 13.125 17.5 13.5167 17.5 14V18.8125H15.75V14C15.75 13.5167 16.1417 13.125 16.625 13.125Z" fill="#FAB991"/>
<path d="M21.875 25.375H15.75V24.0625H21.875V25.375Z" fill="#F0915A"/>
<path d="M15.75 25.375H18.8125C18.8125 24.6501 18.2249 24.0625 17.5 24.0625H15.75V25.375Z" fill="#FAB991"/>
<path d="M14.4375 18.8125C15.1624 18.8125 15.75 19.4001 15.75 20.125V24.0625C14.7835 24.0625 14 23.279 14 22.3125V19.25C14 19.0084 14.1959 18.8125 14.4375 18.8125Z" fill="#FAB991"/>
<path d="M21.875 25.375H15.75C15.2667 25.375 14.875 25.7667 14.875 26.25V27.125H22.75V26.25C22.75 25.7667 22.3583 25.375 21.875 25.375Z" fill="#F04B37"/>
<path d="M21.875 25.375H18.8125V27.125H22.75V26.25C22.75 25.7667 22.3583 25.375 21.875 25.375Z" fill="#E1322D"/>
<path d="M16.625 14.4375C16.8666 14.4375 17.0625 14.2416 17.0625 14C17.0625 13.7584 16.8666 13.5625 16.625 13.5625C16.3834 13.5625 16.1875 13.7584 16.1875 14C16.1875 14.2416 16.3834 14.4375 16.625 14.4375Z" fill="#F0915A"/>
<path d="M14.7291 20.5625H14V19.25C14.5638 19.25 15.0209 19.707 15.0209 20.2709C15.0209 20.4319 14.8903 20.5625 14.7291 20.5625Z" fill="#F0915A"/>
<path d="M8.3125 19.25C10.2455 19.25 11.8125 17.683 11.8125 15.75C11.8125 13.817 10.2455 12.25 8.3125 12.25C6.3795 12.25 4.8125 13.817 4.8125 15.75C4.8125 17.683 6.3795 19.25 8.3125 19.25Z" fill="#D7E6F0"/>
<path d="M8.31249 17.9375C8.08854 17.9375 7.86465 17.8521 7.69381 17.6812L5.94381 15.9312C5.60206 15.5895 5.60206 15.0354 5.94381 14.6938C6.28549 14.352 6.83953 14.352 7.18122 14.6938L8.31249 15.8251L11.1938 12.9438C11.5355 12.6021 12.0895 12.6021 12.4312 12.9438C12.773 13.2855 12.773 13.8395 12.4312 14.1812L8.93122 17.6812C8.76032 17.8521 8.53643 17.9375 8.31249 17.9375Z" fill="#23AAE6"/>
</g>
<defs>
<clipPath id="clip0_1110_8838">
<rect width="28" height="28" fill="white"/>
</clipPath>
</defs>
</svg>
