<svg width="28" height="28" viewBox="0 0 28 28" fill="none" xmlns="http://www.w3.org/2000/svg">
<g clip-path="url(#clip0_1110_8739)">
<path d="M20.3223 12.4193V12.7363C20.3223 13.1246 20.3849 13.5104 20.5077 13.8787L21.2255 16.0322H22.5803V11.0645H21.6771C20.9289 11.0645 20.3223 11.671 20.3223 12.4193Z" fill="#5A4146"/>
<path d="M26.5059 13.3578L25.7417 16.0326L22.1288 12.8713C21.6299 12.8713 21.2256 12.4669 21.2256 11.9681C21.2256 11.2199 21.8322 10.6133 22.5804 10.6133H25.7417C26.2405 10.6133 26.6449 11.0177 26.6449 11.5165V12.3654C26.645 12.701 26.5981 13.035 26.5059 13.3578Z" fill="#694B4B"/>
<path d="M24.8386 17.3877H22.1289V19.3865H24.8386V17.3877Z" fill="#E6AF78"/>
<path d="M22.1289 18.2163C22.5478 18.3865 23.0045 18.4823 23.4837 18.4823C23.963 18.4823 24.4197 18.3865 24.8386 18.2163V17.3867H22.1289V18.2163Z" fill="#D29B6E"/>
<path d="M27.0173 19.1049L24.8386 18.4825L23.4839 19.3815L22.129 18.4824L19.9504 19.1049C19.3687 19.2711 18.9678 19.8027 18.9678 20.4076V23.7095C18.9678 23.9589 19.17 24.1611 19.4194 24.1611H27.5484C27.7978 24.1611 28 23.9589 28 23.7095V20.4076C28 19.8027 27.599 19.2711 27.0173 19.1049Z" fill="#D5DCED"/>
<path d="M23.9354 24.1611H23.0322L23.258 19.3857H23.7096L23.9354 24.1611Z" fill="#AFB9D2"/>
<path d="M23.4841 17.8392C21.9875 17.8392 20.7744 16.626 20.7744 15.1295V14.6004C20.7744 14.3609 20.8696 14.1311 21.0389 13.9617L21.8579 13.1428C22.0313 12.9694 22.2684 12.8697 22.5135 12.8774C23.9572 12.9229 25.235 13.2322 25.9335 13.9144C26.1045 14.0814 26.1938 14.3151 26.1938 14.554V15.1295C26.1938 16.626 24.9806 17.8392 23.4841 17.8392Z" fill="#F0C087"/>
<path d="M22.1292 14.7115C22.1292 14.1905 22.5667 13.7764 23.0867 13.8096C23.9984 13.8678 25.3512 14.0201 26.1812 14.4193C26.1541 14.2288 26.0723 14.0489 25.9335 13.9134C25.235 13.2312 23.9572 12.9219 22.5135 12.8764L22.5135 12.8764C22.2684 12.8687 22.0312 12.9684 21.8579 13.1418L21.039 13.9607C20.8696 14.13 20.7744 14.3598 20.7744 14.5994V15.1285C20.7744 16.3642 21.6024 17.4046 22.7333 17.7305C22.3569 17.266 22.1293 16.6765 22.1293 16.0317L22.1292 14.7115Z" fill="#E6AF78"/>
<path d="M26.1934 21.7533C26.1934 21.394 26.3361 21.0494 26.5902 20.7953L27.7527 19.6328C27.908 19.8549 27.9998 20.1223 27.9998 20.4077V23.7095C27.9998 23.9589 27.7976 24.1611 27.5482 24.1611H26.1934V21.7533Z" fill="#C7CFE2"/>
<path d="M23.7096 20.289H23.258C23.1333 20.289 23.0322 20.1878 23.0322 20.0632V19.3857H23.9354V20.0632C23.9354 20.1878 23.8344 20.289 23.7096 20.289Z" fill="#959CB5"/>
<path d="M23.4842 19.3818L22.7187 19.9664C22.5869 20.0672 22.3962 20.0268 22.3165 19.8812L21.6299 18.6272L21.9063 18.2056C21.9676 18.1121 22.0982 18.0962 22.1802 18.1722L23.4842 19.3818Z" fill="#C7CFE2"/>
<path d="M23.4844 19.3817L24.2498 19.9664C24.3817 20.0672 24.5723 20.0268 24.652 19.8812L25.3387 18.6272L25.0623 18.2056C25.001 18.1121 24.8703 18.0962 24.7883 18.1722L23.4844 19.3817Z" fill="#C7CFE2"/>
<path d="M8.08376 17.6498C7.69783 16.6272 7.39175 14.8694 7.32563 13.9542C7.19985 12.2127 5.8874 10.793 4.11323 10.793C2.33906 10.793 1.02661 12.2127 0.90083 13.9542C0.834713 14.8694 0.528627 16.6272 0.142698 17.6498C0.0576585 17.8752 0.155823 18.1238 0.377799 18.2244C0.791346 18.4118 1.67307 18.779 2.73647 18.922H5.48993C6.54835 18.7787 7.43626 18.4113 7.8486 18.2244C8.07064 18.1238 8.1688 17.8752 8.08376 17.6498Z" fill="#5A4146"/>
<path d="M7.8486 18.2244C8.07052 18.1238 8.16874 17.8752 8.08365 17.6498C7.69777 16.6273 7.39163 14.8694 7.32557 13.9542C7.19984 12.2127 5.88734 10.793 4.11323 10.793C4.10874 10.793 4.10431 10.793 4.09983 10.793C2.73849 10.7985 2.25741 12.6551 3.4293 13.3479C3.49969 13.3895 3.5448 13.4095 3.5448 13.4095L4.57123 18.922H5.48993C6.54835 18.7785 7.43626 18.4112 7.8486 18.2244Z" fill="#694B4B"/>
<path d="M7.38008 19.8291L5.91861 19.0984C5.61258 18.9454 5.41926 18.6326 5.41931 18.2904L5.41942 16.9355H2.70966V18.2905C2.70966 18.6326 2.51639 18.9453 2.21036 19.0983L0.748891 19.8291C0.289898 20.0585 0 20.5276 0 21.0408V23.7096C0 23.959 0.20218 24.1612 0.451609 24.1612H7.67741C7.92684 24.1612 8.12902 23.959 8.12902 23.7096V21.0408C8.12902 20.5276 7.83907 20.0585 7.38008 19.8291Z" fill="#E6AF78"/>
<path d="M4.06482 18.742C4.5511 18.742 5.01688 18.6417 5.44388 18.4633C5.43266 18.4064 5.41959 18.3498 5.41959 18.2904L5.4197 16.9355H2.70994V18.2905C2.70994 18.3501 2.69687 18.407 2.68555 18.4642C3.11282 18.6417 3.57837 18.742 4.06482 18.742Z" fill="#D29B6E"/>
<path d="M7.38008 19.8292L6.33894 19.3086C5.85616 20.0541 5.01884 20.5486 4.06454 20.5486C3.11024 20.5486 2.27287 20.0541 1.79009 19.3086L0.748945 19.8292C0.289953 20.0587 0 20.5278 0 21.0409V23.7098C0 23.9592 0.20218 24.1614 0.451609 24.1614H7.67741C7.92684 24.1614 8.12902 23.9592 8.12902 23.7098V21.041C8.12902 20.5278 7.83907 20.0587 7.38008 19.8292Z" fill="#D5DCED"/>
<path d="M4.06424 17.8385C2.68655 17.8385 1.54905 16.8104 1.37706 15.4796C1.35212 15.2868 1.44481 15.0977 1.61839 15.0101C1.82631 14.9053 2.12846 14.7284 2.41776 14.4703C2.73992 14.1828 2.92892 13.8797 3.03567 13.6572C3.1276 13.4656 3.33892 13.3572 3.54487 13.4097C5.13496 13.8153 6.2175 14.6425 6.61027 14.9803C6.7157 15.071 6.77646 15.2047 6.76564 15.3434C6.65621 16.7395 5.48857 17.8385 4.06424 17.8385Z" fill="#F0C087"/>
<path d="M6.6102 14.9803C6.21749 14.6425 5.13489 13.8153 3.5448 13.4097C3.33885 13.3572 3.12753 13.4656 3.03561 13.6572C2.95478 13.8257 2.82118 14.0404 2.62293 14.2596C2.62288 14.2602 2.62271 14.2606 2.62266 14.2611C2.56114 14.3309 2.49562 14.4008 2.41775 14.4703C2.12845 14.7285 1.8263 14.9053 1.61838 15.0102C1.4448 15.0978 1.35216 15.2869 1.37704 15.4797C1.53153 16.6749 2.4668 17.6262 3.65341 17.8077C3.11271 17.4399 2.70939 16.934 2.70939 16.0322V15.3882C2.81199 15.3125 2.91529 15.2369 3.01909 15.1443C3.27011 14.9203 3.48924 14.6612 3.66495 14.3823C4.88136 14.7619 5.70605 15.3942 6.0187 15.663C6.10428 15.738 6.31669 15.9338 6.56519 16.167C6.67211 15.9096 6.74282 15.6336 6.76551 15.3435C6.77639 15.2047 6.71564 15.071 6.6102 14.9803Z" fill="#E6AF78"/>
<path d="M0.275297 20.2266C0.101336 20.4575 0 20.7407 0 21.0406V23.7095C0 23.9589 0.20218 24.1611 0.451609 24.1611H1.80644V21.8856C1.80644 21.6112 1.6817 21.3516 1.46743 21.1803L0.275297 20.2266Z" fill="#C7CFE2"/>
<path d="M20.488 19.2129L16.7093 17.8389L13.9997 18.7421L11.29 17.8389L7.51139 19.213C6.7975 19.4726 6.32227 20.1511 6.32227 20.9107V23.7099C6.32227 23.9593 6.52445 24.1615 6.77388 24.1615H21.2255C21.4749 24.1615 21.6771 23.9593 21.6771 23.7099V20.9107C21.6771 20.151 21.2019 19.4725 20.488 19.2129Z" fill="#FF507D"/>
<path d="M13.5268 19.6455L13.0967 24.1615H14.9031L14.473 19.6455H13.5268Z" fill="#707487"/>
<path d="M14.4744 20.2659H13.5261C13.3515 20.2659 13.21 20.1244 13.21 19.9497V18.7422H14.7905V19.9497C14.7905 20.1243 14.649 20.2659 14.4744 20.2659Z" fill="#5B5D6E"/>
<path d="M21.1913 19.6797C21.4962 20.007 21.6774 20.4429 21.6774 20.9105V23.7097C21.6774 23.9591 21.4753 24.1613 21.2258 24.1613H18.9678V22.6515C18.9678 22.1724 19.1581 21.7129 19.4969 21.3742L21.1913 19.6797Z" fill="#D23C69"/>
<path d="M18.9677 8.52537V4.74209C18.9677 4.24323 18.5633 3.83887 18.0645 3.83887H12.6452C10.6498 3.83887 9.03223 5.45641 9.03223 7.4518V8.52537C9.03223 9.01077 9.11048 9.49301 9.26399 9.95348L9.41433 10.4045C9.46037 10.5426 9.48384 10.6873 9.48384 10.8329V11.0647H18.5161V10.8329C18.5161 10.6873 18.5395 10.5426 18.5856 10.4045L18.7359 9.95348C18.8895 9.49295 18.9677 9.01072 18.9677 8.52537Z" fill="#5A4146"/>
<path d="M11.29 5.67352C11.29 6.68677 12.1114 7.50818 13.1247 7.50818H13.3787L13.5013 11.0646H18.5158V10.8329C18.5158 10.6872 18.5393 10.5426 18.5853 10.4044L18.7356 9.95342C18.8891 9.49295 18.9674 9.01072 18.9674 8.52531V4.74209C18.9674 4.24323 18.563 3.83887 18.0642 3.83887H13.1247C12.1114 3.83887 11.29 4.66027 11.29 5.67352Z" fill="#694B4B"/>
<path d="M16.7096 14.6777H11.29V18.7421H16.7096V14.6777Z" fill="#E6AF78"/>
<path d="M11.2901 16.2048C12.0879 16.667 13.0115 16.9358 13.9997 16.9358C14.988 16.9358 15.9117 16.667 16.7094 16.2048V14.6777H11.29L11.2901 16.2048Z" fill="#D29B6E"/>
<path d="M13.9996 18.7421L12.5592 20.1824C12.3656 20.376 12.0457 20.3542 11.8802 20.1361L10.3867 18.1682L10.7774 17.345C10.8926 17.1021 11.1933 17.0131 11.4222 17.1542L13.9996 18.7421Z" fill="#D23C69"/>
<path d="M14 18.7421L15.4404 20.1824C15.634 20.376 15.9539 20.3542 16.1194 20.1361L17.6129 18.1682L17.2222 17.345C17.107 17.1021 16.8063 17.0131 16.5774 17.1542L14 18.7421Z" fill="#D23C69"/>
<path d="M13.9995 16.0321C11.5054 16.0321 9.4834 14.0102 9.4834 11.516V10.9869C9.4834 10.7474 9.57855 10.5176 9.74792 10.3482L10.122 9.97408C10.2914 9.80471 10.3866 9.57497 10.3866 9.33538V8.25279C10.3866 8.04367 10.527 7.86199 10.7305 7.81392C11.7986 7.56165 15.1223 6.96408 17.3843 8.62767C17.5312 8.73568 17.6124 8.91314 17.6124 9.09547V9.33538C17.6124 9.57492 17.7075 9.80466 17.8769 9.97408L18.251 10.3482C18.4204 10.5176 18.5155 10.7473 18.5155 10.9869V11.516C18.5157 14.0102 16.4937 16.0321 13.9995 16.0321Z" fill="#F0C087"/>
<path d="M17.3843 8.62789C15.7935 7.45785 13.6803 7.40721 12.1931 7.56739C11.5658 7.63493 11.0475 7.73933 10.7306 7.81414C10.5271 7.86221 10.3867 8.04389 10.3867 8.25301V9.33555C10.3867 9.57514 10.2915 9.80488 10.1221 9.9743L9.74798 10.3484C9.57855 10.5178 9.4834 10.7476 9.4834 10.9872V11.5162C9.4834 13.8253 11.2175 15.7263 13.4538 15.9962C12.6746 15.1847 12.1931 14.085 12.1931 12.871V9.57005C12.1931 9.11237 12.5334 8.72989 12.9874 8.67296C14.0712 8.53706 16.0563 8.45535 17.6124 9.33566V9.09569C17.6125 8.91336 17.5311 8.73585 17.3843 8.62789Z" fill="#E6AF78"/>
<path d="M6.80838 19.6797C6.50345 20.007 6.32227 20.4429 6.32227 20.9105V23.7097C6.32227 23.9591 6.52445 24.1613 6.77388 24.1613H9.03192V22.6515C9.03192 22.1724 8.84161 21.7129 8.50282 21.3742L6.80838 19.6797Z" fill="#D23C69"/>
</g>
<defs>
<clipPath id="clip0_1110_8739">
<rect width="28" height="28" fill="white"/>
</clipPath>
</defs>
</svg>
