<svg width="28" height="28" viewBox="0 0 28 28" fill="none" xmlns="http://www.w3.org/2000/svg">
<g clip-path="url(#clip0_1110_8935)">
<path d="M14.0014 26.432L19.5483 25.0312C22.7144 22.4022 24.7311 18.4367 24.7311 13.9997C24.7311 7.15591 19.9344 1.43248 13.5195 0.0078125C6.00999 0.26107 0 6.42851 0 13.9997C0 17.8886 1.58594 21.4069 4.14597 23.9438L14.0014 26.432Z" fill="#CBE2FF"/>
<path d="M24.441 14C24.441 18.5891 22.2327 22.662 18.821 25.2153L23.854 23.9443C26.4142 21.4073 28.0004 17.889 28.0004 14C28.0004 6.26801 21.7324 0 14.0004 0C13.3975 0 12.8035 0.0381719 12.2207 0.112109C19.1124 0.986453 24.441 6.87094 24.441 14Z" fill="#BED8FB"/>
<path d="M17.479 5.30248C17.479 4.58745 16.8994 4.00781 16.1843 4.00781H11.7228C10.0772 4.00781 8.74316 5.34186 8.74316 6.98746V10.2957H19.2546V7.03438C19.2546 6.31934 18.675 5.73971 17.9599 5.73971H17.9163C17.6748 5.73971 17.479 5.54398 17.479 5.30248Z" fill="#365E7D"/>
<path d="M17.9601 5.73977H17.9164C17.6749 5.73977 17.4792 5.54398 17.4792 5.30248C17.4792 4.58745 16.8995 4.00781 16.1845 4.00781H15.6953V10.2957H19.2547V7.03438C19.2548 6.31945 18.6751 5.73977 17.9601 5.73977Z" fill="#2B4D66"/>
<path d="M23.2449 20.3634C22.9026 20.0253 22.4792 19.7639 21.9985 19.6117L18.1764 18.4016L14.0011 18.2549L9.82405 18.4016L6.00188 19.6117C4.70885 20.0211 3.83008 21.2211 3.83008 22.5774V23.6216C6.27948 26.2098 9.7063 27.8636 13.5198 27.9922C17.7924 27.0432 21.3471 24.1873 23.2449 20.3634Z" fill="#4A80AA"/>
<path d="M24.1702 23.6213V22.5771C24.1702 21.6181 23.7305 20.7377 23.016 20.1592C20.9865 24.295 16.9773 27.2832 12.2236 27.8875C12.7974 27.9601 13.3818 27.9989 13.9751 27.9999C14.5451 27.9991 15.1075 27.966 15.6607 27.9025C18.9984 27.5081 21.9763 25.9395 24.1702 23.6213Z" fill="#407093"/>
<path d="M14.3173 27.7911C15.1643 26.1094 17.37 21.3343 16.7411 18.3515L14.0012 17.2852L11.2587 18.3516C10.6103 21.4264 12.9743 26.4058 13.7569 27.9377C13.9451 27.8926 14.132 27.8436 14.3173 27.7911Z" fill="#E4F6FF"/>
<path d="M15.7611 26.4574L14.6501 22.0869H13.3504L12.2422 26.4455L13.6125 27.9711C13.9604 27.8914 14.3035 27.799 14.6412 27.6945L15.7611 26.4574Z" fill="#E28086"/>
<path d="M13.6344 27.9956C13.7478 27.9986 13.8615 28.0006 13.9757 28.0008C14.1077 28.0006 14.2394 27.9983 14.3706 27.9946L15.0765 27.2148C14.5209 27.4097 13.9494 27.5706 13.3643 27.6949L13.6344 27.9956Z" fill="#DD636E"/>
<path d="M16.3393 17.9479V15.4834H11.6592V17.9479C11.6592 19.2403 13.9993 20.652 13.9993 20.652C13.9993 20.652 16.3393 19.2403 16.3393 17.9479Z" fill="#FFDDCE"/>
<path d="M19.2546 9.86138H18.36C17.8624 9.86138 17.4591 9.45806 17.4591 8.96051V8.46751C17.4591 7.8194 16.825 7.36118 16.2096 7.56456C14.7745 8.03892 13.2249 8.03903 11.7896 7.56489L11.7879 7.56434C11.1726 7.36107 10.5386 7.8193 10.5386 8.46734V8.96057C10.5386 9.45812 10.1353 9.86144 9.63774 9.86144H8.74316V11.3346C8.74316 11.711 9.04832 12.0162 9.42479 12.0162C9.54357 12.0162 9.6402 12.1093 9.64769 12.2278C9.79141 14.5065 11.684 16.3105 13.9989 16.3105C16.3138 16.3105 18.2064 14.5065 18.3501 12.2278C18.3576 12.1093 18.4542 12.0162 18.573 12.0162C18.9494 12.0162 19.2546 11.7111 19.2546 11.3346V9.86138H19.2546Z" fill="#FFDDCE"/>
<path d="M18.3597 9.86121C17.8621 9.86121 17.4588 9.45789 17.4588 8.96034V8.46733C17.4588 7.81923 16.8247 7.361 16.2094 7.56439C16.0394 7.62055 15.8677 7.66955 15.6949 7.71243V12.5781C15.671 14.1612 14.8035 15.539 13.5225 16.2836C13.6789 16.3006 13.8376 16.3102 13.9986 16.3102C16.3135 16.3102 18.2061 14.5063 18.3498 12.2275C18.3573 12.109 18.4539 12.0159 18.5727 12.0159C18.9491 12.0159 19.2543 11.7108 19.2543 11.3343V9.86115L18.3597 9.86121Z" fill="#FFCBBE"/>
<path d="M11.6594 17.2852L9.82422 18.7763L11.7488 21.1559C11.9829 21.3839 12.3514 21.3979 12.6022 21.1884L14.0495 19.9794L11.6594 17.2852Z" fill="#F4FBFF"/>
<path d="M16.3408 17.2852L14.0498 19.9794L15.4101 21.1425C15.6593 21.3556 16.0295 21.3449 16.266 21.1178L18.1768 18.7763L16.3408 17.2852Z" fill="#F4FBFF"/>
<path d="M11.6596 17.2852L8.96593 18.6085C8.76085 18.7093 8.6785 18.9588 8.78322 19.1618L9.31096 20.185C9.44773 20.4501 9.39725 20.7732 9.18616 20.984C9.0775 21.0924 8.95981 21.2099 8.85782 21.3117C8.67527 21.494 8.6097 21.7632 8.69009 22.0083C9.32725 23.9506 12.3938 26.9208 13.5543 27.9954C13.6324 27.9975 13.7106 27.9989 13.7889 27.9998C12.9473 26.3628 9.96507 20.1436 11.6596 17.2852Z" fill="#365E7D"/>
<path d="M18.814 20.9839C18.6028 20.7732 18.5524 20.4501 18.6892 20.185L19.2169 19.1618C19.3216 18.9587 19.2393 18.7092 19.0342 18.6085L16.3405 17.2852C18.0346 20.1429 15.0544 26.3594 14.2119 27.9984C14.2911 27.9971 14.3701 27.9951 14.449 27.9925C15.6119 26.9154 18.6735 23.9489 19.31 22.0084C19.3904 21.7632 19.3249 21.494 19.1423 21.3118C19.0403 21.2099 18.9226 21.0924 18.814 20.9839Z" fill="#365E7D"/>
<path d="M14.0492 19.9795L12.624 21.1697L13.3502 22.0874H14.6499L15.3761 21.1156L14.0492 19.9795Z" fill="#DD636E"/>
</g>
<defs>
<clipPath id="clip0_1110_8935">
<rect width="28" height="28" fill="white"/>
</clipPath>
</defs>
</svg>
